M48
;Layer_Color=9474304
;FILE_FORMAT=4:4
METRIC
;TYPE=PLATED
T1F00S00C0.3000
T4F00S00C0.8500
T5F00S00C1.0000
T7F00S00C2.3000
%
T01
X00540000Y00340000
X00555000
X00570000
X00585000
X00600000
X00755000Y00317500
X00772000Y00384250
X00983498Y00384455
X00925000Y00410000
X00910000
X00895000
X00880000
X00865000
X00869500Y00537500
X00855500Y00554500
X00844000Y00659750
X00806500Y00641250
X00972500Y00782500
X00740000Y00735000
Y00720000
Y00705000
Y00690000
Y00675000
X00738750Y00613000
X00722500Y00571250
X00694000Y00571000
X00630000Y00546500
X00590500Y00613500
X00610000Y00800000
X00625000
X00640000
X00655000
X00670000
X00612000Y00889750
X00673750Y00963000
X00722500Y00967000
X00721211Y00935940
X00752250Y00980500
X00777524Y00964154
X00745500Y01038000
X00730000Y01053000
X00675250Y01069750
X00646000Y01045750
X00554500Y00974250
X00762250Y00863750
X00818000Y00813250
X00838283Y00978232
X00836000Y01021500
X00795750Y01083250
X00968250Y00993500
X00915000Y01205000
X00900000
X00885000
X00870000
X00855000
X00665000
X00650000
X00635000
X00620000
X00605000
T04
X00786850Y00307000
X00812250
X00837650
X00869500
X00894900
X00920300
X00932700Y00500000
X00907300
X00829700Y00487750
X00804300
X00778900
X00753500
X00750000Y00778800
Y00804200
Y00887300
Y00912700
T05
X00575000Y00865000
X00600000
X00625000
Y01035000
X00600000
X00575000
X00875000
X00900000
X00925000
Y00865000
X00900000
X00875000
T07
X00583000Y00397000
X00630000
X00677000
Y00450000
X00630000
X00583000
Y00503000
X00630000
X00677000
M30
