M48
;Layer_Color=9474304
;FILE_FORMAT=4:4
METRIC
;TYPE=PLATED
T2F00S00C0.5000
T3F00S00C0.8000
%
G90
G05
T02
G00X00859000Y00589000
M15
G01X00823000
M16
G00X00922000Y00589000
M15
G01X00886000
M16
G00X00985000Y00589000
M15
G01X00949000
M16
G00X00985000Y00751000
M15
G01X00949000
M16
G00X00922000Y00751000
M15
G01X00886000
M16
G00X00859000Y00751000
M15
G01X00823000
M16
G00X00641000Y00751000
M15
G01X00677000
M16
G00X00578000Y00751000
M15
G01X00614000
M16
G00X00515000Y00751000
M15
G01X00551000
M16
G00X00515000Y00589000
M15
G01X00551000
M16
G00X00578000Y00589000
M15
G01X00614000
M16
G00X00641000Y00589000
M15
G01X00677000
M16
T03
G00X00763500Y01123000
M15
G01X00736500
M16
G00X00763500Y01183000
M15
G01X00736500
M16
G00X00798000Y01134500
M15
G01Y01161500
M16
M17
M30
