G04*
G04 #@! TF.GenerationSoftware,Altium Limited,Altium Designer,21.6.4 (81)*
G04*
G04 Layer_Physical_Order=2*
G04 Layer_Color=16711680*
%FSAX44Y44*%
%MOMM*%
G71*
G04*
G04 #@! TF.SameCoordinates,1A77CDA6-7C2D-4FE3-B1CB-ECEED33A992D*
G04*
G04*
G04 #@! TF.FilePolarity,Positive*
G04*
G01*
G75*
%ADD13C,0.2540*%
%ADD14C,0.0500*%
%ADD20R,0.6000X0.9000*%
%ADD21R,0.9000X0.6000*%
%ADD24R,1.2000X0.8000*%
%ADD25O,1.2000X0.8000*%
%ADD51C,0.1270*%
%ADD52C,1.5240*%
G04:AMPARAMS|DCode=53|XSize=4.5mm|YSize=1.2mm|CornerRadius=0.3mm|HoleSize=0mm|Usage=FLASHONLY|Rotation=0.000|XOffset=0mm|YOffset=0mm|HoleType=Round|Shape=RoundedRectangle|*
%AMROUNDEDRECTD53*
21,1,4.5000,0.6000,0,0,0.0*
21,1,3.9000,1.2000,0,0,0.0*
1,1,0.6000,1.9500,-0.3000*
1,1,0.6000,-1.9500,-0.3000*
1,1,0.6000,-1.9500,0.3000*
1,1,0.6000,1.9500,0.3000*
%
%ADD53ROUNDEDRECTD53*%
%ADD54R,3.0000X3.0000*%
%ADD55C,1.8000*%
G04:AMPARAMS|DCode=56|XSize=4.5mm|YSize=2mm|CornerRadius=0.5mm|HoleSize=0mm|Usage=FLASHONLY|Rotation=90.000|XOffset=0mm|YOffset=0mm|HoleType=Round|Shape=RoundedRectangle|*
%AMROUNDEDRECTD56*
21,1,4.5000,1.0000,0,0,90.0*
21,1,3.5000,2.0000,0,0,90.0*
1,1,1.0000,0.5000,1.7500*
1,1,1.0000,0.5000,-1.7500*
1,1,1.0000,-0.5000,-1.7500*
1,1,1.0000,-0.5000,1.7500*
%
%ADD56ROUNDEDRECTD56*%
G04:AMPARAMS|DCode=57|XSize=4.5mm|YSize=2mm|CornerRadius=0.5mm|HoleSize=0mm|Usage=FLASHONLY|Rotation=180.000|XOffset=0mm|YOffset=0mm|HoleType=Round|Shape=RoundedRectangle|*
%AMROUNDEDRECTD57*
21,1,4.5000,1.0000,0,0,180.0*
21,1,3.5000,2.0000,0,0,180.0*
1,1,1.0000,-1.7500,0.5000*
1,1,1.0000,1.7500,0.5000*
1,1,1.0000,1.7500,-0.5000*
1,1,1.0000,-1.7500,-0.5000*
%
%ADD57ROUNDEDRECTD57*%
%ADD58C,3.5000*%
%ADD59C,0.6000*%
G36*
X00938007Y01260669D02*
X00938679Y01253847D01*
X00938716Y01253724D01*
Y01253596D01*
X00940053Y01246873D01*
X00940103Y01246754D01*
X00940115Y01246626D01*
X00942105Y01240067D01*
X00942166Y01239953D01*
X00942191Y01239827D01*
X00944814Y01233494D01*
X00944885Y01233387D01*
X00944922Y01233264D01*
X00948154Y01227219D01*
X00948235Y01227120D01*
X00948284Y01227001D01*
X00952093Y01221302D01*
X00952184Y01221211D01*
X00952244Y01221097D01*
X00956593Y01215799D01*
X00956692Y01215717D01*
X00956763Y01215610D01*
X00961610Y01210763D01*
X00961717Y01210692D01*
X00961799Y01210593D01*
X00967097Y01206244D01*
X00967211Y01206184D01*
X00967302Y01206093D01*
X00973001Y01202284D01*
X00973120Y01202235D01*
X00973219Y01202154D01*
X00979265Y01198923D01*
X00979387Y01198885D01*
X00979494Y01198814D01*
X00985827Y01196191D01*
X00985953Y01196166D01*
X00986067Y01196105D01*
X00992626Y01194115D01*
X00992754Y01194103D01*
X00992873Y01194053D01*
X00999596Y01192716D01*
X00999724D01*
X00999847Y01192679D01*
X01006669Y01192007D01*
X01007760Y01191256D01*
X01007760Y00308744D01*
X01006669Y00307993D01*
X00999847Y00307321D01*
X00999724Y00307284D01*
X00999596D01*
X00992872Y00305947D01*
X00992754Y00305897D01*
X00992626Y00305885D01*
X00986067Y00303895D01*
X00985953Y00303834D01*
X00985827Y00303809D01*
X00979494Y00301186D01*
X00979387Y00301115D01*
X00979265Y00301077D01*
X00973219Y00297846D01*
X00973120Y00297765D01*
X00973001Y00297715D01*
X00967302Y00293907D01*
X00967211Y00293816D01*
X00967097Y00293756D01*
X00961799Y00289407D01*
X00961717Y00289308D01*
X00961610Y00289237D01*
X00956763Y00284389D01*
X00956692Y00284283D01*
X00956593Y00284201D01*
X00952244Y00278902D01*
X00952184Y00278789D01*
X00952093Y00278698D01*
X00948284Y00272999D01*
X00948235Y00272880D01*
X00948154Y00272781D01*
X00944922Y00266735D01*
X00944885Y00266612D01*
X00944814Y00266506D01*
X00942191Y00260173D01*
X00942166Y00260047D01*
X00942105Y00259933D01*
X00940115Y00253374D01*
X00940103Y00253246D01*
X00940053Y00253127D01*
X00938716Y00246404D01*
Y00246276D01*
X00938679Y00246153D01*
X00938007Y00239331D01*
X00937256Y00238240D01*
X00562744D01*
X00561993Y00239331D01*
X00561321Y00246153D01*
X00561284Y00246276D01*
Y00246404D01*
X00559947Y00253127D01*
X00559897Y00253246D01*
X00559885Y00253374D01*
X00557895Y00259933D01*
X00557834Y00260047D01*
X00557809Y00260173D01*
X00555186Y00266506D01*
X00555115Y00266612D01*
X00555078Y00266735D01*
X00551846Y00272781D01*
X00551765Y00272880D01*
X00551716Y00272999D01*
X00547907Y00278698D01*
X00547816Y00278789D01*
X00547756Y00278902D01*
X00543407Y00284201D01*
X00543308Y00284283D01*
X00543237Y00284390D01*
X00538390Y00289237D01*
X00538283Y00289308D01*
X00538201Y00289407D01*
X00532902Y00293756D01*
X00532789Y00293816D01*
X00532698Y00293907D01*
X00526999Y00297715D01*
X00526880Y00297765D01*
X00526781Y00297846D01*
X00520736Y00301077D01*
X00520612Y00301115D01*
X00520506Y00301186D01*
X00514173Y00303809D01*
X00514047Y00303834D01*
X00513933Y00303895D01*
X00507374Y00305885D01*
X00507246Y00305897D01*
X00507127Y00305947D01*
X00500404Y00307284D01*
X00500276D01*
X00500153Y00307321D01*
X00493331Y00307993D01*
X00492240Y00308744D01*
Y01191256D01*
X00493331Y01192007D01*
X00500153Y01192679D01*
X00500276Y01192716D01*
X00500404D01*
X00507127Y01194053D01*
X00507246Y01194103D01*
X00507374Y01194115D01*
X00513933Y01196105D01*
X00514047Y01196166D01*
X00514173Y01196191D01*
X00520506Y01198814D01*
X00520612Y01198885D01*
X00520736Y01198923D01*
X00526781Y01202154D01*
X00526880Y01202235D01*
X00526999Y01202284D01*
X00532698Y01206093D01*
X00532789Y01206184D01*
X00532902Y01206244D01*
X00538201Y01210593D01*
X00538283Y01210692D01*
X00538390Y01210763D01*
X00543237Y01215610D01*
X00543308Y01215717D01*
X00543407Y01215799D01*
X00547756Y01221097D01*
X00547816Y01221211D01*
X00547907Y01221302D01*
X00551716Y01227001D01*
X00551765Y01227120D01*
X00551846Y01227219D01*
X00555078Y01233264D01*
X00555115Y01233387D01*
X00555186Y01233494D01*
X00557809Y01239827D01*
X00557834Y01239953D01*
X00557895Y01240067D01*
X00559885Y01246626D01*
X00559897Y01246754D01*
X00559947Y01246873D01*
X00561284Y01253596D01*
Y01253724D01*
X00561321Y01253847D01*
X00561993Y01260669D01*
X00562744Y01261760D01*
X00937256D01*
X00938007Y01260669D01*
D02*
G37*
%LPC*%
G36*
X00916270Y01210470D02*
Y01206270D01*
X00920470D01*
X00919697Y01208138D01*
X00918138Y01209697D01*
X00916270Y01210470D01*
D02*
G37*
G36*
X00913730D02*
X00911862Y01209697D01*
X00910303Y01208138D01*
X00909530Y01206270D01*
X00913730D01*
Y01210470D01*
D02*
G37*
G36*
X00901270D02*
Y01206270D01*
X00905470D01*
X00904697Y01208138D01*
X00903138Y01209697D01*
X00901270Y01210470D01*
D02*
G37*
G36*
X00898730D02*
X00896862Y01209697D01*
X00895303Y01208138D01*
X00894530Y01206270D01*
X00898730D01*
Y01210470D01*
D02*
G37*
G36*
X00886270D02*
Y01206270D01*
X00890470D01*
X00889697Y01208138D01*
X00888138Y01209697D01*
X00886270Y01210470D01*
D02*
G37*
G36*
X00883730D02*
X00881862Y01209697D01*
X00880303Y01208138D01*
X00879530Y01206270D01*
X00883730D01*
Y01210470D01*
D02*
G37*
G36*
X00871270D02*
Y01206270D01*
X00875470D01*
X00874697Y01208138D01*
X00873138Y01209697D01*
X00871270Y01210470D01*
D02*
G37*
G36*
X00868730D02*
X00866862Y01209697D01*
X00865303Y01208138D01*
X00864530Y01206270D01*
X00868730D01*
Y01210470D01*
D02*
G37*
G36*
X00856270D02*
Y01206270D01*
X00860470D01*
X00859697Y01208138D01*
X00858138Y01209697D01*
X00856270Y01210470D01*
D02*
G37*
G36*
X00853730D02*
X00851862Y01209697D01*
X00850303Y01208138D01*
X00849530Y01206270D01*
X00853730D01*
Y01210470D01*
D02*
G37*
G36*
X00666270D02*
Y01206270D01*
X00670470D01*
X00669697Y01208138D01*
X00668138Y01209697D01*
X00666270Y01210470D01*
D02*
G37*
G36*
X00663730D02*
X00661862Y01209697D01*
X00660303Y01208138D01*
X00659530Y01206270D01*
X00663730D01*
Y01210470D01*
D02*
G37*
G36*
X00651270D02*
Y01206270D01*
X00655470D01*
X00654697Y01208138D01*
X00653138Y01209697D01*
X00651270Y01210470D01*
D02*
G37*
G36*
X00648730D02*
X00646862Y01209697D01*
X00645303Y01208138D01*
X00644530Y01206270D01*
X00648730D01*
Y01210470D01*
D02*
G37*
G36*
X00636270D02*
Y01206270D01*
X00640470D01*
X00639697Y01208138D01*
X00638138Y01209697D01*
X00636270Y01210470D01*
D02*
G37*
G36*
X00633730D02*
X00631862Y01209697D01*
X00630303Y01208138D01*
X00629530Y01206270D01*
X00633730D01*
Y01210470D01*
D02*
G37*
G36*
X00621270D02*
Y01206270D01*
X00625470D01*
X00624697Y01208138D01*
X00623138Y01209697D01*
X00621270Y01210470D01*
D02*
G37*
G36*
X00618730D02*
X00616862Y01209697D01*
X00615303Y01208138D01*
X00614530Y01206270D01*
X00618730D01*
Y01210470D01*
D02*
G37*
G36*
X00606270D02*
Y01206270D01*
X00610470D01*
X00609697Y01208138D01*
X00608138Y01209697D01*
X00606270Y01210470D01*
D02*
G37*
G36*
X00603730D02*
X00601862Y01209697D01*
X00600303Y01208138D01*
X00599530Y01206270D01*
X00603730D01*
Y01210470D01*
D02*
G37*
G36*
X00920470Y01203730D02*
X00916270D01*
Y01199530D01*
X00918138Y01200303D01*
X00919697Y01201862D01*
X00920470Y01203730D01*
D02*
G37*
G36*
X00913730D02*
X00909530D01*
X00910303Y01201862D01*
X00911862Y01200303D01*
X00913730Y01199530D01*
Y01203730D01*
D02*
G37*
G36*
X00905470D02*
X00901270D01*
Y01199530D01*
X00903138Y01200303D01*
X00904697Y01201862D01*
X00905470Y01203730D01*
D02*
G37*
G36*
X00898730D02*
X00894530D01*
X00895303Y01201862D01*
X00896862Y01200303D01*
X00898730Y01199530D01*
Y01203730D01*
D02*
G37*
G36*
X00890470D02*
X00886270D01*
Y01199530D01*
X00888138Y01200303D01*
X00889697Y01201862D01*
X00890470Y01203730D01*
D02*
G37*
G36*
X00883730D02*
X00879530D01*
X00880303Y01201862D01*
X00881862Y01200303D01*
X00883730Y01199530D01*
Y01203730D01*
D02*
G37*
G36*
X00875470D02*
X00871270D01*
Y01199530D01*
X00873138Y01200303D01*
X00874697Y01201862D01*
X00875470Y01203730D01*
D02*
G37*
G36*
X00868730D02*
X00864530D01*
X00865303Y01201862D01*
X00866862Y01200303D01*
X00868730Y01199530D01*
Y01203730D01*
D02*
G37*
G36*
X00860470D02*
X00856270D01*
Y01199530D01*
X00858138Y01200303D01*
X00859697Y01201862D01*
X00860470Y01203730D01*
D02*
G37*
G36*
X00853730D02*
X00849530D01*
X00850303Y01201862D01*
X00851862Y01200303D01*
X00853730Y01199530D01*
Y01203730D01*
D02*
G37*
G36*
X00670470D02*
X00666270D01*
Y01199530D01*
X00668138Y01200303D01*
X00669697Y01201862D01*
X00670470Y01203730D01*
D02*
G37*
G36*
X00663730D02*
X00659530D01*
X00660303Y01201862D01*
X00661862Y01200303D01*
X00663730Y01199530D01*
Y01203730D01*
D02*
G37*
G36*
X00655470D02*
X00651270D01*
Y01199530D01*
X00653138Y01200303D01*
X00654697Y01201862D01*
X00655470Y01203730D01*
D02*
G37*
G36*
X00648730D02*
X00644530D01*
X00645303Y01201862D01*
X00646862Y01200303D01*
X00648730Y01199530D01*
Y01203730D01*
D02*
G37*
G36*
X00640470D02*
X00636270D01*
Y01199530D01*
X00638138Y01200303D01*
X00639697Y01201862D01*
X00640470Y01203730D01*
D02*
G37*
G36*
X00633730D02*
X00629530D01*
X00630303Y01201862D01*
X00631862Y01200303D01*
X00633730Y01199530D01*
Y01203730D01*
D02*
G37*
G36*
X00625470D02*
X00621270D01*
Y01199530D01*
X00623138Y01200303D01*
X00624697Y01201862D01*
X00625470Y01203730D01*
D02*
G37*
G36*
X00618730D02*
X00614530D01*
X00615303Y01201862D01*
X00616862Y01200303D01*
X00618730Y01199530D01*
Y01203730D01*
D02*
G37*
G36*
X00610470D02*
X00606270D01*
Y01199530D01*
X00608138Y01200303D01*
X00609697Y01201862D01*
X00610470Y01203730D01*
D02*
G37*
G36*
X00603730D02*
X00599530D01*
X00600303Y01201862D01*
X00601862Y01200303D01*
X00603730Y01199530D01*
Y01203730D01*
D02*
G37*
G36*
X00767500Y01194393D02*
X00732500D01*
X00730054Y01193906D01*
X00727980Y01192520D01*
X00726594Y01190446D01*
X00726107Y01188000D01*
Y01178000D01*
X00726594Y01175554D01*
X00727980Y01173480D01*
X00730054Y01172094D01*
X00732500Y01171607D01*
X00767500D01*
X00769946Y01172094D01*
X00772020Y01173480D01*
X00773406Y01175554D01*
X00773893Y01178000D01*
Y01188000D01*
X00773406Y01190446D01*
X00772020Y01192520D01*
X00769946Y01193906D01*
X00767500Y01194393D01*
D02*
G37*
G36*
X00803000Y01171893D02*
X00793000D01*
X00790554Y01171406D01*
X00788480Y01170020D01*
X00787094Y01167946D01*
X00786607Y01165500D01*
Y01130500D01*
X00787094Y01128054D01*
X00788480Y01125980D01*
X00790554Y01124594D01*
X00793000Y01124107D01*
X00803000D01*
X00805446Y01124594D01*
X00807520Y01125980D01*
X00808906Y01128054D01*
X00809393Y01130500D01*
Y01165500D01*
X00808906Y01167946D01*
X00807520Y01170020D01*
X00805446Y01171406D01*
X00803000Y01171893D01*
D02*
G37*
G36*
X00960270Y01121270D02*
X00927730D01*
Y01088730D01*
X00960270D01*
Y01121270D01*
D02*
G37*
G36*
X00872270D02*
X00839730D01*
Y01088730D01*
X00872270D01*
Y01121270D01*
D02*
G37*
G36*
X00660270D02*
X00627730D01*
Y01088730D01*
X00660270D01*
Y01121270D01*
D02*
G37*
G36*
X00572270D02*
X00539730D01*
Y01088730D01*
X00572270D01*
Y01121270D01*
D02*
G37*
G36*
X00767500Y01134393D02*
X00732500D01*
X00730054Y01133906D01*
X00727980Y01132520D01*
X00726594Y01130446D01*
X00726107Y01128000D01*
Y01118000D01*
X00726594Y01115554D01*
X00727980Y01113480D01*
X00730054Y01112094D01*
X00732500Y01111607D01*
X00747410D01*
Y01091500D01*
X00747607Y01090509D01*
X00748169Y01089669D01*
X00756419Y01081419D01*
X00757259Y01080857D01*
X00758250Y01080660D01*
X00792301D01*
X00793160Y01079801D01*
Y01073823D01*
X00791677Y01072340D01*
X00678699D01*
X00677669Y01073370D01*
X00676099Y01074020D01*
X00674401D01*
X00672831Y01073370D01*
X00671630Y01072169D01*
X00670980Y01070599D01*
Y01068901D01*
X00671630Y01067331D01*
X00672831Y01066130D01*
X00674401Y01065480D01*
X00676099D01*
X00677669Y01066130D01*
X00678699Y01067160D01*
X00792750D01*
X00793741Y01067357D01*
X00794581Y01067919D01*
X00797581Y01070919D01*
X00798143Y01071759D01*
X00798340Y01072750D01*
Y01079801D01*
X00799370Y01080831D01*
X00800020Y01082401D01*
Y01084099D01*
X00799370Y01085669D01*
X00798169Y01086870D01*
X00796599Y01087520D01*
X00794901D01*
X00793331Y01086870D01*
X00792301Y01085840D01*
X00759323D01*
X00752590Y01092573D01*
Y01111607D01*
X00767500D01*
X00769946Y01112094D01*
X00772020Y01113480D01*
X00773406Y01115554D01*
X00773893Y01118000D01*
Y01128000D01*
X00773406Y01130446D01*
X00772020Y01132520D01*
X00769946Y01133906D01*
X00767500Y01134393D01*
D02*
G37*
G36*
X00876519Y01046540D02*
X00876270D01*
Y01036270D01*
X00886540D01*
Y01036519D01*
X00885753Y01039454D01*
X00884234Y01042086D01*
X00882086Y01044234D01*
X00879454Y01045753D01*
X00876519Y01046540D01*
D02*
G37*
G36*
X00873730D02*
X00873481D01*
X00870546Y01045753D01*
X00867914Y01044234D01*
X00865766Y01042086D01*
X00864247Y01039454D01*
X00863460Y01036519D01*
Y01036270D01*
X00873730D01*
Y01046540D01*
D02*
G37*
G36*
X00576519D02*
X00576270D01*
Y01036270D01*
X00586540D01*
Y01036519D01*
X00585754Y01039454D01*
X00584234Y01042086D01*
X00582086Y01044234D01*
X00579454Y01045753D01*
X00576519Y01046540D01*
D02*
G37*
G36*
X00573730D02*
X00573481D01*
X00570546Y01045753D01*
X00567914Y01044234D01*
X00565766Y01042086D01*
X00564246Y01039454D01*
X00563460Y01036519D01*
Y01036270D01*
X00573730D01*
Y01046540D01*
D02*
G37*
G36*
X00926352Y01045270D02*
X00923648D01*
X00921036Y01044570D01*
X00918694Y01043218D01*
X00916782Y01041306D01*
X00915430Y01038964D01*
X00914730Y01036352D01*
Y01033648D01*
X00915430Y01031036D01*
X00916782Y01028694D01*
X00918694Y01026782D01*
X00921036Y01025430D01*
X00923648Y01024730D01*
X00926352D01*
X00928964Y01025430D01*
X00931306Y01026782D01*
X00933218Y01028694D01*
X00934570Y01031036D01*
X00935270Y01033648D01*
Y01036352D01*
X00934570Y01038964D01*
X00933218Y01041306D01*
X00931306Y01043218D01*
X00928964Y01044570D01*
X00926352Y01045270D01*
D02*
G37*
G36*
X00901352D02*
X00898648D01*
X00896036Y01044570D01*
X00893694Y01043218D01*
X00891782Y01041306D01*
X00890430Y01038964D01*
X00889730Y01036352D01*
Y01033648D01*
X00890430Y01031036D01*
X00891782Y01028694D01*
X00893694Y01026782D01*
X00896036Y01025430D01*
X00898648Y01024730D01*
X00901352D01*
X00903964Y01025430D01*
X00906306Y01026782D01*
X00908218Y01028694D01*
X00909570Y01031036D01*
X00910270Y01033648D01*
Y01036352D01*
X00909570Y01038964D01*
X00908218Y01041306D01*
X00906306Y01043218D01*
X00903964Y01044570D01*
X00901352Y01045270D01*
D02*
G37*
G36*
X00601352D02*
X00598648D01*
X00596036Y01044570D01*
X00593694Y01043218D01*
X00591782Y01041306D01*
X00590430Y01038964D01*
X00589730Y01036352D01*
Y01033648D01*
X00590430Y01031036D01*
X00591782Y01028694D01*
X00593694Y01026782D01*
X00596036Y01025430D01*
X00598648Y01024730D01*
X00601352D01*
X00603964Y01025430D01*
X00606306Y01026782D01*
X00608218Y01028694D01*
X00609570Y01031036D01*
X00610270Y01033648D01*
Y01036352D01*
X00609570Y01038964D01*
X00608218Y01041306D01*
X00606306Y01043218D01*
X00603964Y01044570D01*
X00601352Y01045270D01*
D02*
G37*
G36*
X00886540Y01033730D02*
X00876270D01*
Y01023460D01*
X00876519D01*
X00879454Y01024246D01*
X00882086Y01025766D01*
X00884234Y01027914D01*
X00885753Y01030546D01*
X00886540Y01033481D01*
Y01033730D01*
D02*
G37*
G36*
X00873730D02*
X00863460D01*
Y01033481D01*
X00864247Y01030546D01*
X00865766Y01027914D01*
X00867914Y01025766D01*
X00870546Y01024246D01*
X00873481Y01023460D01*
X00873730D01*
Y01033730D01*
D02*
G37*
G36*
X00586540D02*
X00576270D01*
Y01023460D01*
X00576519D01*
X00579454Y01024246D01*
X00582086Y01025766D01*
X00584234Y01027914D01*
X00585754Y01030546D01*
X00586540Y01033481D01*
Y01033730D01*
D02*
G37*
G36*
X00573730D02*
X00563460D01*
Y01033481D01*
X00564246Y01030546D01*
X00565766Y01027914D01*
X00567914Y01025766D01*
X00570546Y01024246D01*
X00573481Y01023460D01*
X00573730D01*
Y01033730D01*
D02*
G37*
G36*
X00811770Y01027270D02*
X00803230D01*
Y01021692D01*
X00799770D01*
Y01024020D01*
X00788230D01*
Y01020992D01*
X00784487D01*
X00784464Y01021106D01*
X00783299Y01022850D01*
X00781556Y01024014D01*
X00779500Y01024423D01*
X00775500D01*
X00773444Y01024014D01*
X00771701Y01022850D01*
X00770536Y01021106D01*
X00770127Y01019050D01*
X00770536Y01016994D01*
X00771701Y01015250D01*
X00773444Y01014086D01*
X00775500Y01013677D01*
X00779500D01*
X00781556Y01014086D01*
X00783299Y01015250D01*
X00784464Y01016994D01*
X00784487Y01017108D01*
X00788230D01*
Y01015480D01*
X00799770D01*
Y01017808D01*
X00803230D01*
Y01015730D01*
X00811770D01*
Y01027270D01*
D02*
G37*
G36*
X00826770D02*
X00818230D01*
Y01015730D01*
X00826770D01*
Y01019558D01*
X00832183D01*
X00832380Y01019081D01*
X00833581Y01017880D01*
X00835151Y01017230D01*
X00836849D01*
X00838419Y01017880D01*
X00839620Y01019081D01*
X00840270Y01020651D01*
Y01022349D01*
X00839620Y01023919D01*
X00838419Y01025120D01*
X00836849Y01025770D01*
X00835151D01*
X00833581Y01025120D01*
X00832380Y01023919D01*
X00832183Y01023442D01*
X00826770D01*
Y01027270D01*
D02*
G37*
G36*
X00746349Y01042270D02*
X00744651D01*
X00743081Y01041620D01*
X00741880Y01040419D01*
X00741230Y01038849D01*
Y01037151D01*
X00741880Y01035581D01*
X00743081Y01034380D01*
X00743558Y01034183D01*
Y01012055D01*
X00739796Y01008292D01*
X00729770D01*
Y01011620D01*
X00715230D01*
Y01007442D01*
X00711770D01*
Y01009770D01*
X00700230D01*
Y01001230D01*
X00711770D01*
Y01003558D01*
X00715230D01*
Y01001080D01*
X00729770D01*
Y01004408D01*
X00740600D01*
X00741343Y01004556D01*
X00741973Y01004977D01*
X00746873Y01009877D01*
X00747294Y01010507D01*
X00747442Y01011250D01*
Y01034183D01*
X00747919Y01034380D01*
X00749120Y01035581D01*
X00749770Y01037151D01*
Y01038849D01*
X00749120Y01040419D01*
X00747919Y01041620D01*
X00746349Y01042270D01*
D02*
G37*
G36*
X00696770Y01009770D02*
X00685230D01*
Y01007442D01*
X00681770D01*
Y01009770D01*
X00670230D01*
Y01001230D01*
X00681770D01*
Y01003558D01*
X00685230D01*
Y01001230D01*
X00696770D01*
Y01009770D01*
D02*
G37*
G36*
X00811770Y01012270D02*
X00803230D01*
Y01006692D01*
X00799770D01*
Y01009020D01*
X00788230D01*
Y01006692D01*
X00784770D01*
Y01011620D01*
X00770230D01*
Y01001080D01*
X00784770D01*
Y01002808D01*
X00788230D01*
Y01000480D01*
X00799770D01*
Y01002808D01*
X00803230D01*
Y01000730D01*
X00811770D01*
Y01012270D01*
D02*
G37*
G36*
X00784770Y00998920D02*
X00770230D01*
Y00995592D01*
X00756150D01*
X00756150Y00995592D01*
X00755407Y00995444D01*
X00754777Y00995023D01*
X00754777Y00995023D01*
X00750877Y00991123D01*
X00750455Y00990493D01*
X00750308Y00989750D01*
Y00984317D01*
X00749831Y00984120D01*
X00748630Y00982919D01*
X00747980Y00981349D01*
Y00979651D01*
X00748630Y00978081D01*
X00749831Y00976880D01*
X00751401Y00976230D01*
X00753099D01*
X00754669Y00976880D01*
X00755870Y00978081D01*
X00756520Y00979651D01*
Y00981349D01*
X00755870Y00982919D01*
X00754669Y00984120D01*
X00754192Y00984317D01*
Y00988945D01*
X00756954Y00991708D01*
X00770230D01*
Y00988380D01*
X00784770D01*
Y00989558D01*
X00788230D01*
Y00985730D01*
X00796770D01*
Y00997270D01*
X00788230D01*
Y00993442D01*
X00784770D01*
Y00998920D01*
D02*
G37*
G36*
X00729770D02*
X00715230D01*
Y00992442D01*
X00711770D01*
Y00994770D01*
X00700230D01*
Y00992442D01*
X00696770D01*
Y00994770D01*
X00685230D01*
Y00986230D01*
X00696770D01*
Y00988558D01*
X00700230D01*
Y00986230D01*
X00711770D01*
Y00988558D01*
X00715230D01*
Y00988380D01*
X00729770D01*
Y00998920D01*
D02*
G37*
G36*
X00969099Y00997770D02*
X00967401D01*
X00965831Y00997120D01*
X00964801Y00996090D01*
X00923750D01*
X00922759Y00995893D01*
X00921919Y00995331D01*
X00912169Y00985581D01*
X00911607Y00984741D01*
X00911410Y00983750D01*
Y00912573D01*
X00895927Y00897090D01*
X00879500D01*
X00878509Y00896893D01*
X00877669Y00896331D01*
X00872419Y00891081D01*
X00871857Y00890241D01*
X00871660Y00889250D01*
Y00874737D01*
X00871036Y00874570D01*
X00868694Y00873218D01*
X00866782Y00871306D01*
X00865430Y00868964D01*
X00864730Y00866352D01*
Y00863648D01*
X00865430Y00861036D01*
X00866782Y00858694D01*
X00868694Y00856782D01*
X00871036Y00855430D01*
X00873648Y00854730D01*
X00876352D01*
X00878964Y00855430D01*
X00881306Y00856782D01*
X00883218Y00858694D01*
X00884570Y00861036D01*
X00885270Y00863648D01*
Y00866352D01*
X00884570Y00868964D01*
X00883218Y00871306D01*
X00881306Y00873218D01*
X00878964Y00874570D01*
X00876840Y00875139D01*
Y00888177D01*
X00880573Y00891910D01*
X00897000D01*
X00897991Y00892107D01*
X00898831Y00892669D01*
X00915831Y00909669D01*
X00916393Y00910509D01*
X00916590Y00911500D01*
Y00982677D01*
X00924823Y00990910D01*
X00964801D01*
X00965831Y00989880D01*
X00967401Y00989230D01*
X00969099D01*
X00970669Y00989880D01*
X00971870Y00991081D01*
X00972520Y00992651D01*
Y00994349D01*
X00971870Y00995919D01*
X00970669Y00997120D01*
X00969099Y00997770D01*
D02*
G37*
G36*
X00826770Y01012270D02*
X00818230D01*
Y01000730D01*
X00820558D01*
Y00997270D01*
X00815230D01*
Y00988730D01*
X00826770D01*
Y00997270D01*
X00824442D01*
Y01000730D01*
X00826770D01*
Y01012270D01*
D02*
G37*
G36*
X00839132Y00982502D02*
X00837433D01*
X00835864Y00981852D01*
X00834718Y00980706D01*
X00826770D01*
Y00982270D01*
X00815230D01*
Y00973730D01*
X00826770D01*
Y00975526D01*
X00834950D01*
X00835864Y00974612D01*
X00837433Y00973962D01*
X00839132D01*
X00840702Y00974612D01*
X00841903Y00975814D01*
X00842553Y00977383D01*
Y00979082D01*
X00841903Y00980651D01*
X00840702Y00981852D01*
X00839132Y00982502D01*
D02*
G37*
G36*
X00729770Y00986220D02*
X00715230D01*
Y00980442D01*
X00711770D01*
Y00982770D01*
X00700230D01*
Y00974230D01*
X00711770D01*
Y00976558D01*
X00715230D01*
Y00975680D01*
X00720558D01*
Y00970817D01*
X00720081Y00970620D01*
X00718880Y00969419D01*
X00718230Y00967849D01*
Y00966151D01*
X00718880Y00964581D01*
X00720081Y00963380D01*
X00721651Y00962730D01*
X00723349D01*
X00724919Y00963380D01*
X00726120Y00964581D01*
X00726770Y00966151D01*
Y00967849D01*
X00726120Y00969419D01*
X00724919Y00970620D01*
X00724442Y00970817D01*
Y00975680D01*
X00729770D01*
Y00986220D01*
D02*
G37*
G36*
X00784770D02*
X00770230D01*
Y00975680D01*
X00774910D01*
Y00967579D01*
X00773904Y00966573D01*
X00773254Y00965004D01*
Y00963305D01*
X00773904Y00961736D01*
X00775105Y00960534D01*
X00776674Y00959884D01*
X00778373D01*
X00779942Y00960534D01*
X00781143Y00961736D01*
X00781794Y00963305D01*
Y00965004D01*
X00781143Y00966573D01*
X00780090Y00967627D01*
Y00975680D01*
X00784770D01*
Y00986220D01*
D02*
G37*
G36*
X00811770Y00997270D02*
X00803230D01*
Y00985730D01*
X00804910D01*
Y00961073D01*
X00798177Y00954340D01*
X00710573D01*
X00708590Y00956323D01*
Y00959230D01*
X00711770D01*
Y00967770D01*
X00700230D01*
Y00965840D01*
X00676949D01*
X00676169Y00966620D01*
X00674599Y00967270D01*
X00672901D01*
X00671331Y00966620D01*
X00670130Y00965419D01*
X00669480Y00963849D01*
Y00962151D01*
X00670130Y00960581D01*
X00671160Y00959551D01*
Y00905160D01*
X00671357Y00904169D01*
X00671919Y00903329D01*
X00708410Y00866837D01*
Y00395500D01*
X00708607Y00394509D01*
X00709169Y00393669D01*
X00720419Y00382419D01*
X00721259Y00381857D01*
X00722250Y00381660D01*
X00768551D01*
X00769581Y00380630D01*
X00771151Y00379980D01*
X00772849D01*
X00774419Y00380630D01*
X00775620Y00381831D01*
X00776270Y00383401D01*
Y00385099D01*
X00775620Y00386669D01*
X00774419Y00387870D01*
X00772849Y00388520D01*
X00771151D01*
X00769581Y00387870D01*
X00768551Y00386840D01*
X00723323D01*
X00713590Y00396573D01*
Y00867910D01*
X00713393Y00868901D01*
X00712831Y00869741D01*
X00676340Y00906233D01*
Y00959551D01*
X00677370Y00960581D01*
X00677403Y00960660D01*
X00700230D01*
Y00959230D01*
X00703410D01*
Y00955250D01*
X00703607Y00954259D01*
X00704169Y00953419D01*
X00707669Y00949919D01*
X00708509Y00949357D01*
X00709500Y00949160D01*
X00799250D01*
X00800241Y00949357D01*
X00801081Y00949919D01*
X00809331Y00958169D01*
X00809893Y00959009D01*
X00810090Y00960000D01*
Y00985730D01*
X00811770D01*
Y00997270D01*
D02*
G37*
G36*
X00960270Y00951270D02*
X00927730D01*
Y00918730D01*
X00960270D01*
Y00951270D01*
D02*
G37*
G36*
X00872270D02*
X00839730D01*
Y00918730D01*
X00872270D01*
Y00951270D01*
D02*
G37*
G36*
X00660270D02*
X00627730D01*
Y00918730D01*
X00660270D01*
Y00951270D01*
D02*
G37*
G36*
X00572270D02*
X00539730D01*
Y00918730D01*
X00572270D01*
Y00951270D01*
D02*
G37*
G36*
X00730849Y01057270D02*
X00729151D01*
X00727581Y01056620D01*
X00726551Y01055590D01*
X00560750D01*
X00559759Y01055393D01*
X00558919Y01054831D01*
X00552669Y01048581D01*
X00552107Y01047741D01*
X00551910Y01046750D01*
Y00977699D01*
X00550880Y00976669D01*
X00550230Y00975099D01*
Y00973401D01*
X00550880Y00971831D01*
X00552081Y00970630D01*
X00553651Y00969980D01*
X00555349D01*
X00556919Y00970630D01*
X00558120Y00971831D01*
X00558770Y00973401D01*
Y00975099D01*
X00558120Y00976669D01*
X00557090Y00977699D01*
Y01045677D01*
X00561823Y01050410D01*
X00642962D01*
X00643075Y01050220D01*
X00643352Y01049140D01*
X00642380Y01048169D01*
X00641730Y01046599D01*
Y01044901D01*
X00642380Y01043331D01*
X00642910Y01042801D01*
Y01025250D01*
X00643107Y01024259D01*
X00643669Y01023419D01*
X00648419Y01018669D01*
X00649259Y01018107D01*
X00650250Y01017910D01*
X00670230D01*
Y01016230D01*
X00681770D01*
Y01017910D01*
X00688230D01*
Y01013230D01*
X00696770D01*
Y01024770D01*
X00688230D01*
Y01023090D01*
X00681770D01*
Y01024770D01*
X00670230D01*
Y01023090D01*
X00651323D01*
X00648090Y01026323D01*
Y01041994D01*
X00648419Y01042130D01*
X00649620Y01043331D01*
X00650270Y01044901D01*
Y01046599D01*
X00649620Y01048169D01*
X00648648Y01049140D01*
X00648925Y01050220D01*
X00649038Y01050410D01*
X00726551D01*
X00727410Y01049551D01*
Y01047823D01*
X00720669Y01041081D01*
X00720107Y01040241D01*
X00719910Y01039250D01*
Y01024320D01*
X00715230D01*
Y01021590D01*
X00711770D01*
Y01024770D01*
X00703230D01*
Y01013230D01*
X00711770D01*
Y01016410D01*
X00715230D01*
Y01013780D01*
X00729770D01*
Y01024320D01*
X00725090D01*
Y01038177D01*
X00731831Y01044919D01*
X00732393Y01045759D01*
X00732590Y01046750D01*
Y01049551D01*
X00733449Y01050410D01*
X00828177D01*
X00893910Y00984677D01*
Y00924823D01*
X00875677Y00906590D01*
X00827323D01*
X00796141Y00937771D01*
X00795301Y00938332D01*
X00794310Y00938530D01*
X00724660D01*
X00723630Y00939560D01*
X00722060Y00940210D01*
X00720362D01*
X00718792Y00939560D01*
X00717591Y00938359D01*
X00716941Y00936789D01*
Y00935090D01*
X00717591Y00933521D01*
X00718792Y00932320D01*
X00720362Y00931670D01*
X00722060D01*
X00723630Y00932320D01*
X00724660Y00933350D01*
X00793238D01*
X00824419Y00902169D01*
X00825259Y00901607D01*
X00826250Y00901410D01*
X00876750D01*
X00877741Y00901607D01*
X00878581Y00902169D01*
X00898331Y00921919D01*
X00898893Y00922759D01*
X00899090Y00923750D01*
Y00985750D01*
X00898893Y00986741D01*
X00898331Y00987581D01*
X00831081Y01054831D01*
X00830241Y01055393D01*
X00829250Y01055590D01*
X00733449D01*
X00732419Y01056620D01*
X00730849Y01057270D01*
D02*
G37*
G36*
X00751170Y00921590D02*
X00748830D01*
X00746569Y00920984D01*
X00744541Y00919814D01*
X00742886Y00918159D01*
X00741716Y00916131D01*
X00741110Y00913870D01*
Y00911530D01*
X00741716Y00909269D01*
X00742886Y00907241D01*
X00744541Y00905586D01*
X00746569Y00904416D01*
X00748830Y00903810D01*
X00751170D01*
X00753431Y00904416D01*
X00755459Y00905586D01*
X00757114Y00907241D01*
X00758284Y00909269D01*
X00758890Y00911530D01*
Y00913870D01*
X00758284Y00916131D01*
X00757114Y00918159D01*
X00755459Y00919814D01*
X00753431Y00920984D01*
X00751170Y00921590D01*
D02*
G37*
G36*
Y00896190D02*
X00748830D01*
X00746569Y00895584D01*
X00744541Y00894414D01*
X00742886Y00892759D01*
X00741716Y00890731D01*
X00741110Y00888470D01*
Y00886130D01*
X00741716Y00883869D01*
X00742886Y00881841D01*
X00744541Y00880186D01*
X00746569Y00879016D01*
X00748830Y00878410D01*
X00751170D01*
X00753431Y00879016D01*
X00755459Y00880186D01*
X00757114Y00881841D01*
X00758284Y00883869D01*
X00758890Y00886130D01*
Y00888470D01*
X00758284Y00890731D01*
X00757114Y00892759D01*
X00755459Y00894414D01*
X00753431Y00895584D01*
X00751170Y00896190D01*
D02*
G37*
G36*
X00576519Y00876540D02*
X00576270D01*
Y00866270D01*
X00586540D01*
Y00866519D01*
X00585754Y00869454D01*
X00584234Y00872086D01*
X00582086Y00874234D01*
X00579454Y00875753D01*
X00576519Y00876540D01*
D02*
G37*
G36*
X00573730D02*
X00573481D01*
X00570546Y00875753D01*
X00567914Y00874234D01*
X00565766Y00872086D01*
X00564246Y00869454D01*
X00563460Y00866519D01*
Y00866270D01*
X00573730D01*
Y00876540D01*
D02*
G37*
G36*
X00926352Y00875270D02*
X00923648D01*
X00921036Y00874570D01*
X00918694Y00873218D01*
X00916782Y00871306D01*
X00915430Y00868964D01*
X00914730Y00866352D01*
Y00863648D01*
X00915430Y00861036D01*
X00916782Y00858694D01*
X00918694Y00856782D01*
X00921036Y00855430D01*
X00923648Y00854730D01*
X00926352D01*
X00928964Y00855430D01*
X00931306Y00856782D01*
X00933218Y00858694D01*
X00934570Y00861036D01*
X00935270Y00863648D01*
Y00866352D01*
X00934570Y00868964D01*
X00933218Y00871306D01*
X00931306Y00873218D01*
X00928964Y00874570D01*
X00926352Y00875270D01*
D02*
G37*
G36*
X00915250Y01222442D02*
X00588750D01*
X00588007Y01222294D01*
X00587377Y01221873D01*
X00518377Y01152873D01*
X00517956Y01152243D01*
X00517808Y01151500D01*
Y00821554D01*
X00504877Y00808623D01*
X00504455Y00807993D01*
X00504308Y00807250D01*
Y00557750D01*
X00504455Y00557007D01*
X00504877Y00556377D01*
X00522808Y00538446D01*
Y00464500D01*
X00522956Y00463757D01*
X00523377Y00463127D01*
X00537877Y00448627D01*
X00538507Y00448205D01*
X00539250Y00448058D01*
X00564249D01*
X00564951Y00444525D01*
X00566366Y00441109D01*
X00568420Y00438035D01*
X00571035Y00435420D01*
X00574109Y00433366D01*
X00577525Y00431951D01*
X00581151Y00431230D01*
X00584849D01*
X00588475Y00431951D01*
X00591891Y00433366D01*
X00594965Y00435420D01*
X00597580Y00438035D01*
X00599634Y00441109D01*
X00601049Y00444525D01*
X00601770Y00448151D01*
Y00451849D01*
X00601049Y00455475D01*
X00599634Y00458891D01*
X00597580Y00461965D01*
X00594965Y00464580D01*
X00591891Y00466634D01*
X00588475Y00468049D01*
X00584849Y00468770D01*
X00581151D01*
X00577525Y00468049D01*
X00574109Y00466634D01*
X00571035Y00464580D01*
X00568420Y00461965D01*
X00566366Y00458891D01*
X00564951Y00455475D01*
X00564249Y00451942D01*
X00540055D01*
X00526692Y00465305D01*
Y00539250D01*
X00526544Y00539993D01*
X00526123Y00540623D01*
X00508192Y00558555D01*
Y00584286D01*
X00509462Y00584412D01*
X00509478Y00584334D01*
X00510421Y00582921D01*
X00511834Y00581978D01*
X00513500Y00581646D01*
X00552500D01*
X00554166Y00581978D01*
X00555578Y00582921D01*
X00556522Y00584334D01*
X00556854Y00586000D01*
Y00592000D01*
X00556522Y00593666D01*
X00555578Y00595079D01*
X00554166Y00596022D01*
X00552500Y00596354D01*
X00513500D01*
X00511834Y00596022D01*
X00510421Y00595079D01*
X00509478Y00593666D01*
X00509462Y00593588D01*
X00508192Y00593713D01*
Y00746286D01*
X00509462Y00746412D01*
X00509478Y00746334D01*
X00510421Y00744921D01*
X00511834Y00743978D01*
X00513500Y00743646D01*
X00530410D01*
Y00711250D01*
X00530607Y00710259D01*
X00531169Y00709419D01*
X00587910Y00652677D01*
Y00616949D01*
X00586880Y00615919D01*
X00586230Y00614349D01*
Y00612651D01*
X00586880Y00611081D01*
X00588081Y00609880D01*
X00589651Y00609230D01*
X00591349D01*
X00592919Y00609880D01*
X00594120Y00611081D01*
X00594770Y00612651D01*
Y00614349D01*
X00594120Y00615919D01*
X00593090Y00616949D01*
Y00653750D01*
X00592893Y00654741D01*
X00592331Y00655581D01*
X00535590Y00712323D01*
Y00743646D01*
X00552500D01*
X00554166Y00743978D01*
X00555578Y00744921D01*
X00556522Y00746334D01*
X00556854Y00748000D01*
Y00748410D01*
X00572146D01*
Y00748000D01*
X00572478Y00746334D01*
X00573422Y00744921D01*
X00574834Y00743978D01*
X00576500Y00743646D01*
X00593410D01*
Y00705750D01*
X00593607Y00704759D01*
X00594169Y00703919D01*
X00627410Y00670677D01*
Y00549949D01*
X00626380Y00548919D01*
X00625730Y00547349D01*
Y00545651D01*
X00626380Y00544081D01*
X00627581Y00542880D01*
X00629151Y00542230D01*
X00630849D01*
X00632419Y00542880D01*
X00633620Y00544081D01*
X00634270Y00545651D01*
Y00547349D01*
X00633620Y00548919D01*
X00632590Y00549949D01*
Y00671750D01*
X00632393Y00672741D01*
X00631831Y00673581D01*
X00598590Y00706823D01*
Y00743646D01*
X00615500D01*
X00617166Y00743978D01*
X00618578Y00744921D01*
X00619522Y00746334D01*
X00619854Y00748000D01*
Y00754000D01*
X00619522Y00755666D01*
X00618578Y00757078D01*
X00617166Y00758022D01*
X00615500Y00758354D01*
X00600340D01*
Y00778512D01*
X00600143Y00779503D01*
X00599581Y00780343D01*
X00554340Y00825585D01*
Y00879427D01*
X00562073Y00887160D01*
X00608551D01*
X00609581Y00886130D01*
X00611151Y00885480D01*
X00612849D01*
X00614419Y00886130D01*
X00615620Y00887331D01*
X00616270Y00888901D01*
Y00890599D01*
X00615620Y00892169D01*
X00614419Y00893370D01*
X00612849Y00894020D01*
X00611151D01*
X00609581Y00893370D01*
X00608551Y00892340D01*
X00561000D01*
X00560009Y00892143D01*
X00559169Y00891581D01*
X00549919Y00882331D01*
X00549357Y00881491D01*
X00549160Y00880500D01*
Y00824512D01*
X00549357Y00823521D01*
X00549919Y00822681D01*
X00595160Y00777439D01*
Y00758354D01*
X00576500D01*
X00574834Y00758022D01*
X00573422Y00757078D01*
X00572478Y00755666D01*
X00572146Y00754000D01*
Y00753590D01*
X00556854D01*
Y00754000D01*
X00556522Y00755666D01*
X00555578Y00757078D01*
X00554166Y00758022D01*
X00552500Y00758354D01*
X00513500D01*
X00511834Y00758022D01*
X00510421Y00757078D01*
X00509478Y00755666D01*
X00509462Y00755588D01*
X00508192Y00755714D01*
Y00806445D01*
X00521123Y00819377D01*
X00521544Y00820007D01*
X00521692Y00820750D01*
Y01150695D01*
X00589554Y01218558D01*
X00914445D01*
X00979558Y01153446D01*
Y00905805D01*
X00965195Y00891442D01*
X00905750D01*
X00905007Y00891294D01*
X00904377Y00890873D01*
X00898627Y00885123D01*
X00898205Y00884493D01*
X00898058Y00883750D01*
Y00875112D01*
X00896036Y00874570D01*
X00893694Y00873218D01*
X00891782Y00871306D01*
X00890430Y00868964D01*
X00889730Y00866352D01*
Y00863648D01*
X00890430Y00861036D01*
X00891782Y00858694D01*
X00893694Y00856782D01*
X00896036Y00855430D01*
X00898648Y00854730D01*
X00901352D01*
X00903964Y00855430D01*
X00906306Y00856782D01*
X00908218Y00858694D01*
X00909570Y00861036D01*
X00910270Y00863648D01*
Y00866352D01*
X00909570Y00868964D01*
X00908218Y00871306D01*
X00906306Y00873218D01*
X00903964Y00874570D01*
X00901942Y00875112D01*
Y00882945D01*
X00906554Y00887558D01*
X00966000D01*
X00966743Y00887706D01*
X00967373Y00888127D01*
X00982873Y00903627D01*
X00983295Y00904257D01*
X00983442Y00905000D01*
Y01154250D01*
X00983442Y01154250D01*
X00983295Y01154993D01*
X00982873Y01155623D01*
X00982873Y01155623D01*
X00916623Y01221873D01*
X00915993Y01222294D01*
X00915250Y01222442D01*
D02*
G37*
G36*
X00601352Y00875270D02*
X00598648D01*
X00596036Y00874570D01*
X00593694Y00873218D01*
X00591782Y00871306D01*
X00590430Y00868964D01*
X00589730Y00866352D01*
Y00863648D01*
X00590430Y00861036D01*
X00591782Y00858694D01*
X00593694Y00856782D01*
X00596036Y00855430D01*
X00598648Y00854730D01*
X00601352D01*
X00603964Y00855430D01*
X00606306Y00856782D01*
X00608218Y00858694D01*
X00609570Y00861036D01*
X00610270Y00863648D01*
Y00866352D01*
X00609570Y00868964D01*
X00608218Y00871306D01*
X00606306Y00873218D01*
X00603964Y00874570D01*
X00601352Y00875270D01*
D02*
G37*
G36*
X00586540Y00863730D02*
X00576270D01*
Y00853460D01*
X00576519D01*
X00579454Y00854246D01*
X00582086Y00855766D01*
X00584234Y00857914D01*
X00585754Y00860546D01*
X00586540Y00863481D01*
Y00863730D01*
D02*
G37*
G36*
X00573730D02*
X00563460D01*
Y00863481D01*
X00564246Y00860546D01*
X00565766Y00857914D01*
X00567914Y00855766D01*
X00570546Y00854246D01*
X00573481Y00853460D01*
X00573730D01*
Y00863730D01*
D02*
G37*
G36*
X00671270Y00805470D02*
Y00801270D01*
X00675470D01*
X00674697Y00803138D01*
X00673138Y00804697D01*
X00671270Y00805470D01*
D02*
G37*
G36*
X00668730D02*
X00666862Y00804697D01*
X00665303Y00803138D01*
X00664530Y00801270D01*
X00668730D01*
Y00805470D01*
D02*
G37*
G36*
X00656270D02*
Y00801270D01*
X00660470D01*
X00659697Y00803138D01*
X00658138Y00804697D01*
X00656270Y00805470D01*
D02*
G37*
G36*
X00653730D02*
X00651862Y00804697D01*
X00650303Y00803138D01*
X00649530Y00801270D01*
X00653730D01*
Y00805470D01*
D02*
G37*
G36*
X00641270D02*
Y00801270D01*
X00645470D01*
X00644697Y00803138D01*
X00643138Y00804697D01*
X00641270Y00805470D01*
D02*
G37*
G36*
X00638730D02*
X00636862Y00804697D01*
X00635303Y00803138D01*
X00634530Y00801270D01*
X00638730D01*
Y00805470D01*
D02*
G37*
G36*
X00626270D02*
Y00801270D01*
X00630470D01*
X00629697Y00803138D01*
X00628138Y00804697D01*
X00626270Y00805470D01*
D02*
G37*
G36*
X00623730D02*
X00621862Y00804697D01*
X00620303Y00803138D01*
X00619530Y00801270D01*
X00623730D01*
Y00805470D01*
D02*
G37*
G36*
X00611270D02*
Y00801270D01*
X00615470D01*
X00614697Y00803138D01*
X00613138Y00804697D01*
X00611270Y00805470D01*
D02*
G37*
G36*
X00608730D02*
X00606862Y00804697D01*
X00605303Y00803138D01*
X00604530Y00801270D01*
X00608730D01*
Y00805470D01*
D02*
G37*
G36*
X00751170Y00813090D02*
X00748830D01*
X00746569Y00812484D01*
X00744541Y00811314D01*
X00742886Y00809659D01*
X00741716Y00807631D01*
X00741110Y00805370D01*
Y00803030D01*
X00741716Y00800769D01*
X00742886Y00798741D01*
X00744541Y00797086D01*
X00746569Y00795916D01*
X00748830Y00795310D01*
X00751170D01*
X00753431Y00795916D01*
X00755459Y00797086D01*
X00757114Y00798741D01*
X00758284Y00800769D01*
X00758890Y00803030D01*
Y00805370D01*
X00758284Y00807631D01*
X00757114Y00809659D01*
X00755459Y00811314D01*
X00753431Y00812484D01*
X00751170Y00813090D01*
D02*
G37*
G36*
X00675470Y00798730D02*
X00671270D01*
Y00794530D01*
X00673138Y00795303D01*
X00674697Y00796862D01*
X00675470Y00798730D01*
D02*
G37*
G36*
X00668730D02*
X00664530D01*
X00665303Y00796862D01*
X00666862Y00795303D01*
X00668730Y00794530D01*
Y00798730D01*
D02*
G37*
G36*
X00660470D02*
X00656270D01*
Y00794530D01*
X00658138Y00795303D01*
X00659697Y00796862D01*
X00660470Y00798730D01*
D02*
G37*
G36*
X00653730D02*
X00649530D01*
X00650303Y00796862D01*
X00651862Y00795303D01*
X00653730Y00794530D01*
Y00798730D01*
D02*
G37*
G36*
X00645470D02*
X00641270D01*
Y00794530D01*
X00643138Y00795303D01*
X00644697Y00796862D01*
X00645470Y00798730D01*
D02*
G37*
G36*
X00638730D02*
X00634530D01*
X00635303Y00796862D01*
X00636862Y00795303D01*
X00638730Y00794530D01*
Y00798730D01*
D02*
G37*
G36*
X00630470D02*
X00626270D01*
Y00794530D01*
X00628138Y00795303D01*
X00629697Y00796862D01*
X00630470Y00798730D01*
D02*
G37*
G36*
X00623730D02*
X00619530D01*
X00620303Y00796862D01*
X00621862Y00795303D01*
X00623730Y00794530D01*
Y00798730D01*
D02*
G37*
G36*
X00615470D02*
X00611270D01*
Y00794530D01*
X00613138Y00795303D01*
X00614697Y00796862D01*
X00615470Y00798730D01*
D02*
G37*
G36*
X00608730D02*
X00604530D01*
X00605303Y00796862D01*
X00606862Y00795303D01*
X00608730Y00794530D01*
Y00798730D01*
D02*
G37*
G36*
X00763099Y00868020D02*
X00761401D01*
X00759831Y00867370D01*
X00758630Y00866169D01*
X00757980Y00864599D01*
Y00862901D01*
X00758630Y00861331D01*
X00759831Y00860130D01*
X00761401Y00859480D01*
X00763099D01*
X00764669Y00860130D01*
X00765699Y00861160D01*
X00836005D01*
X00844410Y00852755D01*
Y00790500D01*
X00844607Y00789509D01*
X00845169Y00788669D01*
X00853169Y00780669D01*
X00854009Y00780107D01*
X00855000Y00779910D01*
X00969051D01*
X00970081Y00778880D01*
X00971651Y00778230D01*
X00973349D01*
X00974919Y00778880D01*
X00976120Y00780081D01*
X00976770Y00781651D01*
Y00783349D01*
X00976120Y00784919D01*
X00974919Y00786120D01*
X00973349Y00786770D01*
X00971651D01*
X00970081Y00786120D01*
X00969051Y00785090D01*
X00856073D01*
X00849590Y00791573D01*
Y00853828D01*
X00849393Y00854818D01*
X00848831Y00855659D01*
X00838909Y00865581D01*
X00838069Y00866143D01*
X00837077Y00866340D01*
X00765699D01*
X00764669Y00867370D01*
X00763099Y00868020D01*
D02*
G37*
G36*
X00751170Y00787690D02*
X00748830D01*
X00746569Y00787084D01*
X00744541Y00785914D01*
X00742886Y00784259D01*
X00741716Y00782231D01*
X00741110Y00779970D01*
Y00777630D01*
X00741716Y00775369D01*
X00742886Y00773341D01*
X00744541Y00771686D01*
X00746569Y00770516D01*
X00748830Y00769910D01*
X00751170D01*
X00753431Y00770516D01*
X00755459Y00771686D01*
X00757114Y00773341D01*
X00758284Y00775369D01*
X00758890Y00777630D01*
Y00779970D01*
X00758284Y00782231D01*
X00757114Y00784259D01*
X00755459Y00785914D01*
X00753431Y00787084D01*
X00751170Y00787690D01*
D02*
G37*
G36*
X00986500Y00758354D02*
X00947500D01*
X00945834Y00758022D01*
X00944421Y00757078D01*
X00943478Y00755666D01*
X00943146Y00754000D01*
Y00748000D01*
X00943478Y00746334D01*
X00944421Y00744921D01*
X00945834Y00743978D01*
X00947500Y00743646D01*
X00986500D01*
X00988166Y00743978D01*
X00989578Y00744921D01*
X00990522Y00746334D01*
X00990854Y00748000D01*
Y00754000D01*
X00990522Y00755666D01*
X00989578Y00757078D01*
X00988166Y00758022D01*
X00986500Y00758354D01*
D02*
G37*
G36*
X00923500D02*
X00884500D01*
X00882834Y00758022D01*
X00881422Y00757078D01*
X00880478Y00755666D01*
X00880146Y00754000D01*
Y00748000D01*
X00880478Y00746334D01*
X00881422Y00744921D01*
X00882834Y00743978D01*
X00884500Y00743646D01*
X00923500D01*
X00925166Y00743978D01*
X00926579Y00744921D01*
X00927522Y00746334D01*
X00927854Y00748000D01*
Y00754000D01*
X00927522Y00755666D01*
X00926579Y00757078D01*
X00925166Y00758022D01*
X00923500Y00758354D01*
D02*
G37*
G36*
X00818849Y00817520D02*
X00817151D01*
X00815581Y00816870D01*
X00814380Y00815669D01*
X00813730Y00814099D01*
Y00812401D01*
X00814380Y00810831D01*
X00815581Y00809630D01*
X00816058Y00809433D01*
Y00781071D01*
X00813192Y00778205D01*
X00812770Y00777574D01*
X00812623Y00776831D01*
Y00666435D01*
X00812770Y00665692D01*
X00813192Y00665062D01*
X00819877Y00658377D01*
X00820507Y00657955D01*
X00821250Y00657808D01*
X00840183D01*
X00840380Y00657331D01*
X00841581Y00656130D01*
X00843151Y00655480D01*
X00844849D01*
X00846419Y00656130D01*
X00847620Y00657331D01*
X00848270Y00658901D01*
Y00660599D01*
X00847620Y00662169D01*
X00846419Y00663370D01*
X00844849Y00664020D01*
X00843151D01*
X00841581Y00663370D01*
X00840380Y00662169D01*
X00840183Y00661692D01*
X00822055D01*
X00816507Y00667240D01*
Y00745500D01*
X00817777Y00745886D01*
X00818421Y00744921D01*
X00819834Y00743978D01*
X00821500Y00743646D01*
X00860500D01*
X00862166Y00743978D01*
X00863578Y00744921D01*
X00864522Y00746334D01*
X00864854Y00748000D01*
Y00754000D01*
X00864522Y00755666D01*
X00863578Y00757078D01*
X00862166Y00758022D01*
X00860500Y00758354D01*
X00821500D01*
X00819834Y00758022D01*
X00818421Y00757078D01*
X00817777Y00756114D01*
X00816507Y00756500D01*
Y00776027D01*
X00819373Y00778893D01*
X00819373Y00778893D01*
X00819794Y00779523D01*
X00819942Y00780266D01*
X00819942Y00780266D01*
Y00809433D01*
X00820419Y00809630D01*
X00821620Y00810831D01*
X00822270Y00812401D01*
Y00814099D01*
X00821620Y00815669D01*
X00820419Y00816870D01*
X00818849Y00817520D01*
D02*
G37*
G36*
X00678500Y00758354D02*
X00639500D01*
X00637834Y00758022D01*
X00636422Y00757078D01*
X00635478Y00755666D01*
X00635146Y00754000D01*
Y00748000D01*
X00635478Y00746334D01*
X00636422Y00744921D01*
X00637834Y00743978D01*
X00639500Y00743646D01*
X00678500D01*
X00680166Y00743978D01*
X00681579Y00744921D01*
X00682522Y00746334D01*
X00682854Y00748000D01*
Y00754000D01*
X00682522Y00755666D01*
X00681579Y00757078D01*
X00680166Y00758022D01*
X00678500Y00758354D01*
D02*
G37*
G36*
X00741270Y00740470D02*
Y00736270D01*
X00745470D01*
X00744697Y00738138D01*
X00743138Y00739697D01*
X00741270Y00740470D01*
D02*
G37*
G36*
X00738730D02*
X00736862Y00739697D01*
X00735303Y00738138D01*
X00734530Y00736270D01*
X00738730D01*
Y00740470D01*
D02*
G37*
G36*
X00745470Y00733730D02*
X00741270D01*
Y00729530D01*
X00743138Y00730303D01*
X00744697Y00731862D01*
X00745470Y00733730D01*
D02*
G37*
G36*
X00738730D02*
X00734530D01*
X00735303Y00731862D01*
X00736862Y00730303D01*
X00738730Y00729530D01*
Y00733730D01*
D02*
G37*
G36*
X00741270Y00725470D02*
Y00721270D01*
X00745470D01*
X00744697Y00723138D01*
X00743138Y00724697D01*
X00741270Y00725470D01*
D02*
G37*
G36*
X00738730D02*
X00736862Y00724697D01*
X00735303Y00723138D01*
X00734530Y00721270D01*
X00738730D01*
Y00725470D01*
D02*
G37*
G36*
X00745470Y00718730D02*
X00741270D01*
Y00714530D01*
X00743138Y00715303D01*
X00744697Y00716862D01*
X00745470Y00718730D01*
D02*
G37*
G36*
X00738730D02*
X00734530D01*
X00735303Y00716862D01*
X00736862Y00715303D01*
X00738730Y00714530D01*
Y00718730D01*
D02*
G37*
G36*
X00741270Y00710470D02*
Y00706270D01*
X00745470D01*
X00744697Y00708138D01*
X00743138Y00709697D01*
X00741270Y00710470D01*
D02*
G37*
G36*
X00738730D02*
X00736862Y00709697D01*
X00735303Y00708138D01*
X00734530Y00706270D01*
X00738730D01*
Y00710470D01*
D02*
G37*
G36*
X00745470Y00703730D02*
X00741270D01*
Y00699530D01*
X00743138Y00700303D01*
X00744697Y00701862D01*
X00745470Y00703730D01*
D02*
G37*
G36*
X00738730D02*
X00734530D01*
X00735303Y00701862D01*
X00736862Y00700303D01*
X00738730Y00699530D01*
Y00703730D01*
D02*
G37*
G36*
X00741270Y00695470D02*
Y00691270D01*
X00745470D01*
X00744697Y00693138D01*
X00743138Y00694697D01*
X00741270Y00695470D01*
D02*
G37*
G36*
X00738730D02*
X00736862Y00694697D01*
X00735303Y00693138D01*
X00734530Y00691270D01*
X00738730D01*
Y00695470D01*
D02*
G37*
G36*
X00745470Y00688730D02*
X00741270D01*
Y00684530D01*
X00743138Y00685303D01*
X00744697Y00686862D01*
X00745470Y00688730D01*
D02*
G37*
G36*
X00738730D02*
X00734530D01*
X00735303Y00686862D01*
X00736862Y00685303D01*
X00738730Y00684530D01*
Y00688730D01*
D02*
G37*
G36*
X00741270Y00680470D02*
Y00676270D01*
X00745470D01*
X00744697Y00678138D01*
X00743138Y00679697D01*
X00741270Y00680470D01*
D02*
G37*
G36*
X00738730D02*
X00736862Y00679697D01*
X00735303Y00678138D01*
X00734530Y00676270D01*
X00738730D01*
Y00680470D01*
D02*
G37*
G36*
X00745470Y00673730D02*
X00741270D01*
Y00669530D01*
X00743138Y00670303D01*
X00744697Y00671862D01*
X00745470Y00673730D01*
D02*
G37*
G36*
X00738730D02*
X00734530D01*
X00735303Y00671862D01*
X00736862Y00670303D01*
X00738730Y00669530D01*
Y00673730D01*
D02*
G37*
G36*
X00986500Y00596354D02*
X00947500D01*
X00945834Y00596022D01*
X00944421Y00595079D01*
X00943478Y00593666D01*
X00943146Y00592000D01*
Y00591590D01*
X00927854D01*
Y00592000D01*
X00927522Y00593666D01*
X00926579Y00595079D01*
X00925166Y00596022D01*
X00923500Y00596354D01*
X00884500D01*
X00882834Y00596022D01*
X00881422Y00595079D01*
X00880478Y00593666D01*
X00880146Y00592000D01*
Y00586000D01*
X00880478Y00584334D01*
X00881422Y00582921D01*
X00882834Y00581978D01*
X00884500Y00581646D01*
X00923500D01*
X00925166Y00581978D01*
X00926579Y00582921D01*
X00927522Y00584334D01*
X00927854Y00586000D01*
Y00586410D01*
X00943146D01*
Y00586000D01*
X00943478Y00584334D01*
X00944421Y00582921D01*
X00945834Y00581978D01*
X00947500Y00581646D01*
X00964410D01*
Y00412608D01*
X00964607Y00411617D01*
X00965169Y00410776D01*
X00980909Y00395037D01*
Y00387904D01*
X00979878Y00386874D01*
X00979228Y00385304D01*
Y00383606D01*
X00979878Y00382036D01*
X00981080Y00380835D01*
X00982649Y00380185D01*
X00984348D01*
X00985917Y00380835D01*
X00987118Y00382036D01*
X00987768Y00383606D01*
Y00385304D01*
X00987118Y00386874D01*
X00986088Y00387904D01*
Y00396109D01*
X00985891Y00397100D01*
X00985330Y00397941D01*
X00969590Y00413680D01*
Y00581646D01*
X00986500D01*
X00988166Y00581978D01*
X00989578Y00582921D01*
X00990522Y00584334D01*
X00990854Y00586000D01*
Y00592000D01*
X00990522Y00593666D01*
X00989578Y00595079D01*
X00988166Y00596022D01*
X00986500Y00596354D01*
D02*
G37*
G36*
X00860500D02*
X00821500D01*
X00819834Y00596022D01*
X00818421Y00595079D01*
X00817478Y00593666D01*
X00817146Y00592000D01*
Y00586000D01*
X00817478Y00584334D01*
X00818421Y00582921D01*
X00819834Y00581978D01*
X00821500Y00581646D01*
X00860500D01*
X00862166Y00581978D01*
X00863578Y00582921D01*
X00864522Y00584334D01*
X00864854Y00586000D01*
Y00592000D01*
X00864522Y00593666D01*
X00863578Y00595079D01*
X00862166Y00596022D01*
X00860500Y00596354D01*
D02*
G37*
G36*
X00678500D02*
X00639500D01*
X00637834Y00596022D01*
X00636422Y00595079D01*
X00635478Y00593666D01*
X00635146Y00592000D01*
Y00586000D01*
X00635478Y00584334D01*
X00636422Y00582921D01*
X00637834Y00581978D01*
X00639500Y00581646D01*
X00678500D01*
X00680166Y00581978D01*
X00681579Y00582921D01*
X00682522Y00584334D01*
X00682854Y00586000D01*
Y00592000D01*
X00682522Y00593666D01*
X00681579Y00595079D01*
X00680166Y00596022D01*
X00678500Y00596354D01*
D02*
G37*
G36*
X00615500D02*
X00576500D01*
X00574834Y00596022D01*
X00573422Y00595079D01*
X00572478Y00593666D01*
X00572146Y00592000D01*
Y00586000D01*
X00572478Y00584334D01*
X00573422Y00582921D01*
X00574834Y00581978D01*
X00576500Y00581646D01*
X00615500D01*
X00617166Y00581978D01*
X00618578Y00582921D01*
X00619522Y00584334D01*
X00619854Y00586000D01*
Y00592000D01*
X00619522Y00593666D01*
X00618578Y00595079D01*
X00617166Y00596022D01*
X00615500Y00596354D01*
D02*
G37*
G36*
X00626352Y01045270D02*
X00623648D01*
X00621036Y01044570D01*
X00618694Y01043218D01*
X00616782Y01041306D01*
X00615430Y01038964D01*
X00614730Y01036352D01*
Y01033648D01*
X00615430Y01031036D01*
X00616782Y01028694D01*
X00618694Y01026782D01*
X00621036Y01025430D01*
X00622410Y01025062D01*
Y00969323D01*
X00618419Y00965331D01*
X00617857Y00964491D01*
X00617660Y00963500D01*
Y00918717D01*
X00617857Y00917726D01*
X00618419Y00916886D01*
X00622410Y00912894D01*
Y00874938D01*
X00621036Y00874570D01*
X00618694Y00873218D01*
X00616782Y00871306D01*
X00615430Y00868964D01*
X00614730Y00866352D01*
Y00863648D01*
X00615430Y00861036D01*
X00616782Y00858694D01*
X00618694Y00856782D01*
X00621036Y00855430D01*
X00623648Y00854730D01*
X00626352D01*
X00628964Y00855430D01*
X00631306Y00856782D01*
X00633218Y00858694D01*
X00634570Y00861036D01*
X00634938Y00862410D01*
X00664927D01*
X00691410Y00835927D01*
Y00574449D01*
X00690380Y00573419D01*
X00689730Y00571849D01*
Y00570151D01*
X00690380Y00568581D01*
X00691581Y00567380D01*
X00693151Y00566730D01*
X00694849D01*
X00696419Y00567380D01*
X00697620Y00568581D01*
X00698270Y00570151D01*
Y00571849D01*
X00697620Y00573419D01*
X00696590Y00574449D01*
Y00837000D01*
X00696393Y00837991D01*
X00695831Y00838831D01*
X00667831Y00866831D01*
X00666991Y00867393D01*
X00666000Y00867590D01*
X00634938D01*
X00634570Y00868964D01*
X00633218Y00871306D01*
X00631306Y00873218D01*
X00628964Y00874570D01*
X00627590Y00874938D01*
Y00913967D01*
X00627393Y00914958D01*
X00626831Y00915798D01*
X00622840Y00919789D01*
Y00962427D01*
X00626831Y00966419D01*
X00627393Y00967259D01*
X00627590Y00968250D01*
Y01025062D01*
X00628964Y01025430D01*
X00631306Y01026782D01*
X00633218Y01028694D01*
X00634570Y01031036D01*
X00635270Y01033648D01*
Y01036352D01*
X00634570Y01038964D01*
X00633218Y01041306D01*
X00631306Y01043218D01*
X00628964Y01044570D01*
X00626352Y01045270D01*
D02*
G37*
G36*
X00739599Y00617270D02*
X00737901D01*
X00736331Y00616620D01*
X00735130Y00615419D01*
X00734480Y00613849D01*
Y00612151D01*
X00735130Y00610581D01*
X00736160Y00609551D01*
Y00561500D01*
X00736357Y00560509D01*
X00736919Y00559669D01*
X00743919Y00552669D01*
X00744759Y00552107D01*
X00745750Y00551910D01*
X00852051D01*
X00853081Y00550880D01*
X00854651Y00550230D01*
X00856349D01*
X00857919Y00550880D01*
X00859120Y00552081D01*
X00859770Y00553651D01*
Y00555349D01*
X00859120Y00556919D01*
X00857919Y00558120D01*
X00856349Y00558770D01*
X00854651D01*
X00853081Y00558120D01*
X00852051Y00557090D01*
X00746823D01*
X00741340Y00562573D01*
Y00609551D01*
X00742370Y00610581D01*
X00743020Y00612151D01*
Y00613849D01*
X00742370Y00615419D01*
X00741169Y00616620D01*
X00739599Y00617270D01*
D02*
G37*
G36*
X00807349Y00645520D02*
X00805651D01*
X00804081Y00644870D01*
X00802880Y00643669D01*
X00802230Y00642099D01*
Y00640401D01*
X00802880Y00638831D01*
X00804081Y00637630D01*
X00805651Y00636980D01*
X00807349D01*
X00808919Y00637630D01*
X00810120Y00638831D01*
X00810317Y00639308D01*
X00853446D01*
X00867558Y00625196D01*
Y00541317D01*
X00867081Y00541120D01*
X00865880Y00539919D01*
X00865230Y00538349D01*
Y00536651D01*
X00865880Y00535081D01*
X00867081Y00533880D01*
X00868651Y00533230D01*
X00870349D01*
X00871919Y00533880D01*
X00873120Y00535081D01*
X00873770Y00536651D01*
Y00538349D01*
X00873120Y00539919D01*
X00871919Y00541120D01*
X00871442Y00541317D01*
Y00626000D01*
X00871294Y00626743D01*
X00870873Y00627373D01*
X00855623Y00642623D01*
X00854993Y00643045D01*
X00854250Y00643192D01*
X00810317D01*
X00810120Y00643669D01*
X00808919Y00644870D01*
X00807349Y00645520D01*
D02*
G37*
G36*
X00908470Y00508890D02*
X00906130D01*
X00903869Y00508284D01*
X00901841Y00507114D01*
X00900186Y00505459D01*
X00899016Y00503431D01*
X00898410Y00501170D01*
Y00498830D01*
X00899016Y00496569D01*
X00900186Y00494541D01*
X00901841Y00492886D01*
X00903869Y00491716D01*
X00906130Y00491110D01*
X00908470D01*
X00910731Y00491716D01*
X00912759Y00492886D01*
X00914414Y00494541D01*
X00915584Y00496569D01*
X00916190Y00498830D01*
Y00501170D01*
X00915584Y00503431D01*
X00914414Y00505459D01*
X00912759Y00507114D01*
X00910731Y00508284D01*
X00908470Y00508890D01*
D02*
G37*
G36*
X00780238Y00497910D02*
X00780170D01*
Y00489020D01*
X00789060D01*
Y00489088D01*
X00788368Y00491672D01*
X00787030Y00493988D01*
X00785138Y00495880D01*
X00782822Y00497218D01*
X00780238Y00497910D01*
D02*
G37*
G36*
X00777630D02*
X00777562D01*
X00774978Y00497218D01*
X00772662Y00495880D01*
X00770770Y00493988D01*
X00769432Y00491672D01*
X00768740Y00489088D01*
Y00489020D01*
X00777630D01*
Y00497910D01*
D02*
G37*
G36*
X00678849Y00521770D02*
X00675151D01*
X00671525Y00521049D01*
X00668109Y00519634D01*
X00665035Y00517580D01*
X00662420Y00514965D01*
X00660366Y00511891D01*
X00658951Y00508475D01*
X00658230Y00504849D01*
Y00501151D01*
X00658951Y00497525D01*
X00660366Y00494109D01*
X00662420Y00491035D01*
X00665035Y00488420D01*
X00668109Y00486366D01*
X00671525Y00484951D01*
X00675151Y00484230D01*
X00678849D01*
X00682475Y00484951D01*
X00685891Y00486366D01*
X00688965Y00488420D01*
X00691580Y00491035D01*
X00693634Y00494109D01*
X00695049Y00497525D01*
X00695770Y00501151D01*
Y00504849D01*
X00695049Y00508475D01*
X00693634Y00511891D01*
X00691580Y00514965D01*
X00688965Y00517580D01*
X00685891Y00519634D01*
X00682475Y00521049D01*
X00678849Y00521770D01*
D02*
G37*
G36*
X00631849D02*
X00628151D01*
X00624525Y00521049D01*
X00621109Y00519634D01*
X00618035Y00517580D01*
X00615420Y00514965D01*
X00613366Y00511891D01*
X00611951Y00508475D01*
X00611230Y00504849D01*
Y00501151D01*
X00611951Y00497525D01*
X00613366Y00494109D01*
X00615420Y00491035D01*
X00618035Y00488420D01*
X00621109Y00486366D01*
X00624525Y00484951D01*
X00628151Y00484230D01*
X00631849D01*
X00635475Y00484951D01*
X00638891Y00486366D01*
X00641965Y00488420D01*
X00644580Y00491035D01*
X00646634Y00494109D01*
X00648049Y00497525D01*
X00648770Y00501151D01*
Y00504849D01*
X00648049Y00508475D01*
X00646634Y00511891D01*
X00644580Y00514965D01*
X00641965Y00517580D01*
X00638891Y00519634D01*
X00635475Y00521049D01*
X00631849Y00521770D01*
D02*
G37*
G36*
X00584849D02*
X00581151D01*
X00577525Y00521049D01*
X00574109Y00519634D01*
X00571035Y00517580D01*
X00568420Y00514965D01*
X00566366Y00511891D01*
X00564951Y00508475D01*
X00564230Y00504849D01*
Y00501151D01*
X00564951Y00497525D01*
X00566366Y00494109D01*
X00568420Y00491035D01*
X00571035Y00488420D01*
X00574109Y00486366D01*
X00577525Y00484951D01*
X00581151Y00484230D01*
X00584849D01*
X00588475Y00484951D01*
X00591891Y00486366D01*
X00594965Y00488420D01*
X00597580Y00491035D01*
X00599634Y00494109D01*
X00601049Y00497525D01*
X00601770Y00501151D01*
Y00504849D01*
X00601049Y00508475D01*
X00599634Y00511891D01*
X00597580Y00514965D01*
X00594965Y00517580D01*
X00591891Y00519634D01*
X00588475Y00521049D01*
X00584849Y00521770D01*
D02*
G37*
G36*
X00830870Y00496640D02*
X00828530D01*
X00826269Y00496034D01*
X00824241Y00494864D01*
X00822586Y00493209D01*
X00821416Y00491181D01*
X00820810Y00488920D01*
Y00486580D01*
X00821416Y00484319D01*
X00822586Y00482291D01*
X00824241Y00480636D01*
X00826269Y00479466D01*
X00828530Y00478860D01*
X00830870D01*
X00833131Y00479466D01*
X00835159Y00480636D01*
X00836814Y00482291D01*
X00837984Y00484319D01*
X00838590Y00486580D01*
Y00488920D01*
X00837984Y00491181D01*
X00836814Y00493209D01*
X00835159Y00494864D01*
X00833131Y00496034D01*
X00830870Y00496640D01*
D02*
G37*
G36*
X00805470D02*
X00803130D01*
X00800869Y00496034D01*
X00798841Y00494864D01*
X00797186Y00493209D01*
X00796016Y00491181D01*
X00795410Y00488920D01*
Y00486580D01*
X00796016Y00484319D01*
X00797186Y00482291D01*
X00798841Y00480636D01*
X00800869Y00479466D01*
X00803130Y00478860D01*
X00805470D01*
X00807731Y00479466D01*
X00809759Y00480636D01*
X00811414Y00482291D01*
X00812584Y00484319D01*
X00813190Y00486580D01*
Y00488920D01*
X00812584Y00491181D01*
X00811414Y00493209D01*
X00809759Y00494864D01*
X00807731Y00496034D01*
X00805470Y00496640D01*
D02*
G37*
G36*
X00789060Y00486480D02*
X00780170D01*
Y00477590D01*
X00780238D01*
X00782822Y00478282D01*
X00785138Y00479620D01*
X00787030Y00481512D01*
X00788368Y00483828D01*
X00789060Y00486412D01*
Y00486480D01*
D02*
G37*
G36*
X00777630D02*
X00768740D01*
Y00486412D01*
X00769432Y00483828D01*
X00770770Y00481512D01*
X00772662Y00479620D01*
X00774978Y00478282D01*
X00777562Y00477590D01*
X00777630D01*
Y00486480D01*
D02*
G37*
G36*
X00678849Y00468770D02*
X00675151D01*
X00671525Y00468049D01*
X00668109Y00466634D01*
X00665035Y00464580D01*
X00662420Y00461965D01*
X00660366Y00458891D01*
X00658951Y00455475D01*
X00658230Y00451849D01*
Y00448151D01*
X00658951Y00444525D01*
X00660366Y00441109D01*
X00662420Y00438035D01*
X00665035Y00435420D01*
X00668109Y00433366D01*
X00671525Y00431951D01*
X00675151Y00431230D01*
X00678849D01*
X00682475Y00431951D01*
X00685891Y00433366D01*
X00688965Y00435420D01*
X00691580Y00438035D01*
X00693634Y00441109D01*
X00695049Y00444525D01*
X00695770Y00448151D01*
Y00451849D01*
X00695049Y00455475D01*
X00693634Y00458891D01*
X00691580Y00461965D01*
X00688965Y00464580D01*
X00685891Y00466634D01*
X00682475Y00468049D01*
X00678849Y00468770D01*
D02*
G37*
G36*
X00631849D02*
X00628151D01*
X00624525Y00468049D01*
X00621109Y00466634D01*
X00618035Y00464580D01*
X00615420Y00461965D01*
X00613366Y00458891D01*
X00611951Y00455475D01*
X00611230Y00451849D01*
Y00448151D01*
X00611951Y00444525D01*
X00613366Y00441109D01*
X00615420Y00438035D01*
X00618035Y00435420D01*
X00621109Y00433366D01*
X00624525Y00431951D01*
X00628151Y00431230D01*
X00631849D01*
X00635475Y00431951D01*
X00638891Y00433366D01*
X00641965Y00435420D01*
X00644580Y00438035D01*
X00646634Y00441109D01*
X00648049Y00444525D01*
X00648770Y00448151D01*
Y00451849D01*
X00648049Y00455475D01*
X00646634Y00458891D01*
X00644580Y00461965D01*
X00641965Y00464580D01*
X00638891Y00466634D01*
X00635475Y00468049D01*
X00631849Y00468770D01*
D02*
G37*
G36*
X00926270Y00415470D02*
Y00411270D01*
X00930470D01*
X00929697Y00413138D01*
X00928138Y00414697D01*
X00926270Y00415470D01*
D02*
G37*
G36*
X00923730D02*
X00921862Y00414697D01*
X00920303Y00413138D01*
X00919530Y00411270D01*
X00923730D01*
Y00415470D01*
D02*
G37*
G36*
X00911270D02*
Y00411270D01*
X00915470D01*
X00914697Y00413138D01*
X00913138Y00414697D01*
X00911270Y00415470D01*
D02*
G37*
G36*
X00908730D02*
X00906862Y00414697D01*
X00905303Y00413138D01*
X00904530Y00411270D01*
X00908730D01*
Y00415470D01*
D02*
G37*
G36*
X00896270D02*
Y00411270D01*
X00900470D01*
X00899697Y00413138D01*
X00898138Y00414697D01*
X00896270Y00415470D01*
D02*
G37*
G36*
X00893730D02*
X00891862Y00414697D01*
X00890303Y00413138D01*
X00889530Y00411270D01*
X00893730D01*
Y00415470D01*
D02*
G37*
G36*
X00881270D02*
Y00411270D01*
X00885470D01*
X00884697Y00413138D01*
X00883138Y00414697D01*
X00881270Y00415470D01*
D02*
G37*
G36*
X00878730D02*
X00876862Y00414697D01*
X00875303Y00413138D01*
X00874530Y00411270D01*
X00878730D01*
Y00415470D01*
D02*
G37*
G36*
X00866270D02*
Y00411270D01*
X00870470D01*
X00869697Y00413138D01*
X00868138Y00414697D01*
X00866270Y00415470D01*
D02*
G37*
G36*
X00863730D02*
X00861862Y00414697D01*
X00860303Y00413138D01*
X00859530Y00411270D01*
X00863730D01*
Y00415470D01*
D02*
G37*
G36*
X00930470Y00408730D02*
X00926270D01*
Y00404530D01*
X00928138Y00405303D01*
X00929697Y00406862D01*
X00930470Y00408730D01*
D02*
G37*
G36*
X00923730D02*
X00919530D01*
X00920303Y00406862D01*
X00921862Y00405303D01*
X00923730Y00404530D01*
Y00408730D01*
D02*
G37*
G36*
X00915470D02*
X00911270D01*
Y00404530D01*
X00913138Y00405303D01*
X00914697Y00406862D01*
X00915470Y00408730D01*
D02*
G37*
G36*
X00908730D02*
X00904530D01*
X00905303Y00406862D01*
X00906862Y00405303D01*
X00908730Y00404530D01*
Y00408730D01*
D02*
G37*
G36*
X00900470D02*
X00896270D01*
Y00404530D01*
X00898138Y00405303D01*
X00899697Y00406862D01*
X00900470Y00408730D01*
D02*
G37*
G36*
X00893730D02*
X00889530D01*
X00890303Y00406862D01*
X00891862Y00405303D01*
X00893730Y00404530D01*
Y00408730D01*
D02*
G37*
G36*
X00885470D02*
X00881270D01*
Y00404530D01*
X00883138Y00405303D01*
X00884697Y00406862D01*
X00885470Y00408730D01*
D02*
G37*
G36*
X00878730D02*
X00874530D01*
X00875303Y00406862D01*
X00876862Y00405303D01*
X00878730Y00404530D01*
Y00408730D01*
D02*
G37*
G36*
X00870470D02*
X00866270D01*
Y00404530D01*
X00868138Y00405303D01*
X00869697Y00406862D01*
X00870470Y00408730D01*
D02*
G37*
G36*
X00863730D02*
X00859530D01*
X00860303Y00406862D01*
X00861862Y00405303D01*
X00863730Y00404530D01*
Y00408730D01*
D02*
G37*
G36*
X00678849Y00415770D02*
X00675151D01*
X00671525Y00415049D01*
X00668109Y00413634D01*
X00665035Y00411580D01*
X00662420Y00408965D01*
X00660366Y00405891D01*
X00658951Y00402475D01*
X00658230Y00398849D01*
Y00395151D01*
X00658951Y00391525D01*
X00660366Y00388109D01*
X00662420Y00385035D01*
X00665035Y00382420D01*
X00668109Y00380366D01*
X00671525Y00378951D01*
X00675151Y00378230D01*
X00678849D01*
X00682475Y00378951D01*
X00685891Y00380366D01*
X00688965Y00382420D01*
X00691580Y00385035D01*
X00693634Y00388109D01*
X00695049Y00391525D01*
X00695770Y00395151D01*
Y00398849D01*
X00695049Y00402475D01*
X00693634Y00405891D01*
X00691580Y00408965D01*
X00688965Y00411580D01*
X00685891Y00413634D01*
X00682475Y00415049D01*
X00678849Y00415770D01*
D02*
G37*
G36*
X00584849D02*
X00581151D01*
X00577525Y00415049D01*
X00574109Y00413634D01*
X00571035Y00411580D01*
X00568420Y00408965D01*
X00566366Y00405891D01*
X00564951Y00402475D01*
X00564230Y00398849D01*
Y00395151D01*
X00564951Y00391525D01*
X00566366Y00388109D01*
X00568420Y00385035D01*
X00571035Y00382420D01*
X00574109Y00380366D01*
X00577525Y00378951D01*
X00581151Y00378230D01*
X00584849D01*
X00588475Y00378951D01*
X00591891Y00380366D01*
X00594965Y00382420D01*
X00597580Y00385035D01*
X00599634Y00388109D01*
X00601049Y00391525D01*
X00601770Y00395151D01*
Y00398849D01*
X00601049Y00402475D01*
X00599634Y00405891D01*
X00597580Y00408965D01*
X00594965Y00411580D01*
X00591891Y00413634D01*
X00588475Y00415049D01*
X00584849Y00415770D01*
D02*
G37*
G36*
X00631849D02*
X00628151D01*
X00624525Y00415049D01*
X00621109Y00413634D01*
X00618035Y00411580D01*
X00615420Y00408965D01*
X00613366Y00405891D01*
X00611951Y00402475D01*
X00611230Y00398849D01*
Y00395151D01*
X00611951Y00391525D01*
X00613366Y00388109D01*
X00615420Y00385035D01*
X00618035Y00382420D01*
X00621109Y00380366D01*
X00624525Y00378951D01*
X00628058Y00378249D01*
Y00375306D01*
X00628206Y00374563D01*
X00628627Y00373933D01*
X00638433Y00364127D01*
X00639063Y00363705D01*
X00639806Y00363558D01*
X00888980D01*
Y00361230D01*
X00900520D01*
Y00369770D01*
X00888980D01*
Y00367442D01*
X00640611D01*
X00631942Y00376111D01*
Y00378249D01*
X00635475Y00378951D01*
X00638891Y00380366D01*
X00641965Y00382420D01*
X00644580Y00385035D01*
X00646634Y00388109D01*
X00648049Y00391525D01*
X00648770Y00395151D01*
Y00398849D01*
X00648049Y00402475D01*
X00646634Y00405891D01*
X00644580Y00408965D01*
X00641965Y00411580D01*
X00638891Y00413634D01*
X00635475Y00415049D01*
X00631849Y00415770D01*
D02*
G37*
G36*
X00601270Y00345470D02*
Y00341270D01*
X00605470D01*
X00604697Y00343138D01*
X00603138Y00344697D01*
X00601270Y00345470D01*
D02*
G37*
G36*
X00598730D02*
X00596862Y00344697D01*
X00595303Y00343138D01*
X00594530Y00341270D01*
X00598730D01*
Y00345470D01*
D02*
G37*
G36*
X00586270D02*
Y00341270D01*
X00590470D01*
X00589697Y00343138D01*
X00588138Y00344697D01*
X00586270Y00345470D01*
D02*
G37*
G36*
X00583730D02*
X00581862Y00344697D01*
X00580303Y00343138D01*
X00579530Y00341270D01*
X00583730D01*
Y00345470D01*
D02*
G37*
G36*
X00571270D02*
Y00341270D01*
X00575470D01*
X00574697Y00343138D01*
X00573138Y00344697D01*
X00571270Y00345470D01*
D02*
G37*
G36*
X00568730D02*
X00566862Y00344697D01*
X00565303Y00343138D01*
X00564530Y00341270D01*
X00568730D01*
Y00345470D01*
D02*
G37*
G36*
X00556270D02*
Y00341270D01*
X00560470D01*
X00559697Y00343138D01*
X00558138Y00344697D01*
X00556270Y00345470D01*
D02*
G37*
G36*
X00553730D02*
X00551862Y00344697D01*
X00550303Y00343138D01*
X00549530Y00341270D01*
X00553730D01*
Y00345470D01*
D02*
G37*
G36*
X00541270D02*
Y00341270D01*
X00545470D01*
X00544697Y00343138D01*
X00543138Y00344697D01*
X00541270Y00345470D01*
D02*
G37*
G36*
X00538730D02*
X00536862Y00344697D01*
X00535303Y00343138D01*
X00534530Y00341270D01*
X00538730D01*
Y00345470D01*
D02*
G37*
G36*
X00605470Y00338730D02*
X00601270D01*
Y00334530D01*
X00603138Y00335303D01*
X00604697Y00336862D01*
X00605470Y00338730D01*
D02*
G37*
G36*
X00598730D02*
X00594530D01*
X00595303Y00336862D01*
X00596862Y00335303D01*
X00598730Y00334530D01*
Y00338730D01*
D02*
G37*
G36*
X00590470D02*
X00586270D01*
Y00334530D01*
X00588138Y00335303D01*
X00589697Y00336862D01*
X00590470Y00338730D01*
D02*
G37*
G36*
X00583730D02*
X00579530D01*
X00580303Y00336862D01*
X00581862Y00335303D01*
X00583730Y00334530D01*
Y00338730D01*
D02*
G37*
G36*
X00575470D02*
X00571270D01*
Y00334530D01*
X00573138Y00335303D01*
X00574697Y00336862D01*
X00575470Y00338730D01*
D02*
G37*
G36*
X00568730D02*
X00564530D01*
X00565303Y00336862D01*
X00566862Y00335303D01*
X00568730Y00334530D01*
Y00338730D01*
D02*
G37*
G36*
X00560470D02*
X00556270D01*
Y00334530D01*
X00558138Y00335303D01*
X00559697Y00336862D01*
X00560470Y00338730D01*
D02*
G37*
G36*
X00553730D02*
X00549530D01*
X00550303Y00336862D01*
X00551862Y00335303D01*
X00553730Y00334530D01*
Y00338730D01*
D02*
G37*
G36*
X00545470D02*
X00541270D01*
Y00334530D01*
X00543138Y00335303D01*
X00544697Y00336862D01*
X00545470Y00338730D01*
D02*
G37*
G36*
X00538730D02*
X00534530D01*
X00535303Y00336862D01*
X00536862Y00335303D01*
X00538730Y00334530D01*
Y00338730D01*
D02*
G37*
G36*
X00921470Y00315890D02*
X00919130D01*
X00916869Y00315284D01*
X00914841Y00314114D01*
X00913186Y00312459D01*
X00912016Y00310431D01*
X00911410Y00308170D01*
Y00305830D01*
X00912016Y00303569D01*
X00913186Y00301541D01*
X00914841Y00299886D01*
X00916869Y00298716D01*
X00919130Y00298110D01*
X00921470D01*
X00923731Y00298716D01*
X00925759Y00299886D01*
X00927414Y00301541D01*
X00928584Y00303569D01*
X00929190Y00305830D01*
Y00308170D01*
X00928584Y00310431D01*
X00927414Y00312459D01*
X00925759Y00314114D01*
X00923731Y00315284D01*
X00921470Y00315890D01*
D02*
G37*
G36*
X00900520Y00354770D02*
X00888980D01*
Y00346230D01*
X00892958D01*
Y00315683D01*
X00891469Y00315284D01*
X00889441Y00314114D01*
X00887786Y00312459D01*
X00886616Y00310431D01*
X00886010Y00308170D01*
Y00305830D01*
X00886616Y00303569D01*
X00887786Y00301541D01*
X00889441Y00299886D01*
X00891469Y00298716D01*
X00893730Y00298110D01*
X00896070D01*
X00898331Y00298716D01*
X00900359Y00299886D01*
X00902014Y00301541D01*
X00903184Y00303569D01*
X00903790Y00305830D01*
Y00308170D01*
X00903184Y00310431D01*
X00902014Y00312459D01*
X00900359Y00314114D01*
X00898331Y00315284D01*
X00896842Y00315683D01*
Y00346230D01*
X00900520D01*
Y00354770D01*
D02*
G37*
G36*
X00870670Y00315890D02*
X00868330D01*
X00866069Y00315284D01*
X00864041Y00314114D01*
X00862386Y00312459D01*
X00861216Y00310431D01*
X00860610Y00308170D01*
Y00305830D01*
X00861216Y00303569D01*
X00862386Y00301541D01*
X00864041Y00299886D01*
X00866069Y00298716D01*
X00868330Y00298110D01*
X00870670D01*
X00872931Y00298716D01*
X00874959Y00299886D01*
X00876614Y00301541D01*
X00877784Y00303569D01*
X00878390Y00305830D01*
Y00308170D01*
X00877784Y00310431D01*
X00876614Y00312459D01*
X00874959Y00314114D01*
X00872931Y00315284D01*
X00870670Y00315890D01*
D02*
G37*
G36*
X00838820D02*
X00836480D01*
X00834219Y00315284D01*
X00832191Y00314114D01*
X00830536Y00312459D01*
X00829366Y00310431D01*
X00828760Y00308170D01*
Y00305830D01*
X00829366Y00303569D01*
X00830536Y00301541D01*
X00832191Y00299886D01*
X00834219Y00298716D01*
X00836480Y00298110D01*
X00838820D01*
X00841081Y00298716D01*
X00843109Y00299886D01*
X00844764Y00301541D01*
X00845934Y00303569D01*
X00846540Y00305830D01*
Y00308170D01*
X00845934Y00310431D01*
X00844764Y00312459D01*
X00843109Y00314114D01*
X00841081Y00315284D01*
X00838820Y00315890D01*
D02*
G37*
G36*
X00813420D02*
X00811080D01*
X00808819Y00315284D01*
X00806791Y00314114D01*
X00805136Y00312459D01*
X00803966Y00310431D01*
X00803360Y00308170D01*
Y00305830D01*
X00803966Y00303569D01*
X00805136Y00301541D01*
X00806791Y00299886D01*
X00808819Y00298716D01*
X00811080Y00298110D01*
X00813420D01*
X00815681Y00298716D01*
X00817709Y00299886D01*
X00819364Y00301541D01*
X00820534Y00303569D01*
X00821140Y00305830D01*
Y00308170D01*
X00820534Y00310431D01*
X00819364Y00312459D01*
X00817709Y00314114D01*
X00815681Y00315284D01*
X00813420Y00315890D01*
D02*
G37*
G36*
X00788020D02*
X00785680D01*
X00783419Y00315284D01*
X00781391Y00314114D01*
X00779736Y00312459D01*
X00778566Y00310431D01*
X00777960Y00308170D01*
Y00305830D01*
X00778566Y00303569D01*
X00779736Y00301541D01*
X00781391Y00299886D01*
X00783419Y00298716D01*
X00785680Y00298110D01*
X00788020D01*
X00790281Y00298716D01*
X00792309Y00299886D01*
X00793964Y00301541D01*
X00795134Y00303569D01*
X00795740Y00305830D01*
Y00308170D01*
X00795134Y00310431D01*
X00793964Y00312459D01*
X00792309Y00314114D01*
X00790281Y00315284D01*
X00788020Y00315890D01*
D02*
G37*
G36*
X00723349Y00575520D02*
X00721651D01*
X00720081Y00574870D01*
X00718880Y00573669D01*
X00718230Y00572099D01*
Y00570401D01*
X00718880Y00568831D01*
X00719910Y00567801D01*
Y00493750D01*
X00720107Y00492759D01*
X00720669Y00491919D01*
X00726669Y00485919D01*
X00727509Y00485357D01*
X00728500Y00485160D01*
X00744990D01*
X00745216Y00484319D01*
X00746386Y00482291D01*
X00748041Y00480636D01*
X00750069Y00479466D01*
X00752330Y00478860D01*
X00754670D01*
X00756931Y00479466D01*
X00758959Y00480636D01*
X00760614Y00482291D01*
X00761784Y00484319D01*
X00762390Y00486580D01*
Y00488920D01*
X00761784Y00491181D01*
X00760614Y00493209D01*
X00758959Y00494864D01*
X00756931Y00496034D01*
X00756090Y00496260D01*
Y00504177D01*
X00774823Y00522910D01*
X00919677D01*
X00930110Y00512477D01*
Y00508510D01*
X00929269Y00508284D01*
X00927241Y00507114D01*
X00925586Y00505459D01*
X00924416Y00503431D01*
X00923810Y00501170D01*
Y00498830D01*
X00924416Y00496569D01*
X00925586Y00494541D01*
X00927241Y00492886D01*
X00929269Y00491716D01*
X00930110Y00491490D01*
Y00434300D01*
X00930307Y00433309D01*
X00930869Y00432469D01*
X00942160Y00421177D01*
Y00292073D01*
X00920513Y00270425D01*
X00763930D01*
X00757590Y00276765D01*
Y00314051D01*
X00758620Y00315081D01*
X00759270Y00316651D01*
Y00318349D01*
X00758620Y00319919D01*
X00757419Y00321120D01*
X00755849Y00321770D01*
X00754151D01*
X00752581Y00321120D01*
X00751380Y00319919D01*
X00750730Y00318349D01*
Y00316651D01*
X00751380Y00315081D01*
X00752410Y00314051D01*
Y00275693D01*
X00752607Y00274701D01*
X00753169Y00273861D01*
X00761026Y00266004D01*
X00761866Y00265443D01*
X00762857Y00265246D01*
X00921585D01*
X00922577Y00265443D01*
X00923417Y00266004D01*
X00946581Y00289169D01*
X00947143Y00290009D01*
X00947340Y00291000D01*
Y00422250D01*
X00947143Y00423241D01*
X00946581Y00424081D01*
X00935290Y00435373D01*
Y00491490D01*
X00936131Y00491716D01*
X00938159Y00492886D01*
X00939814Y00494541D01*
X00940984Y00496569D01*
X00941590Y00498830D01*
Y00501170D01*
X00940984Y00503431D01*
X00939814Y00505459D01*
X00938159Y00507114D01*
X00936131Y00508284D01*
X00935290Y00508510D01*
Y00513550D01*
X00935093Y00514541D01*
X00934531Y00515381D01*
X00922581Y00527331D01*
X00921741Y00527893D01*
X00920750Y00528090D01*
X00773750D01*
X00772759Y00527893D01*
X00771919Y00527331D01*
X00751669Y00507081D01*
X00751107Y00506241D01*
X00750910Y00505250D01*
Y00496260D01*
X00750069Y00496034D01*
X00748041Y00494864D01*
X00746386Y00493209D01*
X00745216Y00491181D01*
X00744990Y00490340D01*
X00729573D01*
X00725090Y00494823D01*
Y00567801D01*
X00726120Y00568831D01*
X00726770Y00570401D01*
Y00572099D01*
X00726120Y00573669D01*
X00724919Y00574870D01*
X00723349Y00575520D01*
D02*
G37*
%LPD*%
D13*
X00874250Y00865750D02*
X00875000Y00865000D01*
X00874250Y00865750D02*
Y00889250D01*
X00879500Y00894500D01*
X00897000D01*
X00914000Y00911500D02*
Y00983750D01*
X00897000Y00894500D02*
X00914000Y00911500D01*
X00923750Y00993500D02*
X00968250D01*
X00914000Y00983750D02*
X00923750Y00993500D01*
X00777500Y00964178D02*
X00777524Y00964154D01*
X00777500Y00964178D02*
Y00980950D01*
X00838167Y00978116D02*
X00838283Y00978232D01*
X00821000Y00978000D02*
X00821116Y00978116D01*
X00838167D01*
X00730000Y01053000D02*
X00829250D01*
X00896500Y00985750D01*
Y00923750D02*
Y00985750D01*
X00876750Y00904000D02*
X00896500Y00923750D01*
X00826250Y00904000D02*
X00876750D01*
X00794310Y00935940D02*
X00826250Y00904000D01*
X00721211Y00935940D02*
X00794310D01*
X00645500Y01025250D02*
Y01045250D01*
X00646000Y01045750D01*
X00650250Y01020500D02*
X00676000D01*
X00645500Y01025250D02*
X00650250Y01020500D01*
X00551750Y00824512D02*
Y00880500D01*
Y00824512D02*
X00597750Y00778512D01*
X00596000Y00751000D02*
X00597750Y00752750D01*
Y00778512D01*
X00561000Y00889750D02*
X00612000D01*
X00551750Y00880500D02*
X00561000Y00889750D01*
X00738750Y00561500D02*
X00745750Y00554500D01*
X00738750Y00561500D02*
Y00613000D01*
X00745750Y00554500D02*
X00855500D01*
X00711000Y00395500D02*
Y00867910D01*
X00630000Y00546500D02*
Y00671750D01*
X00596000Y00705750D02*
X00630000Y00671750D01*
X00673750Y00905160D02*
X00711000Y00867910D01*
X00673750Y00905160D02*
Y00963000D01*
X00691000Y01020500D02*
X00692500Y01019000D01*
X00676000Y01020500D02*
X00691000D01*
X00750000Y01091500D02*
X00758250Y01083250D01*
X00795750D01*
X00750000Y01091500D02*
Y01126000D01*
X00792750Y01069750D02*
X00795750Y01072750D01*
Y01083250D01*
X00675250Y01069750D02*
X00792750D01*
X00967000Y00412608D02*
Y00589000D01*
Y00412608D02*
X00983498Y00396109D01*
Y00384455D02*
Y00396109D01*
X00904000Y00589000D02*
X00967000D01*
X00533000Y00711250D02*
Y00751000D01*
Y00711250D02*
X00590500Y00653750D01*
Y00613500D02*
Y00653750D01*
X00533000Y00751000D02*
X00596000D01*
Y00705750D02*
Y00751000D01*
X00711000Y00395500D02*
X00722250Y00384250D01*
X00772000D01*
X00722500Y00493750D02*
Y00571250D01*
Y00493750D02*
X00728500Y00487750D01*
X00694000Y00571000D02*
Y00837000D01*
X00625000Y00865000D02*
X00666000D01*
X00694000Y00837000D01*
X00625000Y00865000D02*
Y00913967D01*
X00620250Y00918717D02*
X00625000Y00913967D01*
X00620250Y00918717D02*
Y00963500D01*
X00625000Y00968250D02*
Y01035000D01*
X00620250Y00963500D02*
X00625000Y00968250D01*
X00728500Y00487750D02*
X00753500D01*
Y00505250D01*
X00773750Y00525500D02*
X00920750D01*
X00753500Y00505250D02*
X00773750Y00525500D01*
X00920750D02*
X00932700Y00513550D01*
Y00500000D02*
Y00513550D01*
Y00434300D02*
Y00500000D01*
Y00434300D02*
X00944750Y00422250D01*
Y00291000D02*
Y00422250D01*
X00921585Y00267836D02*
X00944750Y00291000D01*
X00762857Y00267836D02*
X00921585D01*
X00755000Y00275693D02*
Y00317500D01*
Y00275693D02*
X00762857Y00267836D01*
X00762250Y00863750D02*
X00837077D01*
X00847000Y00853828D01*
Y00790500D02*
Y00853828D01*
X00855000Y00782500D02*
X00972500D01*
X00847000Y00790500D02*
X00855000Y00782500D01*
X00673750Y00963000D02*
X00674000Y00963250D01*
X00705750D01*
X00554500Y01046750D02*
X00560750Y01053000D01*
X00554500Y00974250D02*
Y01046750D01*
X00560750Y01053000D02*
X00730000D01*
Y01046750D02*
Y01053000D01*
X00722500Y01039250D02*
X00730000Y01046750D01*
X00722500Y01019050D02*
Y01039250D01*
X00707500Y01019000D02*
X00722450D01*
X00722500Y01019050D01*
X00807500Y00960000D02*
Y00991500D01*
X00799250Y00951750D02*
X00807500Y00960000D01*
X00709500Y00951750D02*
X00799250D01*
X00706000Y00955250D02*
X00709500Y00951750D01*
X00706000Y00955250D02*
Y00963500D01*
X00705750Y00963250D02*
X00706000Y00963500D01*
D14*
X00940500Y01264350D02*
G03*
X01010350Y01194500I00069850J00000000D01*
G01*
X00489650D02*
G03*
X00559500Y01264350I00000000J00069850D01*
G01*
X01010350Y00305500D02*
G03*
X00940500Y00235650I00000000J-00069850D01*
G01*
X00559500D02*
G03*
X00489650Y00305500I-00069850J00000000D01*
G01*
X01010350D02*
X01010350Y01194500D01*
X00559500Y01264350D02*
X00940500D01*
X00489650Y00305500D02*
X00489650Y01194500D01*
X00559500Y00235650D02*
X00940500D01*
D20*
X00807500Y01021500D02*
D03*
X00822500D02*
D03*
X00692500Y01019000D02*
D03*
X00707500D02*
D03*
X00807500Y00991500D02*
D03*
X00792500D02*
D03*
X00807500Y01006500D02*
D03*
X00822500D02*
D03*
D21*
X00894750Y00350500D02*
D03*
Y00365500D02*
D03*
X00676000Y01020500D02*
D03*
Y01005500D02*
D03*
X00821000Y00978000D02*
D03*
Y00993000D02*
D03*
X00706000Y00963500D02*
D03*
Y00978500D02*
D03*
Y00990500D02*
D03*
Y01005500D02*
D03*
X00691000Y00990500D02*
D03*
Y01005500D02*
D03*
X00794000Y01004750D02*
D03*
Y01019750D02*
D03*
D24*
X00777500Y01006350D02*
D03*
Y00993650D02*
D03*
Y00980950D02*
D03*
X00722500Y01019050D02*
D03*
Y01006350D02*
D03*
Y00993650D02*
D03*
Y00980950D02*
D03*
D25*
X00777500Y01019050D02*
D03*
D51*
X00506250Y00557750D02*
X00524750Y00539250D01*
X00506250Y00557750D02*
Y00807250D01*
X00519750Y00820750D02*
Y01151500D01*
X00506250Y00807250D02*
X00519750Y00820750D01*
X00639806Y00365500D02*
X00894750D01*
X00630000Y00375306D02*
X00639806Y00365500D01*
X00630000Y00375306D02*
Y00397000D01*
X00722500Y00967000D02*
Y00980950D01*
X00814565Y00666435D02*
X00821250Y00659750D01*
X00844000D01*
X00814565Y00666435D02*
Y00776831D01*
X00818000Y00780266D02*
Y00813250D01*
X00814565Y00776831D02*
X00818000Y00780266D01*
X00854250Y00641250D02*
X00869500Y00626000D01*
X00806500Y00641250D02*
X00854250D01*
X00869500Y00537500D02*
Y00626000D01*
X00740600Y01006350D02*
X00745500Y01011250D01*
X00722500Y01006350D02*
X00740600D01*
X00721650Y01005500D02*
X00722500Y01006350D01*
X00745500Y01011250D02*
Y01038000D01*
X00981500Y00905000D02*
Y01154250D01*
X00905750Y00889500D02*
X00966000D01*
X00981500Y00905000D01*
X00900000Y00865000D02*
Y00883750D01*
X00905750Y00889500D01*
X00915250Y01220500D02*
X00981500Y01154250D01*
X00588750Y01220500D02*
X00915250D01*
X00519750Y01151500D02*
X00588750Y01220500D01*
X00524750Y00464500D02*
Y00539250D01*
X00539250Y00450000D02*
X00583000D01*
X00524750Y00464500D02*
X00539250Y00450000D01*
X00676000Y01005500D02*
X00676000Y01005500D01*
X00691000D01*
X00706000D02*
X00721650D01*
X00691000Y00990500D02*
X00706000D01*
X00719350D01*
X00722500Y00993650D01*
X00720050Y00978500D02*
X00722500Y00980950D01*
X00706000Y00978500D02*
X00720050D01*
X00822500Y01021500D02*
X00836000D01*
X00821000Y00993000D02*
X00822500Y00994500D01*
Y01006500D01*
X00794000Y01019750D02*
X00805750D01*
X00807500Y01021500D01*
X00779100Y01004750D02*
X00805750D01*
X00807500Y01006500D01*
X00793300Y01019050D02*
X00794000Y01019750D01*
X00777500Y01019050D02*
X00793300D01*
X00777500Y01006350D02*
X00779100Y01004750D01*
X00777500Y00993650D02*
X00779650Y00991500D01*
X00792500D01*
X00752250Y00989750D02*
X00756150Y00993650D01*
X00777500D01*
X00752250Y00980500D02*
Y00989750D01*
X00894900Y00307000D02*
Y00350350D01*
X00894750Y00350500D02*
X00894900Y00350350D01*
D52*
X00753500Y00487750D02*
D03*
X00829700D02*
D03*
X00804300D02*
D03*
X00778900D02*
D03*
X00750000Y00887300D02*
D03*
Y00912700D02*
D03*
Y00804200D02*
D03*
Y00778800D02*
D03*
X00837650Y00307000D02*
D03*
X00812250D02*
D03*
X00786850D02*
D03*
X00869500D02*
D03*
X00894900D02*
D03*
X00920300D02*
D03*
X00907300Y00500000D02*
D03*
X00932700D02*
D03*
D53*
X00596000Y00751000D02*
D03*
Y00589000D02*
D03*
X00659000Y00751000D02*
D03*
Y00589000D02*
D03*
X00533000Y00751000D02*
D03*
Y00589000D02*
D03*
X00904000D02*
D03*
Y00751000D02*
D03*
X00841000Y00589000D02*
D03*
Y00751000D02*
D03*
X00967000Y00589000D02*
D03*
Y00751000D02*
D03*
D54*
X00944000Y00935000D02*
D03*
X00856000D02*
D03*
X00644000Y01105000D02*
D03*
X00556000D02*
D03*
X00644000Y00935000D02*
D03*
X00556000D02*
D03*
X00944000Y01105000D02*
D03*
X00856000D02*
D03*
D55*
X00875000Y00865000D02*
D03*
X00925000D02*
D03*
X00900000D02*
D03*
X00575000Y01035000D02*
D03*
X00625000D02*
D03*
X00600000D02*
D03*
X00575000Y00865000D02*
D03*
X00625000D02*
D03*
X00600000D02*
D03*
X00875000Y01035000D02*
D03*
X00925000D02*
D03*
X00900000D02*
D03*
D56*
X00798000Y01148000D02*
D03*
D57*
X00750000Y01123000D02*
D03*
Y01183000D02*
D03*
D58*
X00630000Y00503000D02*
D03*
Y00397000D02*
D03*
Y00450000D02*
D03*
X00677000Y00503000D02*
D03*
Y00397000D02*
D03*
Y00450000D02*
D03*
X00583000Y00503000D02*
D03*
Y00397000D02*
D03*
Y00450000D02*
D03*
D59*
X00740000Y00675000D02*
D03*
Y00690000D02*
D03*
Y00705000D02*
D03*
Y00720000D02*
D03*
Y00735000D02*
D03*
X00540000Y00340000D02*
D03*
X00555000D02*
D03*
X00570000D02*
D03*
X00585000D02*
D03*
X00600000D02*
D03*
X00865000Y00410000D02*
D03*
X00880000D02*
D03*
X00895000D02*
D03*
X00910000D02*
D03*
X00925000D02*
D03*
X00610000Y00800000D02*
D03*
X00625000D02*
D03*
X00640000D02*
D03*
X00655000D02*
D03*
X00670000D02*
D03*
X00855000Y01205000D02*
D03*
X00870000D02*
D03*
X00885000D02*
D03*
X00900000D02*
D03*
X00915000D02*
D03*
X00665000D02*
D03*
X00650000D02*
D03*
X00635000D02*
D03*
X00620000D02*
D03*
X00605000D02*
D03*
X00968250Y00993500D02*
D03*
X00777524Y00964154D02*
D03*
X00838283Y00978232D02*
D03*
X00646000Y01045750D02*
D03*
X00612000Y00889750D02*
D03*
X00738750Y00613000D02*
D03*
X00630000Y00546500D02*
D03*
X00855500Y00554500D02*
D03*
X00795750Y01083250D02*
D03*
X00675250Y01069750D02*
D03*
X00983498Y00384455D02*
D03*
X00590500Y00613500D02*
D03*
X00694000Y00571000D02*
D03*
X00722500Y00571250D02*
D03*
X00755000Y00317500D02*
D03*
X00762250Y00863750D02*
D03*
X00972500Y00782500D02*
D03*
X00721211Y00935940D02*
D03*
X00554500Y00974250D02*
D03*
X00730000Y01053000D02*
D03*
X00772000Y00384250D02*
D03*
X00673750Y00963000D02*
D03*
X00722500Y00967000D02*
D03*
X00844000Y00659750D02*
D03*
X00818000Y00813250D02*
D03*
X00745500Y01038000D02*
D03*
X00869500Y00537500D02*
D03*
X00806500Y00641250D02*
D03*
X00836000Y01021500D02*
D03*
X00752250Y00980500D02*
D03*
M02*
