G04*
G04 #@! TF.GenerationSoftware,Altium Limited,Altium Designer,21.6.4 (81)*
G04*
G04 Layer_Physical_Order=1*
G04 Layer_Color=255*
%FSAX44Y44*%
%MOMM*%
G71*
G04*
G04 #@! TF.SameCoordinates,1A77CDA6-7C2D-4FE3-B1CB-ECEED33A992D*
G04*
G04*
G04 #@! TF.FilePolarity,Positive*
G04*
G01*
G75*
%ADD13C,0.2540*%
%ADD14C,0.0500*%
%ADD15R,0.3500X1.3500*%
%ADD16O,0.3500X1.3500*%
%ADD17O,1.8000X2.0000*%
%ADD18R,1.8000X2.0000*%
%ADD19R,1.8000X1.4000*%
%ADD20R,0.6000X0.9000*%
%ADD21R,0.9000X0.6000*%
%ADD22R,1.2000X1.4000*%
%ADD23R,3.5000X1.4000*%
%ADD24R,1.2000X0.8000*%
%ADD25O,1.2000X0.8000*%
%ADD26O,0.9000X0.7000*%
%ADD27R,0.9000X0.7000*%
%ADD28R,2.5000X1.7000*%
%ADD51C,0.1270*%
%ADD52C,1.5240*%
G04:AMPARAMS|DCode=53|XSize=4.5mm|YSize=1.2mm|CornerRadius=0.3mm|HoleSize=0mm|Usage=FLASHONLY|Rotation=0.000|XOffset=0mm|YOffset=0mm|HoleType=Round|Shape=RoundedRectangle|*
%AMROUNDEDRECTD53*
21,1,4.5000,0.6000,0,0,0.0*
21,1,3.9000,1.2000,0,0,0.0*
1,1,0.6000,1.9500,-0.3000*
1,1,0.6000,-1.9500,-0.3000*
1,1,0.6000,-1.9500,0.3000*
1,1,0.6000,1.9500,0.3000*
%
%ADD53ROUNDEDRECTD53*%
%ADD54R,3.0000X3.0000*%
%ADD55C,1.8000*%
G04:AMPARAMS|DCode=56|XSize=4.5mm|YSize=2mm|CornerRadius=0.5mm|HoleSize=0mm|Usage=FLASHONLY|Rotation=90.000|XOffset=0mm|YOffset=0mm|HoleType=Round|Shape=RoundedRectangle|*
%AMROUNDEDRECTD56*
21,1,4.5000,1.0000,0,0,90.0*
21,1,3.5000,2.0000,0,0,90.0*
1,1,1.0000,0.5000,1.7500*
1,1,1.0000,0.5000,-1.7500*
1,1,1.0000,-0.5000,-1.7500*
1,1,1.0000,-0.5000,1.7500*
%
%ADD56ROUNDEDRECTD56*%
G04:AMPARAMS|DCode=57|XSize=4.5mm|YSize=2mm|CornerRadius=0.5mm|HoleSize=0mm|Usage=FLASHONLY|Rotation=180.000|XOffset=0mm|YOffset=0mm|HoleType=Round|Shape=RoundedRectangle|*
%AMROUNDEDRECTD57*
21,1,4.5000,1.0000,0,0,180.0*
21,1,3.5000,2.0000,0,0,180.0*
1,1,1.0000,-1.7500,0.5000*
1,1,1.0000,1.7500,0.5000*
1,1,1.0000,1.7500,-0.5000*
1,1,1.0000,-1.7500,-0.5000*
%
%ADD57ROUNDEDRECTD57*%
%ADD58C,3.5000*%
%ADD59C,0.6000*%
G36*
X00938007Y01260669D02*
X00938679Y01253847D01*
X00938716Y01253724D01*
Y01253596D01*
X00940053Y01246873D01*
X00940103Y01246754D01*
X00940115Y01246626D01*
X00942105Y01240067D01*
X00942166Y01239953D01*
X00942191Y01239827D01*
X00944814Y01233494D01*
X00944885Y01233387D01*
X00944922Y01233264D01*
X00948154Y01227219D01*
X00948235Y01227120D01*
X00948284Y01227001D01*
X00952093Y01221302D01*
X00952184Y01221211D01*
X00952244Y01221097D01*
X00956593Y01215799D01*
X00956692Y01215717D01*
X00956763Y01215610D01*
X00961610Y01210763D01*
X00961717Y01210692D01*
X00961799Y01210593D01*
X00967097Y01206244D01*
X00967211Y01206184D01*
X00967302Y01206093D01*
X00973001Y01202284D01*
X00973120Y01202235D01*
X00973219Y01202154D01*
X00979265Y01198923D01*
X00979387Y01198885D01*
X00979494Y01198814D01*
X00985827Y01196191D01*
X00985953Y01196166D01*
X00986067Y01196105D01*
X00992626Y01194115D01*
X00992754Y01194103D01*
X00992873Y01194053D01*
X00999596Y01192716D01*
X00999724D01*
X00999847Y01192679D01*
X01006669Y01192007D01*
X01007760Y01191256D01*
X01007760Y00308744D01*
X01006669Y00307993D01*
X00999847Y00307321D01*
X00999724Y00307284D01*
X00999596D01*
X00992872Y00305947D01*
X00992754Y00305897D01*
X00992626Y00305885D01*
X00986067Y00303895D01*
X00985953Y00303834D01*
X00985827Y00303809D01*
X00979494Y00301186D01*
X00979387Y00301115D01*
X00979265Y00301077D01*
X00973219Y00297846D01*
X00973120Y00297765D01*
X00973001Y00297715D01*
X00967302Y00293907D01*
X00967211Y00293816D01*
X00967097Y00293756D01*
X00961799Y00289407D01*
X00961717Y00289308D01*
X00961610Y00289237D01*
X00956763Y00284389D01*
X00956692Y00284283D01*
X00956593Y00284201D01*
X00952244Y00278902D01*
X00952184Y00278789D01*
X00952093Y00278698D01*
X00948284Y00272999D01*
X00948235Y00272880D01*
X00948154Y00272781D01*
X00944922Y00266735D01*
X00944885Y00266612D01*
X00944814Y00266506D01*
X00942191Y00260173D01*
X00942166Y00260047D01*
X00942105Y00259933D01*
X00940115Y00253374D01*
X00940103Y00253246D01*
X00940053Y00253127D01*
X00938716Y00246404D01*
Y00246276D01*
X00938679Y00246153D01*
X00938007Y00239331D01*
X00937256Y00238240D01*
X00562744D01*
X00561993Y00239331D01*
X00561321Y00246153D01*
X00561284Y00246276D01*
Y00246404D01*
X00559947Y00253127D01*
X00559897Y00253246D01*
X00559885Y00253374D01*
X00557895Y00259933D01*
X00557834Y00260047D01*
X00557809Y00260173D01*
X00555186Y00266506D01*
X00555115Y00266612D01*
X00555078Y00266735D01*
X00551846Y00272781D01*
X00551765Y00272880D01*
X00551716Y00272999D01*
X00547907Y00278698D01*
X00547816Y00278789D01*
X00547756Y00278902D01*
X00543407Y00284201D01*
X00543308Y00284283D01*
X00543237Y00284390D01*
X00538390Y00289237D01*
X00538283Y00289308D01*
X00538201Y00289407D01*
X00532902Y00293756D01*
X00532789Y00293816D01*
X00532698Y00293907D01*
X00526999Y00297715D01*
X00526880Y00297765D01*
X00526781Y00297846D01*
X00520736Y00301077D01*
X00520612Y00301115D01*
X00520506Y00301186D01*
X00514173Y00303809D01*
X00514047Y00303834D01*
X00513933Y00303895D01*
X00507374Y00305885D01*
X00507246Y00305897D01*
X00507127Y00305947D01*
X00500404Y00307284D01*
X00500276D01*
X00500153Y00307321D01*
X00493331Y00307993D01*
X00492240Y00308744D01*
Y01191256D01*
X00493331Y01192007D01*
X00500153Y01192679D01*
X00500276Y01192716D01*
X00500404D01*
X00507127Y01194053D01*
X00507246Y01194103D01*
X00507374Y01194115D01*
X00513933Y01196105D01*
X00514047Y01196166D01*
X00514173Y01196191D01*
X00520506Y01198814D01*
X00520612Y01198885D01*
X00520736Y01198923D01*
X00526781Y01202154D01*
X00526880Y01202235D01*
X00526999Y01202284D01*
X00532698Y01206093D01*
X00532789Y01206184D01*
X00532902Y01206244D01*
X00538201Y01210593D01*
X00538283Y01210692D01*
X00538390Y01210763D01*
X00543237Y01215610D01*
X00543308Y01215717D01*
X00543407Y01215799D01*
X00547756Y01221097D01*
X00547816Y01221211D01*
X00547907Y01221302D01*
X00551716Y01227001D01*
X00551765Y01227120D01*
X00551846Y01227219D01*
X00555078Y01233264D01*
X00555115Y01233387D01*
X00555186Y01233494D01*
X00557809Y01239827D01*
X00557834Y01239953D01*
X00557895Y01240067D01*
X00559885Y01246626D01*
X00559897Y01246754D01*
X00559947Y01246873D01*
X00561284Y01253596D01*
Y01253724D01*
X00561321Y01253847D01*
X00561993Y01260669D01*
X00562744Y01261760D01*
X00937256D01*
X00938007Y01260669D01*
D02*
G37*
%LPC*%
G36*
X00916270Y01210470D02*
Y01206270D01*
X00920470D01*
X00919697Y01208138D01*
X00918138Y01209697D01*
X00916270Y01210470D01*
D02*
G37*
G36*
X00913730D02*
X00911862Y01209697D01*
X00910303Y01208138D01*
X00909530Y01206270D01*
X00913730D01*
Y01210470D01*
D02*
G37*
G36*
X00901270D02*
Y01206270D01*
X00905470D01*
X00904697Y01208138D01*
X00903138Y01209697D01*
X00901270Y01210470D01*
D02*
G37*
G36*
X00898730D02*
X00896862Y01209697D01*
X00895303Y01208138D01*
X00894530Y01206270D01*
X00898730D01*
Y01210470D01*
D02*
G37*
G36*
X00886270D02*
Y01206270D01*
X00890470D01*
X00889697Y01208138D01*
X00888138Y01209697D01*
X00886270Y01210470D01*
D02*
G37*
G36*
X00883730D02*
X00881862Y01209697D01*
X00880303Y01208138D01*
X00879530Y01206270D01*
X00883730D01*
Y01210470D01*
D02*
G37*
G36*
X00871270D02*
Y01206270D01*
X00875470D01*
X00874697Y01208138D01*
X00873138Y01209697D01*
X00871270Y01210470D01*
D02*
G37*
G36*
X00868730D02*
X00866862Y01209697D01*
X00865303Y01208138D01*
X00864530Y01206270D01*
X00868730D01*
Y01210470D01*
D02*
G37*
G36*
X00856270D02*
Y01206270D01*
X00860470D01*
X00859697Y01208138D01*
X00858138Y01209697D01*
X00856270Y01210470D01*
D02*
G37*
G36*
X00853730D02*
X00851862Y01209697D01*
X00850303Y01208138D01*
X00849530Y01206270D01*
X00853730D01*
Y01210470D01*
D02*
G37*
G36*
X00666270D02*
Y01206270D01*
X00670470D01*
X00669697Y01208138D01*
X00668138Y01209697D01*
X00666270Y01210470D01*
D02*
G37*
G36*
X00663730D02*
X00661862Y01209697D01*
X00660303Y01208138D01*
X00659530Y01206270D01*
X00663730D01*
Y01210470D01*
D02*
G37*
G36*
X00651270D02*
Y01206270D01*
X00655470D01*
X00654697Y01208138D01*
X00653138Y01209697D01*
X00651270Y01210470D01*
D02*
G37*
G36*
X00648730D02*
X00646862Y01209697D01*
X00645303Y01208138D01*
X00644530Y01206270D01*
X00648730D01*
Y01210470D01*
D02*
G37*
G36*
X00636270D02*
Y01206270D01*
X00640470D01*
X00639697Y01208138D01*
X00638138Y01209697D01*
X00636270Y01210470D01*
D02*
G37*
G36*
X00633730D02*
X00631862Y01209697D01*
X00630303Y01208138D01*
X00629530Y01206270D01*
X00633730D01*
Y01210470D01*
D02*
G37*
G36*
X00621270D02*
Y01206270D01*
X00625470D01*
X00624697Y01208138D01*
X00623138Y01209697D01*
X00621270Y01210470D01*
D02*
G37*
G36*
X00618730D02*
X00616862Y01209697D01*
X00615303Y01208138D01*
X00614530Y01206270D01*
X00618730D01*
Y01210470D01*
D02*
G37*
G36*
X00606270D02*
Y01206270D01*
X00610470D01*
X00609697Y01208138D01*
X00608138Y01209697D01*
X00606270Y01210470D01*
D02*
G37*
G36*
X00603730D02*
X00601862Y01209697D01*
X00600303Y01208138D01*
X00599530Y01206270D01*
X00603730D01*
Y01210470D01*
D02*
G37*
G36*
X00920470Y01203730D02*
X00916270D01*
Y01199530D01*
X00918138Y01200303D01*
X00919697Y01201862D01*
X00920470Y01203730D01*
D02*
G37*
G36*
X00913730D02*
X00909530D01*
X00910303Y01201862D01*
X00911862Y01200303D01*
X00913730Y01199530D01*
Y01203730D01*
D02*
G37*
G36*
X00905470D02*
X00901270D01*
Y01199530D01*
X00903138Y01200303D01*
X00904697Y01201862D01*
X00905470Y01203730D01*
D02*
G37*
G36*
X00898730D02*
X00894530D01*
X00895303Y01201862D01*
X00896862Y01200303D01*
X00898730Y01199530D01*
Y01203730D01*
D02*
G37*
G36*
X00890470D02*
X00886270D01*
Y01199530D01*
X00888138Y01200303D01*
X00889697Y01201862D01*
X00890470Y01203730D01*
D02*
G37*
G36*
X00883730D02*
X00879530D01*
X00880303Y01201862D01*
X00881862Y01200303D01*
X00883730Y01199530D01*
Y01203730D01*
D02*
G37*
G36*
X00875470D02*
X00871270D01*
Y01199530D01*
X00873138Y01200303D01*
X00874697Y01201862D01*
X00875470Y01203730D01*
D02*
G37*
G36*
X00868730D02*
X00864530D01*
X00865303Y01201862D01*
X00866862Y01200303D01*
X00868730Y01199530D01*
Y01203730D01*
D02*
G37*
G36*
X00860470D02*
X00856270D01*
Y01199530D01*
X00858138Y01200303D01*
X00859697Y01201862D01*
X00860470Y01203730D01*
D02*
G37*
G36*
X00853730D02*
X00849530D01*
X00850303Y01201862D01*
X00851862Y01200303D01*
X00853730Y01199530D01*
Y01203730D01*
D02*
G37*
G36*
X00670470D02*
X00666270D01*
Y01199530D01*
X00668138Y01200303D01*
X00669697Y01201862D01*
X00670470Y01203730D01*
D02*
G37*
G36*
X00663730D02*
X00659530D01*
X00660303Y01201862D01*
X00661862Y01200303D01*
X00663730Y01199530D01*
Y01203730D01*
D02*
G37*
G36*
X00655470D02*
X00651270D01*
Y01199530D01*
X00653138Y01200303D01*
X00654697Y01201862D01*
X00655470Y01203730D01*
D02*
G37*
G36*
X00648730D02*
X00644530D01*
X00645303Y01201862D01*
X00646862Y01200303D01*
X00648730Y01199530D01*
Y01203730D01*
D02*
G37*
G36*
X00640470D02*
X00636270D01*
Y01199530D01*
X00638138Y01200303D01*
X00639697Y01201862D01*
X00640470Y01203730D01*
D02*
G37*
G36*
X00633730D02*
X00629530D01*
X00630303Y01201862D01*
X00631862Y01200303D01*
X00633730Y01199530D01*
Y01203730D01*
D02*
G37*
G36*
X00625470D02*
X00621270D01*
Y01199530D01*
X00623138Y01200303D01*
X00624697Y01201862D01*
X00625470Y01203730D01*
D02*
G37*
G36*
X00618730D02*
X00614530D01*
X00615303Y01201862D01*
X00616862Y01200303D01*
X00618730Y01199530D01*
Y01203730D01*
D02*
G37*
G36*
X00610470D02*
X00606270D01*
Y01199530D01*
X00608138Y01200303D01*
X00609697Y01201862D01*
X00610470Y01203730D01*
D02*
G37*
G36*
X00603730D02*
X00599530D01*
X00600303Y01201862D01*
X00601862Y01200303D01*
X00603730Y01199530D01*
Y01203730D01*
D02*
G37*
G36*
X00767500Y01134393D02*
X00732500D01*
X00730054Y01133906D01*
X00727980Y01132520D01*
X00726594Y01130446D01*
X00726107Y01128000D01*
Y01118000D01*
X00726594Y01115554D01*
X00727980Y01113480D01*
X00730054Y01112094D01*
X00732500Y01111607D01*
X00767500D01*
X00769946Y01112094D01*
X00772020Y01113480D01*
X00773406Y01115554D01*
X00773893Y01118000D01*
Y01128000D01*
X00773406Y01130446D01*
X00772020Y01132520D01*
X00769946Y01133906D01*
X00767500Y01134393D01*
D02*
G37*
G36*
Y01194393D02*
X00732500D01*
X00730054Y01193906D01*
X00727980Y01192520D01*
X00726594Y01190446D01*
X00726107Y01188000D01*
Y01178000D01*
X00726594Y01175554D01*
X00727980Y01173480D01*
X00730054Y01172094D01*
X00732500Y01171607D01*
X00747410D01*
Y01163500D01*
X00747607Y01162509D01*
X00748169Y01161669D01*
X00760669Y01149169D01*
X00761509Y01148607D01*
X00762500Y01148410D01*
X00786607D01*
Y01130500D01*
X00787094Y01128054D01*
X00788480Y01125980D01*
X00790554Y01124594D01*
X00793000Y01124107D01*
X00795160D01*
Y01099573D01*
X00793177Y01097590D01*
X00783770D01*
Y01104770D01*
X00756230D01*
Y01085230D01*
X00783770D01*
Y01092410D01*
X00794250D01*
X00795241Y01092607D01*
X00796081Y01093169D01*
X00799581Y01096669D01*
X00800143Y01097509D01*
X00800340Y01098500D01*
Y01124107D01*
X00803000D01*
X00805446Y01124594D01*
X00807520Y01125980D01*
X00808906Y01128054D01*
X00809393Y01130500D01*
Y01165500D01*
X00808906Y01167946D01*
X00807520Y01170020D01*
X00805446Y01171406D01*
X00803000Y01171893D01*
X00793000D01*
X00790554Y01171406D01*
X00788480Y01170020D01*
X00787094Y01167946D01*
X00786607Y01165500D01*
Y01153590D01*
X00763573D01*
X00752590Y01164573D01*
Y01171607D01*
X00767500D01*
X00769946Y01172094D01*
X00772020Y01173480D01*
X00773406Y01175554D01*
X00773893Y01178000D01*
Y01188000D01*
X00773406Y01190446D01*
X00772020Y01192520D01*
X00769946Y01193906D01*
X00767500Y01194393D01*
D02*
G37*
G36*
X00960270Y01121270D02*
X00927730D01*
Y01088730D01*
X00960270D01*
Y01121270D01*
D02*
G37*
G36*
X00872270D02*
X00839730D01*
Y01088730D01*
X00872270D01*
Y01121270D01*
D02*
G37*
G36*
X00660270D02*
X00627730D01*
Y01088730D01*
X00660270D01*
Y01121270D01*
D02*
G37*
G36*
X00572270D02*
X00539730D01*
Y01088730D01*
X00572270D01*
Y01121270D01*
D02*
G37*
G36*
X00743770Y01104770D02*
X00716230D01*
Y01085230D01*
X00727410D01*
Y01077770D01*
X00722730D01*
Y01076090D01*
X00716020D01*
Y01077770D01*
X00704480D01*
Y01076090D01*
X00701020D01*
Y01077770D01*
X00689480D01*
Y01069230D01*
X00701020D01*
Y01070910D01*
X00704480D01*
Y01069230D01*
X00716020D01*
Y01070910D01*
X00722730D01*
Y01061230D01*
X00727410D01*
Y01056449D01*
X00726380Y01055419D01*
X00725730Y01053849D01*
Y01052151D01*
X00726380Y01050581D01*
X00727581Y01049380D01*
X00729151Y01048730D01*
X00730849D01*
X00732419Y01049380D01*
X00733620Y01050581D01*
X00734270Y01052151D01*
Y01053849D01*
X00733620Y01055419D01*
X00732590Y01056449D01*
Y01061230D01*
X00737270D01*
Y01077770D01*
X00732590D01*
Y01085230D01*
X00743770D01*
Y01104770D01*
D02*
G37*
G36*
X00802540Y01075040D02*
X00796770D01*
Y01070770D01*
X00802540D01*
Y01075040D01*
D02*
G37*
G36*
Y01068230D02*
X00796770D01*
Y01063960D01*
X00802540D01*
Y01068230D01*
D02*
G37*
G36*
X00794230D02*
X00788460D01*
Y01063960D01*
X00794230D01*
Y01068230D01*
D02*
G37*
G36*
X00676099Y01074020D02*
X00674401D01*
X00672831Y01073370D01*
X00671801Y01072340D01*
X00564500D01*
X00563509Y01072143D01*
X00562669Y01071581D01*
X00547669Y01056581D01*
X00547107Y01055741D01*
X00546910Y01054750D01*
Y01026750D01*
X00547107Y01025759D01*
X00547669Y01024919D01*
X00589160Y00983427D01*
Y00910000D01*
X00589357Y00909009D01*
X00589919Y00908169D01*
X00607730Y00890358D01*
Y00888901D01*
X00608380Y00887331D01*
X00609581Y00886130D01*
X00611151Y00885480D01*
X00612849D01*
X00614419Y00886130D01*
X00615620Y00887331D01*
X00616270Y00888901D01*
Y00890599D01*
X00615620Y00892169D01*
X00614419Y00893370D01*
X00612849Y00894020D01*
X00611393D01*
X00594340Y00911073D01*
Y00984500D01*
X00594143Y00985491D01*
X00593581Y00986331D01*
X00552090Y01027823D01*
Y01053677D01*
X00565573Y01067160D01*
X00671801D01*
X00672660Y01066301D01*
Y01062832D01*
X00672857Y01061841D01*
X00673419Y01061000D01*
X00677750Y01056669D01*
X00678591Y01056107D01*
X00679582Y01055910D01*
X00689480D01*
Y01054230D01*
X00692660D01*
Y01052073D01*
X00688927Y01048340D01*
X00649449D01*
X00648419Y01049370D01*
X00646849Y01050020D01*
X00645151D01*
X00643581Y01049370D01*
X00642380Y01048169D01*
X00641730Y01046599D01*
Y01044901D01*
X00642380Y01043331D01*
X00643581Y01042130D01*
X00645151Y01041480D01*
X00646849D01*
X00648419Y01042130D01*
X00649449Y01043160D01*
X00690000D01*
X00690991Y01043357D01*
X00691831Y01043919D01*
X00697081Y01049169D01*
X00697643Y01050009D01*
X00697840Y01051000D01*
Y01054230D01*
X00701020D01*
Y01055910D01*
X00704480D01*
Y01054230D01*
X00716020D01*
Y01062770D01*
X00704480D01*
Y01061090D01*
X00701020D01*
Y01062770D01*
X00689480D01*
Y01061090D01*
X00680654D01*
X00677840Y01063904D01*
Y01066301D01*
X00678870Y01067331D01*
X00679520Y01068901D01*
Y01070599D01*
X00678870Y01072169D01*
X00677669Y01073370D01*
X00676099Y01074020D01*
D02*
G37*
G36*
X00876519Y01046540D02*
X00876270D01*
Y01036270D01*
X00886540D01*
Y01036519D01*
X00885753Y01039454D01*
X00884234Y01042086D01*
X00882086Y01044234D01*
X00879454Y01045753D01*
X00876519Y01046540D01*
D02*
G37*
G36*
X00873730D02*
X00873481D01*
X00870546Y01045753D01*
X00867914Y01044234D01*
X00865766Y01042086D01*
X00864247Y01039454D01*
X00863460Y01036519D01*
Y01036270D01*
X00873730D01*
Y01046540D01*
D02*
G37*
G36*
X00576519D02*
X00576270D01*
Y01036270D01*
X00586540D01*
Y01036519D01*
X00585754Y01039454D01*
X00584234Y01042086D01*
X00582086Y01044234D01*
X00579454Y01045753D01*
X00576519Y01046540D01*
D02*
G37*
G36*
X00573730D02*
X00573481D01*
X00570546Y01045753D01*
X00567914Y01044234D01*
X00565766Y01042086D01*
X00564246Y01039454D01*
X00563460Y01036519D01*
Y01036270D01*
X00573730D01*
Y01046540D01*
D02*
G37*
G36*
X00760270Y01077770D02*
X00745730D01*
Y01061230D01*
X00747746D01*
X00748135Y01059960D01*
X00725765Y01037590D01*
X00634938D01*
X00634570Y01038964D01*
X00633218Y01041306D01*
X00631306Y01043218D01*
X00628964Y01044570D01*
X00626352Y01045270D01*
X00623648D01*
X00621036Y01044570D01*
X00618694Y01043218D01*
X00616782Y01041306D01*
X00615430Y01038964D01*
X00614730Y01036352D01*
Y01033648D01*
X00615430Y01031036D01*
X00616782Y01028694D01*
X00618694Y01026782D01*
X00621036Y01025430D01*
X00623648Y01024730D01*
X00626352D01*
X00628964Y01025430D01*
X00631306Y01026782D01*
X00633218Y01028694D01*
X00634570Y01031036D01*
X00634938Y01032410D01*
X00726837D01*
X00727828Y01032607D01*
X00728669Y01033169D01*
X00751458Y01055958D01*
X00752764Y01055468D01*
X00752857Y01054997D01*
X00753419Y01054157D01*
X00754907Y01052669D01*
X00755747Y01052107D01*
X00756738Y01051910D01*
X00789730D01*
Y01050230D01*
X00801270D01*
Y01051910D01*
X00904427D01*
X00916141Y01040196D01*
X00915430Y01038964D01*
X00914730Y01036352D01*
Y01033648D01*
X00915430Y01031036D01*
X00916782Y01028694D01*
X00918694Y01026782D01*
X00921036Y01025430D01*
X00923648Y01024730D01*
X00926352D01*
X00928964Y01025430D01*
X00931306Y01026782D01*
X00933218Y01028694D01*
X00934570Y01031036D01*
X00935270Y01033648D01*
Y01036352D01*
X00934570Y01038964D01*
X00933218Y01041306D01*
X00931306Y01043218D01*
X00928964Y01044570D01*
X00926352Y01045270D01*
X00923648D01*
X00921036Y01044570D01*
X00919804Y01043859D01*
X00907331Y01056331D01*
X00906491Y01056893D01*
X00905500Y01057090D01*
X00801270D01*
Y01058770D01*
X00789730D01*
Y01057090D01*
X00757840D01*
Y01061230D01*
X00760270D01*
Y01077770D01*
D02*
G37*
G36*
X00886540Y01033730D02*
X00876270D01*
Y01023460D01*
X00876519D01*
X00879454Y01024246D01*
X00882086Y01025766D01*
X00884234Y01027914D01*
X00885753Y01030546D01*
X00886540Y01033481D01*
Y01033730D01*
D02*
G37*
G36*
X00873730D02*
X00863460D01*
Y01033481D01*
X00864247Y01030546D01*
X00865766Y01027914D01*
X00867914Y01025766D01*
X00870546Y01024246D01*
X00873481Y01023460D01*
X00873730D01*
Y01033730D01*
D02*
G37*
G36*
X00586540D02*
X00576270D01*
Y01023460D01*
X00576519D01*
X00579454Y01024246D01*
X00582086Y01025766D01*
X00584234Y01027914D01*
X00585754Y01030546D01*
X00586540Y01033481D01*
Y01033730D01*
D02*
G37*
G36*
X00573730D02*
X00563460D01*
Y01033481D01*
X00564246Y01030546D01*
X00565766Y01027914D01*
X00567914Y01025766D01*
X00570546Y01024246D01*
X00573481Y01023460D01*
X00573730D01*
Y01033730D01*
D02*
G37*
G36*
X00836849Y01025770D02*
X00835151D01*
X00833581Y01025120D01*
X00832380Y01023919D01*
X00832183Y01023442D01*
X00787000D01*
X00787000Y01023442D01*
X00786257Y01023294D01*
X00785627Y01022873D01*
X00777752Y01014998D01*
X00777330Y01014368D01*
X00777183Y01013625D01*
Y00984679D01*
X00759120Y00966617D01*
X00731675D01*
X00730932Y00966469D01*
X00730302Y00966048D01*
X00730302Y00966048D01*
X00709116Y00944863D01*
X00707942Y00945349D01*
Y00949696D01*
X00721174Y00962927D01*
X00721651Y00962730D01*
X00723349D01*
X00724919Y00963380D01*
X00726120Y00964581D01*
X00726770Y00966151D01*
Y00967849D01*
X00726120Y00969419D01*
X00724919Y00970620D01*
X00723349Y00971270D01*
X00721651D01*
X00720081Y00970620D01*
X00718880Y00969419D01*
X00718230Y00967849D01*
Y00966151D01*
X00718427Y00965674D01*
X00706576Y00953822D01*
X00705402Y00954308D01*
Y00961656D01*
X00722305Y00978558D01*
X00748433D01*
X00748630Y00978081D01*
X00749831Y00976880D01*
X00751401Y00976230D01*
X00753099D01*
X00754669Y00976880D01*
X00755870Y00978081D01*
X00756520Y00979651D01*
Y00981349D01*
X00755870Y00982919D01*
X00754669Y00984120D01*
X00753099Y00984770D01*
X00751401D01*
X00749831Y00984120D01*
X00748630Y00982919D01*
X00748433Y00982442D01*
X00721500D01*
X00720757Y00982294D01*
X00720127Y00981873D01*
X00720126Y00981873D01*
X00702087Y00963833D01*
X00701666Y00963203D01*
X00701518Y00962460D01*
Y00658015D01*
X00683445Y00639942D01*
X00576500D01*
X00576500Y00639942D01*
X00575757Y00639795D01*
X00575127Y00639373D01*
X00564627Y00628873D01*
X00564206Y00628243D01*
X00564058Y00627500D01*
Y00546305D01*
X00517377Y00499623D01*
X00516955Y00498993D01*
X00516808Y00498250D01*
Y00412750D01*
X00516955Y00412007D01*
X00517377Y00411377D01*
X00533127Y00395627D01*
X00533757Y00395205D01*
X00534500Y00395058D01*
X00564249D01*
X00564951Y00391525D01*
X00566366Y00388109D01*
X00568420Y00385035D01*
X00571035Y00382420D01*
X00574109Y00380366D01*
X00577525Y00378951D01*
X00581151Y00378230D01*
X00584849D01*
X00588475Y00378951D01*
X00591891Y00380366D01*
X00594965Y00382420D01*
X00597580Y00385035D01*
X00599634Y00388109D01*
X00601049Y00391525D01*
X00601770Y00395151D01*
Y00398849D01*
X00601049Y00402475D01*
X00599634Y00405891D01*
X00597580Y00408965D01*
X00594965Y00411580D01*
X00591891Y00413634D01*
X00588475Y00415049D01*
X00584849Y00415770D01*
X00581151D01*
X00577525Y00415049D01*
X00574109Y00413634D01*
X00571035Y00411580D01*
X00568420Y00408965D01*
X00566366Y00405891D01*
X00564951Y00402475D01*
X00564249Y00398942D01*
X00535304D01*
X00520692Y00413554D01*
Y00497445D01*
X00567373Y00544127D01*
X00567373Y00544127D01*
X00567794Y00544757D01*
X00567942Y00545500D01*
Y00626696D01*
X00577304Y00636058D01*
X00684250D01*
X00684993Y00636205D01*
X00685623Y00636627D01*
X00702884Y00653887D01*
X00704058Y00653401D01*
Y00645270D01*
X00700230D01*
Y00636730D01*
X00711770D01*
Y00645270D01*
X00707942D01*
Y00662902D01*
X00709116Y00663388D01*
X00720558Y00651945D01*
Y00644320D01*
X00715230D01*
Y00633780D01*
X00729770D01*
Y00644320D01*
X00724442D01*
Y00652750D01*
X00724295Y00653493D01*
X00723873Y00654124D01*
X00710772Y00667225D01*
Y00941025D01*
X00732479Y00962733D01*
X00759925D01*
X00760668Y00962880D01*
X00761298Y00963302D01*
X00780498Y00982502D01*
X00780498Y00982502D01*
X00780919Y00983132D01*
X00781067Y00983875D01*
X00781067Y00983875D01*
Y01012820D01*
X00787804Y01019558D01*
X00832183D01*
X00832380Y01019081D01*
X00833581Y01017880D01*
X00835151Y01017230D01*
X00836849D01*
X00838419Y01017880D01*
X00839620Y01019081D01*
X00840270Y01020651D01*
Y01022349D01*
X00839620Y01023919D01*
X00838419Y01025120D01*
X00836849Y01025770D01*
D02*
G37*
G36*
X00771770Y01015770D02*
X00734230D01*
Y00999230D01*
X00771770D01*
Y01015770D01*
D02*
G37*
G36*
X00796599Y01087520D02*
X00794901D01*
X00793331Y01086870D01*
X00792130Y01085669D01*
X00791480Y01084099D01*
Y01082643D01*
X00786657Y01077820D01*
X00780730D01*
X00780480Y01077770D01*
X00768730D01*
Y01061230D01*
X00783270D01*
Y01072640D01*
X00787730D01*
X00788460Y01072041D01*
Y01070770D01*
X00794230D01*
Y01075040D01*
X00792862D01*
X00792376Y01076213D01*
X00795143Y01078980D01*
X00796599D01*
X00798169Y01079630D01*
X00799199Y01080660D01*
X00938177D01*
X00965660Y01053177D01*
Y00996949D01*
X00964630Y00995919D01*
X00963980Y00994349D01*
Y00992651D01*
X00964630Y00991081D01*
X00965831Y00989880D01*
X00967401Y00989230D01*
X00969099D01*
X00970669Y00989880D01*
X00971870Y00991081D01*
X00972520Y00992651D01*
Y00994349D01*
X00971870Y00995919D01*
X00970840Y00996949D01*
Y01054250D01*
X00970643Y01055241D01*
X00970081Y01056081D01*
X00941081Y01085081D01*
X00940241Y01085643D01*
X00939250Y01085840D01*
X00799199D01*
X00798169Y01086870D01*
X00796599Y01087520D01*
D02*
G37*
G36*
X00555349Y00978520D02*
X00553651D01*
X00552081Y00977870D01*
X00551051Y00976840D01*
X00528500D01*
X00527509Y00976643D01*
X00526669Y00976081D01*
X00518169Y00967581D01*
X00517607Y00966741D01*
X00517410Y00965750D01*
Y00886270D01*
X00514230D01*
Y00877730D01*
X00525770D01*
Y00886270D01*
X00522590D01*
Y00964677D01*
X00529573Y00971660D01*
X00551051D01*
X00552081Y00970630D01*
X00553651Y00969980D01*
X00555349D01*
X00556919Y00970630D01*
X00558120Y00971831D01*
X00558770Y00973401D01*
Y00975099D01*
X00558120Y00976669D01*
X00556919Y00977870D01*
X00555349Y00978520D01*
D02*
G37*
G36*
X00592448Y01240732D02*
X00591705Y01240584D01*
X00591074Y01240163D01*
X00591074Y01240163D01*
X00498627Y01147716D01*
X00498205Y01147085D01*
X00498058Y01146342D01*
Y01000750D01*
X00498205Y01000007D01*
X00498627Y00999377D01*
X00512627Y00985377D01*
X00513257Y00984956D01*
X00514000Y00984808D01*
X00563195D01*
X00579308Y00968696D01*
Y00904555D01*
X00552627Y00877874D01*
X00552206Y00877243D01*
X00552058Y00876500D01*
Y00858250D01*
X00552206Y00857507D01*
X00552627Y00856877D01*
X00569127Y00840377D01*
X00569757Y00839956D01*
X00570500Y00839808D01*
X00630750D01*
X00631493Y00839956D01*
X00632123Y00840377D01*
X00647123Y00855377D01*
X00647544Y00856007D01*
X00647692Y00856750D01*
Y00889250D01*
X00647692Y00889250D01*
X00647544Y00889993D01*
X00647123Y00890623D01*
X00647123Y00890623D01*
X00601942Y00935805D01*
Y01024888D01*
X00603964Y01025430D01*
X00606306Y01026782D01*
X00608218Y01028694D01*
X00609570Y01031036D01*
X00610270Y01033648D01*
Y01036352D01*
X00609570Y01038964D01*
X00608218Y01041306D01*
X00606306Y01043218D01*
X00603964Y01044570D01*
X00601352Y01045270D01*
X00598648D01*
X00596036Y01044570D01*
X00593694Y01043218D01*
X00591782Y01041306D01*
X00590430Y01038964D01*
X00589730Y01036352D01*
Y01033648D01*
X00590430Y01031036D01*
X00591782Y01028694D01*
X00593694Y01026782D01*
X00596036Y01025430D01*
X00598058Y01024888D01*
Y00935000D01*
X00598205Y00934257D01*
X00598627Y00933627D01*
X00643808Y00888446D01*
Y00857554D01*
X00629945Y00843692D01*
X00571305D01*
X00555942Y00859055D01*
Y00875695D01*
X00581134Y00900888D01*
X00582308Y00900402D01*
Y00900000D01*
X00582455Y00899257D01*
X00582877Y00898627D01*
X00598058Y00883446D01*
Y00875112D01*
X00596036Y00874570D01*
X00593694Y00873218D01*
X00591782Y00871306D01*
X00590430Y00868964D01*
X00589730Y00866352D01*
Y00863648D01*
X00590430Y00861036D01*
X00591782Y00858694D01*
X00593694Y00856782D01*
X00596036Y00855430D01*
X00598648Y00854730D01*
X00601352D01*
X00603964Y00855430D01*
X00606306Y00856782D01*
X00608218Y00858694D01*
X00609570Y00861036D01*
X00610270Y00863648D01*
Y00866352D01*
X00609570Y00868964D01*
X00608218Y00871306D01*
X00606306Y00873218D01*
X00603964Y00874570D01*
X00601942Y00875112D01*
Y00884250D01*
X00601795Y00884993D01*
X00601373Y00885623D01*
X00586192Y00900805D01*
Y00970092D01*
X00586044Y00970835D01*
X00585623Y00971466D01*
X00566426Y00990663D01*
X00565795Y00991085D01*
X00565052Y00991232D01*
X00515857D01*
X00504482Y01002607D01*
Y01144485D01*
X00594305Y01234308D01*
X00907353D01*
X00988848Y01152813D01*
Y00960901D01*
X00987674Y00960415D01*
X00955966Y00992123D01*
X00955335Y00992544D01*
X00954592Y00992692D01*
X00910805D01*
X00902442Y01001055D01*
Y01025022D01*
X00903964Y01025430D01*
X00906306Y01026782D01*
X00908218Y01028694D01*
X00909570Y01031036D01*
X00910270Y01033648D01*
Y01036352D01*
X00909570Y01038964D01*
X00908218Y01041306D01*
X00906306Y01043218D01*
X00903964Y01044570D01*
X00901352Y01045270D01*
X00898648D01*
X00896036Y01044570D01*
X00893694Y01043218D01*
X00891782Y01041306D01*
X00890430Y01038964D01*
X00889730Y01036352D01*
Y01033648D01*
X00890430Y01031036D01*
X00891782Y01028694D01*
X00893694Y01026782D01*
X00896036Y01025430D01*
X00898558Y01024754D01*
Y01000250D01*
X00898706Y00999507D01*
X00899127Y00998877D01*
X00906677Y00991326D01*
X00906191Y00990152D01*
X00862095D01*
X00856192Y00996055D01*
Y01034750D01*
X00856192Y01034750D01*
X00856044Y01035493D01*
X00855623Y01036123D01*
X00855623Y01036124D01*
X00852123Y01039623D01*
X00851493Y01040044D01*
X00850750Y01040192D01*
X00749214D01*
X00749120Y01040419D01*
X00747919Y01041620D01*
X00746349Y01042270D01*
X00744651D01*
X00743081Y01041620D01*
X00741880Y01040419D01*
X00741230Y01038849D01*
Y01037151D01*
X00741880Y01035581D01*
X00743081Y01034380D01*
X00744651Y01033730D01*
X00746349D01*
X00747919Y01034380D01*
X00749120Y01035581D01*
X00749421Y01036308D01*
X00849946D01*
X00852308Y01033945D01*
Y00995250D01*
X00852456Y00994507D01*
X00852877Y00993877D01*
X00859917Y00986837D01*
X00860547Y00986415D01*
X00861290Y00986268D01*
X00952736D01*
X00983768Y00955236D01*
Y00834015D01*
X00964945Y00815192D01*
X00930520D01*
Y00817520D01*
X00918980D01*
Y00808980D01*
X00930520D01*
Y00811308D01*
X00965750D01*
X00966493Y00811456D01*
X00967123Y00811877D01*
X00985134Y00829887D01*
X00986308Y00829401D01*
Y00823555D01*
X00944695Y00781942D01*
X00794816D01*
X00794072Y00781794D01*
X00793442Y00781373D01*
X00793442Y00781373D01*
X00784627Y00772558D01*
X00784205Y00771927D01*
X00784058Y00771184D01*
Y00730000D01*
X00784205Y00729257D01*
X00784627Y00728627D01*
X00797626Y00715627D01*
X00797627Y00715627D01*
X00798257Y00715206D01*
X00799000Y00715058D01*
X00818696D01*
X00822808Y00710945D01*
Y00707668D01*
X00821910Y00706770D01*
X00820460Y00706770D01*
X00815230D01*
Y00690730D01*
X00820460D01*
X00821270Y00690730D01*
X00822540Y00690730D01*
X00827770D01*
Y00690730D01*
X00828230D01*
Y00690730D01*
X00834270D01*
Y00690730D01*
X00834730D01*
Y00690730D01*
X00839960D01*
X00840770Y00690730D01*
X00841410D01*
X00842308Y00689832D01*
Y00669000D01*
X00842456Y00668257D01*
X00842877Y00667627D01*
X00845310Y00665193D01*
X00845016Y00664446D01*
X00844687Y00664020D01*
X00843151D01*
X00841581Y00663370D01*
X00840962Y00662751D01*
X00839692Y00663277D01*
Y00672000D01*
X00839545Y00672743D01*
X00839123Y00673373D01*
X00831373Y00681123D01*
X00830743Y00681544D01*
X00830000Y00681692D01*
X00771000D01*
X00770257Y00681544D01*
X00769627Y00681123D01*
X00754377Y00665873D01*
X00753956Y00665243D01*
X00753808Y00664500D01*
Y00635250D01*
X00753956Y00634507D01*
X00754377Y00633877D01*
X00763277Y00624977D01*
X00763277Y00624977D01*
X00763907Y00624556D01*
X00764650Y00624408D01*
X00764650Y00624408D01*
X00770230D01*
Y00621080D01*
X00784770D01*
Y00631240D01*
X00784770Y00631620D01*
X00785671Y00632510D01*
X00786040D01*
Y00637780D01*
X00777500D01*
X00768960D01*
Y00632510D01*
X00769329D01*
X00770230Y00631620D01*
X00770230Y00631240D01*
Y00628292D01*
X00765454D01*
X00757692Y00636054D01*
Y00663696D01*
X00771805Y00677808D01*
X00829195D01*
X00835808Y00671196D01*
Y00650168D01*
X00834910Y00649270D01*
X00833460Y00649270D01*
X00829040D01*
X00828230Y00649270D01*
X00827590D01*
X00826692Y00650168D01*
Y00657750D01*
X00826692Y00657750D01*
X00826544Y00658493D01*
X00826123Y00659123D01*
X00826123Y00659123D01*
X00824123Y00661123D01*
X00823493Y00661544D01*
X00822750Y00661692D01*
X00801750D01*
X00801007Y00661544D01*
X00800377Y00661123D01*
X00795627Y00656373D01*
X00795206Y00655743D01*
X00795058Y00655000D01*
Y00618554D01*
X00792095Y00615592D01*
X00784770D01*
Y00618920D01*
X00770230D01*
Y00608380D01*
X00784770D01*
Y00611708D01*
X00792900D01*
X00793643Y00611856D01*
X00794273Y00612277D01*
X00798373Y00616377D01*
X00798794Y00617007D01*
X00798942Y00617750D01*
Y00654195D01*
X00802554Y00657808D01*
X00821945D01*
X00822808Y00656945D01*
Y00650168D01*
X00821910Y00649270D01*
X00820460Y00649270D01*
X00815230D01*
Y00643192D01*
X00810317D01*
X00810120Y00643669D01*
X00808919Y00644870D01*
X00807349Y00645520D01*
X00805651D01*
X00804081Y00644870D01*
X00802880Y00643669D01*
X00802230Y00642099D01*
Y00640401D01*
X00802880Y00638831D01*
X00804081Y00637630D01*
X00805651Y00636980D01*
X00807349D01*
X00808919Y00637630D01*
X00810120Y00638831D01*
X00810317Y00639308D01*
X00815230D01*
Y00633230D01*
X00820460D01*
X00821270Y00633230D01*
X00822540Y00633230D01*
X00826960D01*
X00827770Y00633230D01*
X00828410D01*
X00829308Y00632332D01*
Y00628554D01*
X00824195Y00623442D01*
X00812750D01*
X00812750Y00623442D01*
X00812007Y00623294D01*
X00811377Y00622873D01*
X00811376Y00622873D01*
X00791395Y00602892D01*
X00784487D01*
X00784464Y00603006D01*
X00783299Y00604749D01*
X00781556Y00605914D01*
X00779500Y00606323D01*
X00775500D01*
X00773444Y00605914D01*
X00771701Y00604749D01*
X00770536Y00603006D01*
X00770127Y00600950D01*
X00770536Y00598894D01*
X00771701Y00597150D01*
X00773444Y00595986D01*
X00775500Y00595577D01*
X00779500D01*
X00781556Y00595986D01*
X00783299Y00597150D01*
X00784464Y00598894D01*
X00784487Y00599008D01*
X00792200D01*
X00792943Y00599156D01*
X00793573Y00599577D01*
X00813555Y00619558D01*
X00817068D01*
X00817650Y00618382D01*
X00817635Y00618288D01*
X00817075Y00617913D01*
X00817074Y00617913D01*
X00810127Y00610965D01*
X00809706Y00610335D01*
X00809558Y00609592D01*
Y00559250D01*
X00809706Y00558507D01*
X00810127Y00557877D01*
X00827758Y00540246D01*
Y00496433D01*
X00826269Y00496034D01*
X00824241Y00494864D01*
X00822586Y00493209D01*
X00821416Y00491181D01*
X00820810Y00488920D01*
Y00486580D01*
X00821416Y00484319D01*
X00822586Y00482291D01*
X00824241Y00480636D01*
X00826269Y00479466D01*
X00828530Y00478860D01*
X00830870D01*
X00833131Y00479466D01*
X00835159Y00480636D01*
X00836814Y00482291D01*
X00837984Y00484319D01*
X00838590Y00486580D01*
Y00488920D01*
X00837984Y00491181D01*
X00836814Y00493209D01*
X00835159Y00494864D01*
X00833131Y00496034D01*
X00831642Y00496433D01*
Y00538294D01*
X00832816Y00538780D01*
X00842558Y00529038D01*
Y00477555D01*
X00837695Y00472692D01*
X00808305D01*
X00806242Y00474754D01*
Y00479067D01*
X00807731Y00479466D01*
X00809759Y00480636D01*
X00811414Y00482291D01*
X00812584Y00484319D01*
X00813190Y00486580D01*
Y00488920D01*
X00812584Y00491181D01*
X00811414Y00493209D01*
X00809759Y00494864D01*
X00807731Y00496034D01*
X00805470Y00496640D01*
X00803130D01*
X00800869Y00496034D01*
X00798841Y00494864D01*
X00797186Y00493209D01*
X00796016Y00491181D01*
X00795410Y00488920D01*
Y00486580D01*
X00796016Y00484319D01*
X00797186Y00482291D01*
X00798841Y00480636D01*
X00800869Y00479466D01*
X00802358Y00479067D01*
Y00473950D01*
X00802506Y00473207D01*
X00802927Y00472577D01*
X00806127Y00469377D01*
X00806757Y00468956D01*
X00807500Y00468808D01*
X00838500D01*
X00839243Y00468956D01*
X00839874Y00469377D01*
X00845873Y00475377D01*
X00846294Y00476007D01*
X00846442Y00476750D01*
Y00529842D01*
X00846294Y00530585D01*
X00845873Y00531216D01*
X00815982Y00561107D01*
Y00585342D01*
X00817252Y00585467D01*
X00817478Y00584334D01*
X00818421Y00582921D01*
X00819834Y00581978D01*
X00821500Y00581646D01*
X00839058D01*
Y00573270D01*
X00836230D01*
Y00561730D01*
X00838558D01*
Y00551750D01*
X00838706Y00551007D01*
X00839127Y00550377D01*
X00851558Y00537946D01*
Y00466554D01*
X00845195Y00460192D01*
X00728555D01*
X00709373Y00479373D01*
X00708743Y00479795D01*
X00708000Y00479942D01*
X00658000D01*
X00658000Y00479942D01*
X00657257Y00479795D01*
X00656627Y00479373D01*
X00641886Y00464633D01*
X00638891Y00466634D01*
X00635475Y00468049D01*
X00631849Y00468770D01*
X00628151D01*
X00624525Y00468049D01*
X00621109Y00466634D01*
X00618035Y00464580D01*
X00615420Y00461965D01*
X00613366Y00458891D01*
X00611951Y00455475D01*
X00611230Y00451849D01*
Y00448151D01*
X00611951Y00444525D01*
X00613366Y00441109D01*
X00615420Y00438035D01*
X00618035Y00435420D01*
X00621109Y00433366D01*
X00624525Y00431951D01*
X00628151Y00431230D01*
X00631849D01*
X00635475Y00431951D01*
X00638891Y00433366D01*
X00641965Y00435420D01*
X00644580Y00438035D01*
X00646634Y00441109D01*
X00648049Y00444525D01*
X00648770Y00448151D01*
Y00451849D01*
X00648049Y00455475D01*
X00646634Y00458891D01*
X00644633Y00461886D01*
X00658805Y00476058D01*
X00707195D01*
X00726376Y00456877D01*
X00726377Y00456877D01*
X00727007Y00456456D01*
X00727750Y00456308D01*
X00846000D01*
X00846743Y00456456D01*
X00847373Y00456877D01*
X00854873Y00464377D01*
X00855294Y00465007D01*
X00855442Y00465750D01*
Y00538750D01*
X00855294Y00539493D01*
X00854873Y00540123D01*
X00842442Y00552555D01*
Y00561730D01*
X00844770D01*
Y00573270D01*
X00842942D01*
Y00581646D01*
X00860500D01*
X00862166Y00581978D01*
X00863578Y00582921D01*
X00864522Y00584334D01*
X00864854Y00586000D01*
Y00592000D01*
X00864522Y00593666D01*
X00863578Y00595079D01*
X00862166Y00596022D01*
X00860500Y00596354D01*
X00821500D01*
X00819834Y00596022D01*
X00818421Y00595079D01*
X00817478Y00593666D01*
X00817252Y00592533D01*
X00815982Y00592658D01*
Y00607735D01*
X00820304Y00612058D01*
X00865000D01*
X00865743Y00612206D01*
X00866373Y00612627D01*
X00871623Y00617877D01*
X00872045Y00618507D01*
X00872192Y00619250D01*
Y00632332D01*
X00873090Y00633230D01*
X00874540Y00633230D01*
X00879770D01*
Y00649270D01*
X00874540D01*
X00873730Y00649270D01*
X00872460Y00649270D01*
X00867230D01*
Y00649270D01*
X00866770D01*
Y00649270D01*
X00861540D01*
X00860730Y00649270D01*
X00859460Y00649270D01*
X00855040D01*
X00854230Y00649270D01*
X00852960Y00649270D01*
X00848540D01*
X00847730Y00649270D01*
X00847090D01*
X00846192Y00650168D01*
Y00656036D01*
X00846419Y00656130D01*
X00847620Y00657331D01*
X00848270Y00658901D01*
Y00660599D01*
X00847620Y00662169D01*
X00847220Y00662569D01*
X00847350Y00663142D01*
X00847777Y00663808D01*
X00882195D01*
X00891308Y00654696D01*
Y00636750D01*
X00891456Y00636007D01*
X00891877Y00635377D01*
X00911627Y00615627D01*
X00911627Y00615627D01*
X00912257Y00615206D01*
X00912620Y00615133D01*
X00929308Y00598446D01*
Y00579305D01*
X00908945Y00558942D01*
X00872750D01*
X00872007Y00558795D01*
X00871377Y00558373D01*
X00858377Y00545373D01*
X00857955Y00544743D01*
X00857808Y00544000D01*
Y00459179D01*
X00843570Y00444942D01*
X00768500D01*
X00768500Y00444942D01*
X00767757Y00444795D01*
X00767127Y00444373D01*
X00740127Y00417373D01*
X00739706Y00416743D01*
X00739558Y00416000D01*
Y00336770D01*
X00735730D01*
Y00334442D01*
X00732270D01*
Y00336770D01*
X00720730D01*
Y00334442D01*
X00717270D01*
Y00340770D01*
X00696730D01*
Y00334442D01*
X00640270D01*
Y00340770D01*
X00619730D01*
Y00324230D01*
X00640270D01*
Y00330558D01*
X00696730D01*
Y00324230D01*
X00717270D01*
Y00330558D01*
X00720730D01*
Y00328230D01*
X00732270D01*
Y00330558D01*
X00735730D01*
Y00328230D01*
X00747270D01*
Y00336770D01*
X00743442D01*
Y00415196D01*
X00769305Y00441058D01*
X00844375D01*
X00845118Y00441205D01*
X00845748Y00441627D01*
X00861123Y00457002D01*
X00861544Y00457632D01*
X00861692Y00458375D01*
X00861692Y00458375D01*
Y00543195D01*
X00873555Y00555058D01*
X00909750D01*
X00910493Y00555205D01*
X00911124Y00555627D01*
X00932623Y00577127D01*
X00932623Y00577127D01*
X00933045Y00577757D01*
X00933192Y00578500D01*
X00933192Y00578500D01*
Y00599250D01*
X00933045Y00599993D01*
X00932623Y00600623D01*
X00914873Y00618373D01*
X00914243Y00618795D01*
X00913880Y00618867D01*
X00895192Y00637555D01*
Y00655500D01*
X00895044Y00656243D01*
X00894623Y00656873D01*
X00894623Y00656873D01*
X00884373Y00667123D01*
X00883743Y00667544D01*
X00883000Y00667692D01*
X00848305D01*
X00846192Y00669805D01*
Y00688301D01*
X00846460Y00689460D01*
X00849480D01*
Y00698750D01*
X00852020D01*
Y00689460D01*
X00854660D01*
Y00681000D01*
X00854857Y00680009D01*
X00855419Y00679169D01*
X00860169Y00674419D01*
X00861009Y00673857D01*
X00862000Y00673660D01*
X00908427D01*
X00921910Y00660177D01*
Y00655870D01*
X00914230D01*
Y00633330D01*
X00921910D01*
Y00619750D01*
X00922107Y00618759D01*
X00922669Y00617919D01*
X00934481Y00606107D01*
Y00574668D01*
X00930869Y00571056D01*
X00930307Y00570216D01*
X00930110Y00569225D01*
Y00508510D01*
X00929269Y00508284D01*
X00927241Y00507114D01*
X00925586Y00505459D01*
X00924416Y00503431D01*
X00923810Y00501170D01*
Y00498830D01*
X00924416Y00496569D01*
X00925586Y00494541D01*
X00927241Y00492886D01*
X00929269Y00491716D01*
X00931530Y00491110D01*
X00933870D01*
X00936131Y00491716D01*
X00938159Y00492886D01*
X00939814Y00494541D01*
X00940984Y00496569D01*
X00941590Y00498830D01*
Y00501170D01*
X00940984Y00503431D01*
X00939814Y00505459D01*
X00938159Y00507114D01*
X00936131Y00508284D01*
X00935290Y00508510D01*
Y00568152D01*
X00938902Y00571764D01*
X00939463Y00572604D01*
X00939660Y00573595D01*
Y00607180D01*
X00939463Y00608171D01*
X00938902Y00609011D01*
X00927090Y00620823D01*
Y00633330D01*
X00934770D01*
Y00642010D01*
X00944827D01*
X00948910Y00637927D01*
Y00624770D01*
X00947230D01*
Y00613230D01*
X00955770D01*
Y00624770D01*
X00954090D01*
Y00639000D01*
X00953893Y00639991D01*
X00953331Y00640831D01*
X00947731Y00646431D01*
X00946891Y00646993D01*
X00945900Y00647190D01*
X00934770D01*
Y00655870D01*
X00927090D01*
Y00661250D01*
X00926893Y00662241D01*
X00926331Y00663081D01*
X00911331Y00678081D01*
X00910491Y00678643D01*
X00909500Y00678840D01*
X00863073D01*
X00859840Y00682073D01*
Y00689829D01*
X00860730Y00690730D01*
X00861540Y00690730D01*
X00865960D01*
X00866770Y00690730D01*
X00868040Y00690730D01*
X00873270D01*
Y00691236D01*
X00874540Y00691622D01*
X00874573Y00691573D01*
X00875572Y00690905D01*
X00876750Y00690671D01*
X00877928Y00690905D01*
X00878927Y00691573D01*
X00879595Y00692572D01*
X00879829Y00693750D01*
Y00703750D01*
X00879595Y00704928D01*
X00878927Y00705927D01*
X00877928Y00706595D01*
X00876750Y00706829D01*
X00875572Y00706595D01*
X00874573Y00705927D01*
X00874540Y00705878D01*
X00873270Y00706264D01*
Y00706770D01*
X00872192D01*
Y00726195D01*
X00875304Y00729308D01*
X00919696D01*
X00922558Y00726445D01*
Y00706670D01*
X00914230D01*
Y00684130D01*
X00934770D01*
Y00706670D01*
X00926442D01*
Y00727250D01*
X00926294Y00727993D01*
X00925873Y00728624D01*
X00921873Y00732623D01*
X00921243Y00733045D01*
X00920500Y00733192D01*
X00874500D01*
X00873757Y00733045D01*
X00873127Y00732623D01*
X00873127Y00732623D01*
X00868877Y00728373D01*
X00868456Y00727743D01*
X00868308Y00727000D01*
Y00707668D01*
X00867410Y00706770D01*
X00865960Y00706770D01*
X00861776D01*
X00861097Y00708040D01*
X00861195Y00708187D01*
X00861392Y00709178D01*
Y00710230D01*
X00863520D01*
Y00721770D01*
X00861840D01*
Y00725230D01*
X00863520D01*
Y00736770D01*
X00854980D01*
Y00725230D01*
X00856660D01*
Y00721770D01*
X00854980D01*
Y00710230D01*
X00854980Y00710230D01*
X00854980D01*
X00854955Y00709019D01*
X00854241Y00708040D01*
X00850635D01*
X00849790Y00708960D01*
X00849790Y00709310D01*
Y00714730D01*
X00844250D01*
Y00717270D01*
X00849790D01*
Y00722690D01*
X00849790Y00723040D01*
Y00723960D01*
X00849790Y00724310D01*
Y00729730D01*
X00838710D01*
Y00724310D01*
X00838710Y00723960D01*
Y00723040D01*
X00838710Y00722690D01*
Y00719446D01*
X00837537Y00718960D01*
X00830373Y00726123D01*
X00829743Y00726544D01*
X00829000Y00726692D01*
X00799239D01*
X00793022Y00732909D01*
Y00768276D01*
X00797725Y00772978D01*
X00947604D01*
X00948347Y00773126D01*
X00948978Y00773547D01*
X00994703Y00819272D01*
X00995125Y00819902D01*
X00995272Y00820646D01*
Y01154670D01*
X00995125Y01155413D01*
X00994703Y01156043D01*
X00910583Y01240163D01*
X00909953Y01240584D01*
X00909210Y01240732D01*
X00592448D01*
X00592448Y01240732D01*
D02*
G37*
G36*
X00960270Y00951270D02*
X00927730D01*
Y00918730D01*
X00960270D01*
Y00951270D01*
D02*
G37*
G36*
X00872270D02*
X00839730D01*
Y00918730D01*
X00872270D01*
Y00951270D01*
D02*
G37*
G36*
X00660270D02*
X00627730D01*
Y00918730D01*
X00660270D01*
Y00951270D01*
D02*
G37*
G36*
X00572270D02*
X00539730D01*
Y00918730D01*
X00572270D01*
Y00951270D01*
D02*
G37*
G36*
X00825290Y00903040D02*
X00819520D01*
Y00898270D01*
X00825290D01*
Y00903040D01*
D02*
G37*
G36*
X00816980D02*
X00811210D01*
Y00898270D01*
X00816980D01*
Y00903040D01*
D02*
G37*
G36*
X00825290Y00895730D02*
X00819520D01*
Y00890960D01*
X00825290D01*
Y00895730D01*
D02*
G37*
G36*
X00816980D02*
X00811210D01*
Y00890960D01*
X00816980D01*
Y00895730D01*
D02*
G37*
G36*
X00722060Y00940210D02*
X00720362D01*
X00718792Y00939560D01*
X00717591Y00938359D01*
X00716941Y00936789D01*
Y00935090D01*
X00717591Y00933521D01*
X00718792Y00932320D01*
X00720362Y00931670D01*
X00722060D01*
X00723630Y00932320D01*
X00724831Y00933521D01*
X00724889Y00933660D01*
X00729177D01*
X00734910Y00927927D01*
Y00855770D01*
X00733230D01*
Y00844230D01*
X00741770D01*
Y00847410D01*
X00758230D01*
Y00844230D01*
X00766770D01*
Y00855770D01*
X00764965D01*
Y00860426D01*
X00765870Y00861331D01*
X00766520Y00862901D01*
Y00864599D01*
X00765870Y00866169D01*
X00764669Y00867370D01*
X00763099Y00868020D01*
X00761401D01*
X00759831Y00867370D01*
X00758630Y00866169D01*
X00757980Y00864599D01*
Y00862901D01*
X00758630Y00861331D01*
X00759785Y00860176D01*
Y00855770D01*
X00758230D01*
Y00852590D01*
X00741770D01*
Y00855770D01*
X00740090D01*
Y00885030D01*
X00741360Y00885198D01*
X00741716Y00883869D01*
X00742886Y00881841D01*
X00744541Y00880186D01*
X00746569Y00879016D01*
X00748830Y00878410D01*
X00751170D01*
X00753431Y00879016D01*
X00755459Y00880186D01*
X00757114Y00881841D01*
X00758284Y00883869D01*
X00758683Y00885358D01*
X00772896D01*
X00775558Y00882695D01*
Y00855770D01*
X00773230D01*
Y00844230D01*
X00781770D01*
Y00855770D01*
X00779442D01*
Y00883500D01*
X00779295Y00884243D01*
X00778873Y00884873D01*
X00775073Y00888673D01*
X00774443Y00889094D01*
X00773700Y00889242D01*
X00758683D01*
X00758284Y00890731D01*
X00757114Y00892759D01*
X00755459Y00894414D01*
X00753431Y00895584D01*
X00751170Y00896190D01*
X00748830D01*
X00746569Y00895584D01*
X00744541Y00894414D01*
X00742886Y00892759D01*
X00741716Y00890731D01*
X00741360Y00889402D01*
X00740090Y00889570D01*
Y00910430D01*
X00741360Y00910598D01*
X00741716Y00909269D01*
X00742886Y00907241D01*
X00744541Y00905586D01*
X00746569Y00904416D01*
X00748830Y00903810D01*
X00751170D01*
X00753431Y00904416D01*
X00755459Y00905586D01*
X00757114Y00907241D01*
X00758284Y00909269D01*
X00758683Y00910758D01*
X00788996D01*
X00796308Y00903446D01*
Y00892270D01*
X00792480D01*
Y00882730D01*
X00804020D01*
Y00892270D01*
X00800192D01*
Y00904250D01*
X00800044Y00904993D01*
X00799623Y00905623D01*
X00791173Y00914073D01*
X00790543Y00914494D01*
X00789800Y00914642D01*
X00758683D01*
X00758284Y00916131D01*
X00757114Y00918159D01*
X00755459Y00919814D01*
X00753431Y00920984D01*
X00751170Y00921590D01*
X00748830D01*
X00746569Y00920984D01*
X00744541Y00919814D01*
X00742886Y00918159D01*
X00741716Y00916131D01*
X00741360Y00914802D01*
X00740090Y00914970D01*
Y00929000D01*
X00739893Y00929991D01*
X00739331Y00930831D01*
X00732081Y00938081D01*
X00731241Y00938643D01*
X00730250Y00938840D01*
X00724350D01*
X00723630Y00939560D01*
X00722060Y00940210D01*
D02*
G37*
G36*
X00576519Y00876540D02*
X00576270D01*
Y00866270D01*
X00586540D01*
Y00866519D01*
X00585754Y00869454D01*
X00584234Y00872086D01*
X00582086Y00874234D01*
X00579454Y00875753D01*
X00576519Y00876540D01*
D02*
G37*
G36*
X00573730D02*
X00573481D01*
X00570546Y00875753D01*
X00567914Y00874234D01*
X00565766Y00872086D01*
X00564246Y00869454D01*
X00563460Y00866519D01*
Y00866270D01*
X00573730D01*
Y00876540D01*
D02*
G37*
G36*
X00819250Y00882863D02*
X00817250D01*
X00815389Y00882493D01*
X00813811Y00881439D01*
X00812757Y00879861D01*
X00812387Y00878000D01*
X00812757Y00876139D01*
X00813811Y00874561D01*
X00815389Y00873507D01*
X00816308Y00873324D01*
Y00868020D01*
X00812480D01*
Y00859480D01*
X00824020D01*
Y00868020D01*
X00820192D01*
Y00873324D01*
X00821111Y00873507D01*
X00822689Y00874561D01*
X00823743Y00876139D01*
X00824113Y00878000D01*
X00823743Y00879861D01*
X00822689Y00881439D01*
X00821111Y00882493D01*
X00819250Y00882863D01*
D02*
G37*
G36*
X00901352Y00875270D02*
X00898648D01*
X00896036Y00874570D01*
X00893694Y00873218D01*
X00891782Y00871306D01*
X00890430Y00868964D01*
X00889730Y00866352D01*
Y00863648D01*
X00890430Y00861036D01*
X00891782Y00858694D01*
X00893694Y00856782D01*
X00896036Y00855430D01*
X00898648Y00854730D01*
X00901352D01*
X00903964Y00855430D01*
X00906306Y00856782D01*
X00908218Y00858694D01*
X00909570Y00861036D01*
X00910270Y00863648D01*
Y00866352D01*
X00909570Y00868964D01*
X00908218Y00871306D01*
X00906306Y00873218D01*
X00903964Y00874570D01*
X00901352Y00875270D01*
D02*
G37*
G36*
X00839132Y00982502D02*
X00837433D01*
X00835864Y00981852D01*
X00834663Y00980651D01*
X00834013Y00979082D01*
Y00977383D01*
X00834663Y00975814D01*
X00835693Y00974783D01*
Y00967606D01*
X00834831Y00966744D01*
X00780973D01*
X00779942Y00967774D01*
X00778373Y00968424D01*
X00776674D01*
X00775105Y00967774D01*
X00773904Y00966573D01*
X00773254Y00965004D01*
Y00963305D01*
X00773904Y00961736D01*
X00775105Y00960534D01*
X00776674Y00959884D01*
X00778373D01*
X00779942Y00960534D01*
X00780973Y00961564D01*
X00835904D01*
X00836895Y00961762D01*
X00837736Y00962323D01*
X00840114Y00964702D01*
X00840675Y00965542D01*
X00840873Y00966533D01*
Y00974783D01*
X00841749Y00975660D01*
X00882427D01*
X00887410Y00970677D01*
Y00916823D01*
X00873169Y00902581D01*
X00872607Y00901741D01*
X00872410Y00900750D01*
Y00874938D01*
X00871036Y00874570D01*
X00868694Y00873218D01*
X00866782Y00871306D01*
X00865430Y00868964D01*
X00864730Y00866352D01*
Y00863648D01*
X00865430Y00861036D01*
X00866782Y00858694D01*
X00868694Y00856782D01*
X00871036Y00855430D01*
X00873648Y00854730D01*
X00876352D01*
X00878964Y00855430D01*
X00881306Y00856782D01*
X00883218Y00858694D01*
X00884570Y00861036D01*
X00885270Y00863648D01*
Y00866352D01*
X00884570Y00868964D01*
X00883218Y00871306D01*
X00881306Y00873218D01*
X00878964Y00874570D01*
X00877590Y00874938D01*
Y00899677D01*
X00891831Y00913919D01*
X00892393Y00914759D01*
X00892590Y00915750D01*
Y00971750D01*
X00892393Y00972741D01*
X00891831Y00973581D01*
X00885331Y00980081D01*
X00884491Y00980643D01*
X00883500Y00980840D01*
X00841714D01*
X00840702Y00981852D01*
X00839132Y00982502D01*
D02*
G37*
G36*
X00626352Y00875270D02*
X00623648D01*
X00621036Y00874570D01*
X00618694Y00873218D01*
X00616782Y00871306D01*
X00615430Y00868964D01*
X00614730Y00866352D01*
Y00863648D01*
X00615430Y00861036D01*
X00616782Y00858694D01*
X00618694Y00856782D01*
X00621036Y00855430D01*
X00623648Y00854730D01*
X00626352D01*
X00628964Y00855430D01*
X00631306Y00856782D01*
X00633218Y00858694D01*
X00634570Y00861036D01*
X00635270Y00863648D01*
Y00866352D01*
X00634570Y00868964D01*
X00633218Y00871306D01*
X00631306Y00873218D01*
X00628964Y00874570D01*
X00626352Y00875270D01*
D02*
G37*
G36*
X00586540Y00863730D02*
X00576270D01*
Y00853460D01*
X00576519D01*
X00579454Y00854246D01*
X00582086Y00855766D01*
X00584234Y00857914D01*
X00585754Y00860546D01*
X00586540Y00863481D01*
Y00863730D01*
D02*
G37*
G36*
X00573730D02*
X00563460D01*
Y00863481D01*
X00564246Y00860546D01*
X00565766Y00857914D01*
X00567914Y00855766D01*
X00570546Y00854246D01*
X00573481Y00853460D01*
X00573730D01*
Y00863730D01*
D02*
G37*
G36*
X00674599Y00967270D02*
X00672901D01*
X00671331Y00966620D01*
X00670130Y00965419D01*
X00669480Y00963849D01*
Y00962151D01*
X00670130Y00960581D01*
X00671160Y00959551D01*
Y00838323D01*
X00660677Y00827840D01*
X00569573D01*
X00540677Y00856735D01*
X00539837Y00857297D01*
X00538846Y00857494D01*
X00525770D01*
Y00859174D01*
X00522590D01*
Y00862730D01*
X00525770D01*
Y00871270D01*
X00514230D01*
Y00862730D01*
X00517410D01*
Y00859174D01*
X00514230D01*
Y00850634D01*
X00525770D01*
Y00852314D01*
X00537773D01*
X00566669Y00823419D01*
X00567509Y00822857D01*
X00568500Y00822660D01*
X00661750D01*
X00662741Y00822857D01*
X00663581Y00823419D01*
X00675581Y00835419D01*
X00676143Y00836259D01*
X00676340Y00837250D01*
Y00959551D01*
X00677370Y00960581D01*
X00678020Y00962151D01*
Y00963849D01*
X00677370Y00965419D01*
X00676169Y00966620D01*
X00674599Y00967270D01*
D02*
G37*
G36*
X00926352Y00875270D02*
X00923648D01*
X00921036Y00874570D01*
X00918694Y00873218D01*
X00916782Y00871306D01*
X00915430Y00868964D01*
X00914730Y00866352D01*
Y00863648D01*
X00915430Y00861036D01*
X00916782Y00858694D01*
X00918694Y00856782D01*
X00921036Y00855430D01*
X00923058Y00854888D01*
Y00832520D01*
X00918980D01*
Y00823980D01*
X00930520D01*
Y00832520D01*
X00926942D01*
Y00854888D01*
X00928964Y00855430D01*
X00931306Y00856782D01*
X00933218Y00858694D01*
X00934570Y00861036D01*
X00935270Y00863648D01*
Y00866352D01*
X00934570Y00868964D01*
X00933218Y00871306D01*
X00931306Y00873218D01*
X00928964Y00874570D01*
X00926352Y00875270D01*
D02*
G37*
G36*
X00824020Y00853020D02*
X00812480D01*
Y00844480D01*
X00816308D01*
Y00817171D01*
X00815581Y00816870D01*
X00814380Y00815669D01*
X00813730Y00814099D01*
Y00812401D01*
X00814380Y00810831D01*
X00815581Y00809630D01*
X00817151Y00808980D01*
X00818849D01*
X00820419Y00809630D01*
X00821620Y00810831D01*
X00822270Y00812401D01*
Y00814099D01*
X00821620Y00815669D01*
X00820419Y00816870D01*
X00820192Y00816964D01*
Y00844480D01*
X00824020D01*
Y00853020D01*
D02*
G37*
G36*
X00671270Y00805470D02*
Y00801270D01*
X00675470D01*
X00674697Y00803138D01*
X00673138Y00804697D01*
X00671270Y00805470D01*
D02*
G37*
G36*
X00668730D02*
X00666862Y00804697D01*
X00665303Y00803138D01*
X00664530Y00801270D01*
X00668730D01*
Y00805470D01*
D02*
G37*
G36*
X00656270D02*
Y00801270D01*
X00660470D01*
X00659697Y00803138D01*
X00658138Y00804697D01*
X00656270Y00805470D01*
D02*
G37*
G36*
X00653730D02*
X00651862Y00804697D01*
X00650303Y00803138D01*
X00649530Y00801270D01*
X00653730D01*
Y00805470D01*
D02*
G37*
G36*
X00641270D02*
Y00801270D01*
X00645470D01*
X00644697Y00803138D01*
X00643138Y00804697D01*
X00641270Y00805470D01*
D02*
G37*
G36*
X00638730D02*
X00636862Y00804697D01*
X00635303Y00803138D01*
X00634530Y00801270D01*
X00638730D01*
Y00805470D01*
D02*
G37*
G36*
X00626270D02*
Y00801270D01*
X00630470D01*
X00629697Y00803138D01*
X00628138Y00804697D01*
X00626270Y00805470D01*
D02*
G37*
G36*
X00623730D02*
X00621862Y00804697D01*
X00620303Y00803138D01*
X00619530Y00801270D01*
X00623730D01*
Y00805470D01*
D02*
G37*
G36*
X00611270D02*
Y00801270D01*
X00615470D01*
X00614697Y00803138D01*
X00613138Y00804697D01*
X00611270Y00805470D01*
D02*
G37*
G36*
X00608730D02*
X00606862Y00804697D01*
X00605303Y00803138D01*
X00604530Y00801270D01*
X00608730D01*
Y00805470D01*
D02*
G37*
G36*
X00726770Y00855770D02*
X00718230D01*
Y00844230D01*
X00720558D01*
Y00812750D01*
X00720705Y00812007D01*
X00721126Y00811377D01*
X00729677Y00802827D01*
X00729677Y00802827D01*
X00730307Y00802405D01*
X00731050Y00802258D01*
X00741317D01*
X00741716Y00800769D01*
X00742886Y00798741D01*
X00744541Y00797086D01*
X00746569Y00795916D01*
X00748830Y00795310D01*
X00751170D01*
X00753431Y00795916D01*
X00755459Y00797086D01*
X00757114Y00798741D01*
X00758284Y00800769D01*
X00758890Y00803030D01*
Y00805370D01*
X00758284Y00807631D01*
X00757114Y00809659D01*
X00755459Y00811314D01*
X00753431Y00812484D01*
X00751170Y00813090D01*
X00748830D01*
X00746569Y00812484D01*
X00744541Y00811314D01*
X00742886Y00809659D01*
X00741716Y00807631D01*
X00741317Y00806142D01*
X00731854D01*
X00724442Y00813555D01*
Y00844230D01*
X00726770D01*
Y00855770D01*
D02*
G37*
G36*
X00675470Y00798730D02*
X00671270D01*
Y00794530D01*
X00673138Y00795303D01*
X00674697Y00796862D01*
X00675470Y00798730D01*
D02*
G37*
G36*
X00668730D02*
X00664530D01*
X00665303Y00796862D01*
X00666862Y00795303D01*
X00668730Y00794530D01*
Y00798730D01*
D02*
G37*
G36*
X00660470D02*
X00656270D01*
Y00794530D01*
X00658138Y00795303D01*
X00659697Y00796862D01*
X00660470Y00798730D01*
D02*
G37*
G36*
X00653730D02*
X00649530D01*
X00650303Y00796862D01*
X00651862Y00795303D01*
X00653730Y00794530D01*
Y00798730D01*
D02*
G37*
G36*
X00645470D02*
X00641270D01*
Y00794530D01*
X00643138Y00795303D01*
X00644697Y00796862D01*
X00645470Y00798730D01*
D02*
G37*
G36*
X00638730D02*
X00634530D01*
X00635303Y00796862D01*
X00636862Y00795303D01*
X00638730Y00794530D01*
Y00798730D01*
D02*
G37*
G36*
X00630470D02*
X00626270D01*
Y00794530D01*
X00628138Y00795303D01*
X00629697Y00796862D01*
X00630470Y00798730D01*
D02*
G37*
G36*
X00623730D02*
X00619530D01*
X00620303Y00796862D01*
X00621862Y00795303D01*
X00623730Y00794530D01*
Y00798730D01*
D02*
G37*
G36*
X00615470D02*
X00611270D01*
Y00794530D01*
X00613138Y00795303D01*
X00614697Y00796862D01*
X00615470Y00798730D01*
D02*
G37*
G36*
X00608730D02*
X00604530D01*
X00605303Y00796862D01*
X00606862Y00795303D01*
X00608730Y00794530D01*
Y00798730D01*
D02*
G37*
G36*
X00986500Y00758354D02*
X00947500D01*
X00945834Y00758022D01*
X00944421Y00757078D01*
X00943478Y00755666D01*
X00943146Y00754000D01*
Y00748000D01*
X00943478Y00746334D01*
X00944421Y00744921D01*
X00945834Y00743978D01*
X00947500Y00743646D01*
X00986500D01*
X00988166Y00743978D01*
X00989578Y00744921D01*
X00990522Y00746334D01*
X00990854Y00748000D01*
Y00754000D01*
X00990522Y00755666D01*
X00989578Y00757078D01*
X00988166Y00758022D01*
X00986500Y00758354D01*
D02*
G37*
G36*
X00923500D02*
X00884500D01*
X00882834Y00758022D01*
X00881422Y00757078D01*
X00880478Y00755666D01*
X00880146Y00754000D01*
Y00748000D01*
X00880478Y00746334D01*
X00881422Y00744921D01*
X00882834Y00743978D01*
X00884500Y00743646D01*
X00923500D01*
X00925166Y00743978D01*
X00926579Y00744921D01*
X00927522Y00746334D01*
X00927854Y00748000D01*
Y00754000D01*
X00927522Y00755666D01*
X00926579Y00757078D01*
X00925166Y00758022D01*
X00923500Y00758354D01*
D02*
G37*
G36*
X00860500D02*
X00821500D01*
X00819834Y00758022D01*
X00818421Y00757078D01*
X00817478Y00755666D01*
X00817146Y00754000D01*
Y00748000D01*
X00817478Y00746334D01*
X00818421Y00744921D01*
X00819834Y00743978D01*
X00821500Y00743646D01*
X00860500D01*
X00862166Y00743978D01*
X00863578Y00744921D01*
X00864522Y00746334D01*
X00864854Y00748000D01*
Y00754000D01*
X00864522Y00755666D01*
X00863578Y00757078D01*
X00862166Y00758022D01*
X00860500Y00758354D01*
D02*
G37*
G36*
X00525770Y00844174D02*
X00514230D01*
Y00835634D01*
X00517410D01*
Y00758354D01*
X00513500D01*
X00511834Y00758022D01*
X00510421Y00757078D01*
X00509478Y00755666D01*
X00509146Y00754000D01*
Y00748000D01*
X00509478Y00746334D01*
X00510421Y00744921D01*
X00511834Y00743978D01*
X00513500Y00743646D01*
X00552500D01*
X00554166Y00743978D01*
X00555578Y00744921D01*
X00556522Y00746334D01*
X00556854Y00748000D01*
Y00754000D01*
X00556522Y00755666D01*
X00555578Y00757078D01*
X00554166Y00758022D01*
X00552500Y00758354D01*
X00522590D01*
Y00835634D01*
X00525770D01*
Y00844174D01*
D02*
G37*
G36*
X00741270Y00740470D02*
Y00736270D01*
X00745470D01*
X00744697Y00738138D01*
X00743138Y00739697D01*
X00741270Y00740470D01*
D02*
G37*
G36*
X00738730D02*
X00736862Y00739697D01*
X00735303Y00738138D01*
X00734530Y00736270D01*
X00738730D01*
Y00740470D01*
D02*
G37*
G36*
X00849790Y00738040D02*
X00845520D01*
Y00732270D01*
X00849790D01*
Y00738040D01*
D02*
G37*
G36*
X00842980D02*
X00838710D01*
Y00732270D01*
X00842980D01*
Y00738040D01*
D02*
G37*
G36*
X00745470Y00733730D02*
X00741270D01*
Y00729530D01*
X00743138Y00730303D01*
X00744697Y00731862D01*
X00745470Y00733730D01*
D02*
G37*
G36*
X00738730D02*
X00734530D01*
X00735303Y00731862D01*
X00736862Y00730303D01*
X00738730Y00729530D01*
Y00733730D01*
D02*
G37*
G36*
X00615500Y00758354D02*
X00576500D01*
X00574834Y00758022D01*
X00573422Y00757078D01*
X00572478Y00755666D01*
X00572146Y00754000D01*
Y00748000D01*
X00572478Y00746334D01*
X00573422Y00744921D01*
X00574834Y00743978D01*
X00576500Y00743646D01*
X00593410D01*
Y00737750D01*
X00593607Y00736759D01*
X00594169Y00735919D01*
X00600669Y00729419D01*
X00601509Y00728857D01*
X00602500Y00728660D01*
X00639730D01*
Y00725480D01*
X00648270D01*
Y00737020D01*
X00639730D01*
Y00733840D01*
X00603573D01*
X00598590Y00738823D01*
Y00743646D01*
X00615500D01*
X00617166Y00743978D01*
X00618578Y00744921D01*
X00619522Y00746334D01*
X00619854Y00748000D01*
Y00754000D01*
X00619522Y00755666D01*
X00618578Y00757078D01*
X00617166Y00758022D01*
X00615500Y00758354D01*
D02*
G37*
G36*
X00741270Y00725470D02*
Y00721270D01*
X00745470D01*
X00744697Y00723138D01*
X00743138Y00724697D01*
X00741270Y00725470D01*
D02*
G37*
G36*
X00738730D02*
X00736862Y00724697D01*
X00735303Y00723138D01*
X00734530Y00721270D01*
X00738730D01*
Y00725470D01*
D02*
G37*
G36*
X00745470Y00718730D02*
X00741270D01*
Y00714530D01*
X00743138Y00715303D01*
X00744697Y00716862D01*
X00745470Y00718730D01*
D02*
G37*
G36*
X00738730D02*
X00734530D01*
X00735303Y00716862D01*
X00736862Y00715303D01*
X00738730Y00714530D01*
Y00718730D01*
D02*
G37*
G36*
X00741270Y00710470D02*
Y00706270D01*
X00745470D01*
X00744697Y00708138D01*
X00743138Y00709697D01*
X00741270Y00710470D01*
D02*
G37*
G36*
X00738730D02*
X00736862Y00709697D01*
X00735303Y00708138D01*
X00734530Y00706270D01*
X00738730D01*
Y00710470D01*
D02*
G37*
G36*
X00745470Y00703730D02*
X00741270D01*
Y00699530D01*
X00743138Y00700303D01*
X00744697Y00701862D01*
X00745470Y00703730D01*
D02*
G37*
G36*
X00738730D02*
X00734530D01*
X00735303Y00701862D01*
X00736862Y00700303D01*
X00738730Y00699530D01*
Y00703730D01*
D02*
G37*
G36*
X00978040Y00707940D02*
X00967770D01*
Y00696670D01*
X00978040D01*
Y00707940D01*
D02*
G37*
G36*
X00965230D02*
X00954960D01*
Y00696670D01*
X00965230D01*
Y00707940D01*
D02*
G37*
G36*
X00741270Y00695470D02*
Y00691270D01*
X00745470D01*
X00744697Y00693138D01*
X00743138Y00694697D01*
X00741270Y00695470D01*
D02*
G37*
G36*
X00738730D02*
X00736862Y00694697D01*
X00735303Y00693138D01*
X00734530Y00691270D01*
X00738730D01*
Y00695470D01*
D02*
G37*
G36*
X00745470Y00688730D02*
X00741270D01*
Y00684530D01*
X00743138Y00685303D01*
X00744697Y00686862D01*
X00745470Y00688730D01*
D02*
G37*
G36*
X00738730D02*
X00734530D01*
X00735303Y00686862D01*
X00736862Y00685303D01*
X00738730Y00684530D01*
Y00688730D01*
D02*
G37*
G36*
X00978040Y00694130D02*
X00967770D01*
Y00682860D01*
X00978040D01*
Y00694130D01*
D02*
G37*
G36*
X00965230D02*
X00954960D01*
Y00682860D01*
X00965230D01*
Y00694130D01*
D02*
G37*
G36*
X00741270Y00680470D02*
Y00676270D01*
X00745470D01*
X00744697Y00678138D01*
X00743138Y00679697D01*
X00741270Y00680470D01*
D02*
G37*
G36*
X00738730D02*
X00736862Y00679697D01*
X00735303Y00678138D01*
X00734530Y00676270D01*
X00738730D01*
Y00680470D01*
D02*
G37*
G36*
X00745470Y00673730D02*
X00741270D01*
Y00669530D01*
X00743138Y00670303D01*
X00744697Y00671862D01*
X00745470Y00673730D01*
D02*
G37*
G36*
X00738730D02*
X00734530D01*
X00735303Y00671862D01*
X00736862Y00670303D01*
X00738730Y00669530D01*
Y00673730D01*
D02*
G37*
G36*
X00786040Y00645590D02*
X00778770D01*
Y00640320D01*
X00786040D01*
Y00645590D01*
D02*
G37*
G36*
X00776230D02*
X00768960D01*
Y00640320D01*
X00776230D01*
Y00645590D01*
D02*
G37*
G36*
X00729770Y00631620D02*
X00715230D01*
Y00627942D01*
X00711770D01*
Y00630270D01*
X00700230D01*
Y00621730D01*
X00711770D01*
Y00624058D01*
X00715230D01*
Y00621080D01*
X00729770D01*
Y00631620D01*
D02*
G37*
G36*
Y00618920D02*
X00715230D01*
Y00616240D01*
X00593799D01*
X00592919Y00617120D01*
X00591349Y00617770D01*
X00589651D01*
X00588081Y00617120D01*
X00586880Y00615919D01*
X00586230Y00614349D01*
Y00612651D01*
X00586880Y00611081D01*
X00588081Y00609880D01*
X00589651Y00609230D01*
X00591349D01*
X00592919Y00609880D01*
X00594099Y00611060D01*
X00715230D01*
Y00608380D01*
X00729770D01*
Y00610410D01*
X00735301D01*
X00736331Y00609380D01*
X00737901Y00608730D01*
X00739599D01*
X00741169Y00609380D01*
X00742370Y00610581D01*
X00743020Y00612151D01*
Y00613849D01*
X00742370Y00615419D01*
X00741169Y00616620D01*
X00739599Y00617270D01*
X00737901D01*
X00736331Y00616620D01*
X00735301Y00615590D01*
X00729770D01*
Y00618920D01*
D02*
G37*
G36*
X00966500Y00655959D02*
X00963819Y00655606D01*
X00961321Y00654571D01*
X00959175Y00652925D01*
X00957529Y00650779D01*
X00956494Y00648281D01*
X00956141Y00645600D01*
Y00643600D01*
X00956494Y00640919D01*
X00957529Y00638421D01*
X00959175Y00636275D01*
X00961321Y00634629D01*
X00963819Y00633594D01*
X00964558Y00633497D01*
Y00624770D01*
X00962230D01*
Y00613230D01*
X00970770D01*
Y00624770D01*
X00968442D01*
Y00633497D01*
X00969181Y00633594D01*
X00971679Y00634629D01*
X00973825Y00636275D01*
X00975471Y00638421D01*
X00976506Y00640919D01*
X00976859Y00643600D01*
Y00645600D01*
X00976506Y00648281D01*
X00975471Y00650779D01*
X00973825Y00652925D01*
X00971679Y00654571D01*
X00969181Y00655606D01*
X00966500Y00655959D01*
D02*
G37*
G36*
X00743040Y00592540D02*
X00738770D01*
Y00586770D01*
X00743040D01*
Y00592540D01*
D02*
G37*
G36*
X00736230D02*
X00731960D01*
Y00586770D01*
X00736230D01*
Y00592540D01*
D02*
G37*
G36*
X00986500Y00596354D02*
X00947500D01*
X00945834Y00596022D01*
X00944421Y00595079D01*
X00943478Y00593666D01*
X00943146Y00592000D01*
Y00586000D01*
X00943478Y00584334D01*
X00944421Y00582921D01*
X00945834Y00581978D01*
X00947500Y00581646D01*
X00986500D01*
X00988166Y00581978D01*
X00989578Y00582921D01*
X00990522Y00584334D01*
X00990854Y00586000D01*
Y00592000D01*
X00990522Y00593666D01*
X00989578Y00595079D01*
X00988166Y00596022D01*
X00986500Y00596354D01*
D02*
G37*
G36*
X00678500D02*
X00639500D01*
X00637834Y00596022D01*
X00636422Y00595079D01*
X00635478Y00593666D01*
X00635146Y00592000D01*
Y00586000D01*
X00635478Y00584334D01*
X00636422Y00582921D01*
X00637834Y00581978D01*
X00639500Y00581646D01*
X00678500D01*
X00680166Y00581978D01*
X00681579Y00582921D01*
X00682522Y00584334D01*
X00682854Y00586000D01*
Y00592000D01*
X00682522Y00593666D01*
X00681579Y00595079D01*
X00680166Y00596022D01*
X00678500Y00596354D01*
D02*
G37*
G36*
X00615500D02*
X00576500D01*
X00574834Y00596022D01*
X00573422Y00595079D01*
X00572478Y00593666D01*
X00572146Y00592000D01*
Y00586000D01*
X00572478Y00584334D01*
X00573422Y00582921D01*
X00574834Y00581978D01*
X00576500Y00581646D01*
X00615500D01*
X00617166Y00581978D01*
X00618578Y00582921D01*
X00619522Y00584334D01*
X00619854Y00586000D01*
Y00592000D01*
X00619522Y00593666D01*
X00618578Y00595079D01*
X00617166Y00596022D01*
X00615500Y00596354D01*
D02*
G37*
G36*
X00552500D02*
X00513500D01*
X00511834Y00596022D01*
X00510421Y00595079D01*
X00509478Y00593666D01*
X00509146Y00592000D01*
Y00586000D01*
X00509478Y00584334D01*
X00510421Y00582921D01*
X00511834Y00581978D01*
X00513500Y00581646D01*
X00552500D01*
X00554166Y00581978D01*
X00555578Y00582921D01*
X00556522Y00584334D01*
X00556854Y00586000D01*
Y00592000D01*
X00556522Y00593666D01*
X00555578Y00595079D01*
X00554166Y00596022D01*
X00552500Y00596354D01*
D02*
G37*
G36*
X00743040Y00584230D02*
X00738770D01*
Y00578460D01*
X00743040D01*
Y00584230D01*
D02*
G37*
G36*
X00736230D02*
X00731960D01*
Y00578460D01*
X00736230D01*
Y00584230D01*
D02*
G37*
G36*
X00729770Y00606220D02*
X00715230D01*
Y00595680D01*
X00719910D01*
Y00591270D01*
X00718230D01*
Y00579730D01*
X00719910D01*
Y00574699D01*
X00718926Y00573715D01*
X00697324D01*
X00696419Y00574620D01*
X00694849Y00575270D01*
X00693151D01*
X00691581Y00574620D01*
X00690380Y00573419D01*
X00689730Y00571849D01*
Y00570151D01*
X00690380Y00568581D01*
X00691581Y00567380D01*
X00693151Y00566730D01*
X00694849D01*
X00696419Y00567380D01*
X00697574Y00568535D01*
X00719176D01*
X00720081Y00567630D01*
X00721651Y00566980D01*
X00723349D01*
X00724919Y00567630D01*
X00726120Y00568831D01*
X00726770Y00570401D01*
Y00572099D01*
X00726120Y00573669D01*
X00725090Y00574699D01*
Y00579730D01*
X00726770D01*
Y00591270D01*
X00725090D01*
Y00595680D01*
X00729770D01*
Y00606220D01*
D02*
G37*
G36*
X00923500Y00596354D02*
X00884500D01*
X00882834Y00596022D01*
X00881422Y00595079D01*
X00880478Y00593666D01*
X00880146Y00592000D01*
Y00586000D01*
X00880478Y00584334D01*
X00881422Y00582921D01*
X00882834Y00581978D01*
X00884500Y00581646D01*
X00901410D01*
Y00575823D01*
X00895677Y00570090D01*
X00859770D01*
Y00573270D01*
X00851230D01*
Y00561730D01*
X00852910D01*
Y00557949D01*
X00851880Y00556919D01*
X00851230Y00555349D01*
Y00553651D01*
X00851880Y00552081D01*
X00853081Y00550880D01*
X00854651Y00550230D01*
X00856349D01*
X00857919Y00550880D01*
X00859120Y00552081D01*
X00859770Y00553651D01*
Y00555349D01*
X00859120Y00556919D01*
X00858090Y00557949D01*
Y00561730D01*
X00859770D01*
Y00564910D01*
X00896750D01*
X00897741Y00565107D01*
X00898581Y00565669D01*
X00905831Y00572919D01*
X00906393Y00573759D01*
X00906590Y00574750D01*
Y00581646D01*
X00923500D01*
X00925166Y00581978D01*
X00926579Y00582921D01*
X00927522Y00584334D01*
X00927854Y00586000D01*
Y00592000D01*
X00927522Y00593666D01*
X00926579Y00595079D01*
X00925166Y00596022D01*
X00923500Y00596354D01*
D02*
G37*
G36*
X00908470Y00508890D02*
X00906130D01*
X00903869Y00508284D01*
X00901841Y00507114D01*
X00900186Y00505459D01*
X00899016Y00503431D01*
X00898617Y00501942D01*
X00889520D01*
Y00505520D01*
X00880980D01*
Y00493980D01*
X00889520D01*
Y00498058D01*
X00898617D01*
X00899016Y00496569D01*
X00900186Y00494541D01*
X00901841Y00492886D01*
X00903869Y00491716D01*
X00906130Y00491110D01*
X00908470D01*
X00910731Y00491716D01*
X00912759Y00492886D01*
X00914414Y00494541D01*
X00915584Y00496569D01*
X00916190Y00498830D01*
Y00501170D01*
X00915584Y00503431D01*
X00914414Y00505459D01*
X00912759Y00507114D01*
X00910731Y00508284D01*
X00908470Y00508890D01*
D02*
G37*
G36*
X00870349Y00541770D02*
X00868651D01*
X00867081Y00541120D01*
X00865880Y00539919D01*
X00865230Y00538349D01*
Y00536651D01*
X00865880Y00535081D01*
X00867081Y00533880D01*
X00867558Y00533683D01*
Y00505520D01*
X00865980D01*
Y00493980D01*
X00874520D01*
Y00505520D01*
X00871442D01*
Y00533683D01*
X00871919Y00533880D01*
X00873120Y00535081D01*
X00873770Y00536651D01*
Y00538349D01*
X00873120Y00539919D01*
X00871919Y00541120D01*
X00870349Y00541770D01*
D02*
G37*
G36*
X00780238Y00497910D02*
X00780170D01*
Y00489020D01*
X00789060D01*
Y00489088D01*
X00788368Y00491672D01*
X00787030Y00493988D01*
X00785138Y00495880D01*
X00782822Y00497218D01*
X00780238Y00497910D01*
D02*
G37*
G36*
X00777630D02*
X00777562D01*
X00774978Y00497218D01*
X00772662Y00495880D01*
X00770770Y00493988D01*
X00769432Y00491672D01*
X00768740Y00489088D01*
Y00489020D01*
X00777630D01*
Y00497910D01*
D02*
G37*
G36*
X00678849Y00521770D02*
X00675151D01*
X00671525Y00521049D01*
X00668109Y00519634D01*
X00665035Y00517580D01*
X00662420Y00514965D01*
X00660366Y00511891D01*
X00658951Y00508475D01*
X00658230Y00504849D01*
Y00501151D01*
X00658951Y00497525D01*
X00660366Y00494109D01*
X00662420Y00491035D01*
X00665035Y00488420D01*
X00668109Y00486366D01*
X00671525Y00484951D01*
X00675151Y00484230D01*
X00678849D01*
X00682475Y00484951D01*
X00685891Y00486366D01*
X00688965Y00488420D01*
X00691580Y00491035D01*
X00693634Y00494109D01*
X00695049Y00497525D01*
X00695770Y00501151D01*
Y00504849D01*
X00695049Y00508475D01*
X00693634Y00511891D01*
X00691580Y00514965D01*
X00688965Y00517580D01*
X00685891Y00519634D01*
X00682475Y00521049D01*
X00678849Y00521770D01*
D02*
G37*
G36*
X00630849Y00550770D02*
X00629151D01*
X00627581Y00550120D01*
X00626380Y00548919D01*
X00625730Y00547349D01*
Y00545651D01*
X00626380Y00544081D01*
X00627410Y00543051D01*
Y00521623D01*
X00624525Y00521049D01*
X00621109Y00519634D01*
X00618035Y00517580D01*
X00615420Y00514965D01*
X00613366Y00511891D01*
X00611951Y00508475D01*
X00611230Y00504849D01*
Y00501151D01*
X00611951Y00497525D01*
X00613366Y00494109D01*
X00615420Y00491035D01*
X00618035Y00488420D01*
X00621109Y00486366D01*
X00624525Y00484951D01*
X00628151Y00484230D01*
X00631849D01*
X00635475Y00484951D01*
X00638891Y00486366D01*
X00641965Y00488420D01*
X00644580Y00491035D01*
X00646634Y00494109D01*
X00648049Y00497525D01*
X00648770Y00501151D01*
Y00504849D01*
X00648049Y00508475D01*
X00646634Y00511891D01*
X00644580Y00514965D01*
X00641965Y00517580D01*
X00638891Y00519634D01*
X00635475Y00521049D01*
X00632590Y00521623D01*
Y00543051D01*
X00633620Y00544081D01*
X00634270Y00545651D01*
Y00547349D01*
X00633620Y00548919D01*
X00632419Y00550120D01*
X00630849Y00550770D01*
D02*
G37*
G36*
X00751170Y00787690D02*
X00748830D01*
X00746569Y00787084D01*
X00744541Y00785914D01*
X00742886Y00784259D01*
X00741716Y00782231D01*
X00741110Y00779970D01*
Y00777630D01*
X00741716Y00775369D01*
X00742886Y00773341D01*
X00744541Y00771686D01*
X00746569Y00770516D01*
X00748058Y00770117D01*
Y00611500D01*
X00748205Y00610757D01*
X00748627Y00610127D01*
X00755808Y00602946D01*
Y00577245D01*
X00744005Y00565442D01*
X00603000D01*
X00602257Y00565294D01*
X00601627Y00564873D01*
X00581627Y00544873D01*
X00581205Y00544243D01*
X00581058Y00543500D01*
Y00521751D01*
X00577525Y00521049D01*
X00574109Y00519634D01*
X00571035Y00517580D01*
X00568420Y00514965D01*
X00566366Y00511891D01*
X00564951Y00508475D01*
X00564230Y00504849D01*
Y00501151D01*
X00564951Y00497525D01*
X00566366Y00494109D01*
X00568420Y00491035D01*
X00571035Y00488420D01*
X00574109Y00486366D01*
X00577525Y00484951D01*
X00581151Y00484230D01*
X00584849D01*
X00588475Y00484951D01*
X00591891Y00486366D01*
X00594965Y00488420D01*
X00597580Y00491035D01*
X00599634Y00494109D01*
X00601049Y00497525D01*
X00601770Y00501151D01*
Y00504849D01*
X00601049Y00508475D01*
X00599634Y00511891D01*
X00597580Y00514965D01*
X00594965Y00517580D01*
X00591891Y00519634D01*
X00588475Y00521049D01*
X00584942Y00521751D01*
Y00542696D01*
X00603805Y00561558D01*
X00744809D01*
X00745553Y00561706D01*
X00746183Y00562127D01*
X00759123Y00575067D01*
X00759123Y00575067D01*
X00759545Y00575697D01*
X00759692Y00576441D01*
Y00603750D01*
X00759545Y00604493D01*
X00759123Y00605123D01*
X00751942Y00612304D01*
Y00770117D01*
X00753431Y00770516D01*
X00755459Y00771686D01*
X00757114Y00773341D01*
X00758284Y00775369D01*
X00758890Y00777630D01*
Y00779970D01*
X00758284Y00782231D01*
X00757114Y00784259D01*
X00755459Y00785914D01*
X00753431Y00787084D01*
X00751170Y00787690D01*
D02*
G37*
G36*
X00754670Y00496640D02*
X00752330D01*
X00750069Y00496034D01*
X00748041Y00494864D01*
X00746386Y00493209D01*
X00745216Y00491181D01*
X00744610Y00488920D01*
Y00486580D01*
X00745216Y00484319D01*
X00746386Y00482291D01*
X00748041Y00480636D01*
X00750069Y00479466D01*
X00752330Y00478860D01*
X00754670D01*
X00756931Y00479466D01*
X00758959Y00480636D01*
X00760614Y00482291D01*
X00761784Y00484319D01*
X00762390Y00486580D01*
Y00488920D01*
X00761784Y00491181D01*
X00760614Y00493209D01*
X00758959Y00494864D01*
X00756931Y00496034D01*
X00754670Y00496640D01*
D02*
G37*
G36*
X00789060Y00486480D02*
X00780170D01*
Y00477590D01*
X00780238D01*
X00782822Y00478282D01*
X00785138Y00479620D01*
X00787030Y00481512D01*
X00788368Y00483828D01*
X00789060Y00486412D01*
Y00486480D01*
D02*
G37*
G36*
X00777630D02*
X00768740D01*
Y00486412D01*
X00769432Y00483828D01*
X00770770Y00481512D01*
X00772662Y00479620D01*
X00774978Y00478282D01*
X00777562Y00477590D01*
X00777630D01*
Y00486480D01*
D02*
G37*
G36*
X00584849Y00468770D02*
X00581151D01*
X00577525Y00468049D01*
X00574109Y00466634D01*
X00571035Y00464580D01*
X00568420Y00461965D01*
X00566366Y00458891D01*
X00564951Y00455475D01*
X00564230Y00451849D01*
Y00448151D01*
X00564951Y00444525D01*
X00566366Y00441109D01*
X00568420Y00438035D01*
X00571035Y00435420D01*
X00574109Y00433366D01*
X00577525Y00431951D01*
X00581151Y00431230D01*
X00584849D01*
X00588475Y00431951D01*
X00591891Y00433366D01*
X00594965Y00435420D01*
X00597580Y00438035D01*
X00599634Y00441109D01*
X00601049Y00444525D01*
X00601770Y00448151D01*
Y00451849D01*
X00601049Y00455475D01*
X00599634Y00458891D01*
X00597580Y00461965D01*
X00594965Y00464580D01*
X00591891Y00466634D01*
X00588475Y00468049D01*
X00584849Y00468770D01*
D02*
G37*
G36*
X00926270Y00415470D02*
Y00411270D01*
X00930470D01*
X00929697Y00413138D01*
X00928138Y00414697D01*
X00926270Y00415470D01*
D02*
G37*
G36*
X00923730D02*
X00921862Y00414697D01*
X00920303Y00413138D01*
X00919530Y00411270D01*
X00923730D01*
Y00415470D01*
D02*
G37*
G36*
X00911270D02*
Y00411270D01*
X00915470D01*
X00914697Y00413138D01*
X00913138Y00414697D01*
X00911270Y00415470D01*
D02*
G37*
G36*
X00908730D02*
X00906862Y00414697D01*
X00905303Y00413138D01*
X00904530Y00411270D01*
X00908730D01*
Y00415470D01*
D02*
G37*
G36*
X00896270D02*
Y00411270D01*
X00900470D01*
X00899697Y00413138D01*
X00898138Y00414697D01*
X00896270Y00415470D01*
D02*
G37*
G36*
X00893730D02*
X00891862Y00414697D01*
X00890303Y00413138D01*
X00889530Y00411270D01*
X00893730D01*
Y00415470D01*
D02*
G37*
G36*
X00881270D02*
Y00411270D01*
X00885470D01*
X00884697Y00413138D01*
X00883138Y00414697D01*
X00881270Y00415470D01*
D02*
G37*
G36*
X00878730D02*
X00876862Y00414697D01*
X00875303Y00413138D01*
X00874530Y00411270D01*
X00878730D01*
Y00415470D01*
D02*
G37*
G36*
X00866270D02*
Y00411270D01*
X00870470D01*
X00869697Y00413138D01*
X00868138Y00414697D01*
X00866270Y00415470D01*
D02*
G37*
G36*
X00863730D02*
X00861862Y00414697D01*
X00860303Y00413138D01*
X00859530Y00411270D01*
X00863730D01*
Y00415470D01*
D02*
G37*
G36*
X00930470Y00408730D02*
X00926270D01*
Y00404530D01*
X00928138Y00405303D01*
X00929697Y00406862D01*
X00930470Y00408730D01*
D02*
G37*
G36*
X00923730D02*
X00919530D01*
X00920303Y00406862D01*
X00921862Y00405303D01*
X00923730Y00404530D01*
Y00408730D01*
D02*
G37*
G36*
X00915470D02*
X00911270D01*
Y00404530D01*
X00913138Y00405303D01*
X00914697Y00406862D01*
X00915470Y00408730D01*
D02*
G37*
G36*
X00908730D02*
X00904530D01*
X00905303Y00406862D01*
X00906862Y00405303D01*
X00908730Y00404530D01*
Y00408730D01*
D02*
G37*
G36*
X00900470D02*
X00896270D01*
Y00404530D01*
X00898138Y00405303D01*
X00899697Y00406862D01*
X00900470Y00408730D01*
D02*
G37*
G36*
X00893730D02*
X00889530D01*
X00890303Y00406862D01*
X00891862Y00405303D01*
X00893730Y00404530D01*
Y00408730D01*
D02*
G37*
G36*
X00885470D02*
X00881270D01*
Y00404530D01*
X00883138Y00405303D01*
X00884697Y00406862D01*
X00885470Y00408730D01*
D02*
G37*
G36*
X00878730D02*
X00874530D01*
X00875303Y00406862D01*
X00876862Y00405303D01*
X00878730Y00404530D01*
Y00408730D01*
D02*
G37*
G36*
X00870470D02*
X00866270D01*
Y00404530D01*
X00868138Y00405303D01*
X00869697Y00406862D01*
X00870470Y00408730D01*
D02*
G37*
G36*
X00863730D02*
X00859530D01*
X00860303Y00406862D01*
X00861862Y00405303D01*
X00863730Y00404530D01*
Y00408730D01*
D02*
G37*
G36*
X00976540Y00405040D02*
X00970770D01*
Y00400770D01*
X00976540D01*
Y00405040D01*
D02*
G37*
G36*
X00968230D02*
X00962460D01*
Y00400770D01*
X00968230D01*
Y00405040D01*
D02*
G37*
G36*
X00976540Y00398230D02*
X00970770D01*
Y00393960D01*
X00976540D01*
Y00398230D01*
D02*
G37*
G36*
X00968230D02*
X00962460D01*
Y00393960D01*
X00968230D01*
Y00398230D01*
D02*
G37*
G36*
X00975270Y00388770D02*
X00963730D01*
Y00380230D01*
X00966910D01*
Y00366323D01*
X00955677Y00355090D01*
X00865020D01*
Y00358270D01*
X00856480D01*
Y00346730D01*
X00865020D01*
Y00349910D01*
X00956750D01*
X00957741Y00350107D01*
X00958581Y00350669D01*
X00971331Y00363419D01*
X00971893Y00364259D01*
X00972090Y00365250D01*
Y00380230D01*
X00975270D01*
Y00381910D01*
X00980005D01*
X00981080Y00380835D01*
X00982649Y00380185D01*
X00984348D01*
X00985917Y00380835D01*
X00987118Y00382036D01*
X00987768Y00383606D01*
Y00385304D01*
X00987118Y00386874D01*
X00985917Y00388075D01*
X00984348Y00388725D01*
X00982649D01*
X00981080Y00388075D01*
X00980094Y00387090D01*
X00975270D01*
Y00388770D01*
D02*
G37*
G36*
X00678849Y00468770D02*
X00675151D01*
X00671525Y00468049D01*
X00668109Y00466634D01*
X00665035Y00464580D01*
X00662420Y00461965D01*
X00660366Y00458891D01*
X00658951Y00455475D01*
X00658230Y00451849D01*
Y00448151D01*
X00658951Y00444525D01*
X00660366Y00441109D01*
X00662420Y00438035D01*
X00665035Y00435420D01*
X00668109Y00433366D01*
X00671525Y00431951D01*
X00675058Y00431249D01*
Y00415751D01*
X00671525Y00415049D01*
X00668109Y00413634D01*
X00665035Y00411580D01*
X00662420Y00408965D01*
X00660366Y00405891D01*
X00658951Y00402475D01*
X00658230Y00398849D01*
Y00395151D01*
X00658951Y00391525D01*
X00660366Y00388109D01*
X00662420Y00385035D01*
X00665035Y00382420D01*
X00668109Y00380366D01*
X00671525Y00378951D01*
X00675151Y00378230D01*
X00678849D01*
X00682475Y00378951D01*
X00685891Y00380366D01*
X00688965Y00382420D01*
X00691580Y00385035D01*
X00693634Y00388109D01*
X00695049Y00391525D01*
X00695770Y00395151D01*
Y00398849D01*
X00695049Y00402475D01*
X00693634Y00405891D01*
X00691580Y00408965D01*
X00688965Y00411580D01*
X00685891Y00413634D01*
X00682475Y00415049D01*
X00678942Y00415751D01*
Y00431249D01*
X00682475Y00431951D01*
X00685891Y00433366D01*
X00688965Y00435420D01*
X00691580Y00438035D01*
X00693634Y00441109D01*
X00695049Y00444525D01*
X00695770Y00448151D01*
Y00451849D01*
X00695049Y00455475D01*
X00693634Y00458891D01*
X00691580Y00461965D01*
X00688965Y00464580D01*
X00685891Y00466634D01*
X00682475Y00468049D01*
X00678849Y00468770D01*
D02*
G37*
G36*
X00631849Y00415770D02*
X00628151D01*
X00624525Y00415049D01*
X00621109Y00413634D01*
X00618035Y00411580D01*
X00615420Y00408965D01*
X00613366Y00405891D01*
X00611951Y00402475D01*
X00611230Y00398849D01*
Y00395151D01*
X00611951Y00391525D01*
X00613366Y00388109D01*
X00615420Y00385035D01*
X00618035Y00382420D01*
X00621109Y00380366D01*
X00624525Y00378951D01*
X00628151Y00378230D01*
X00631849D01*
X00635475Y00378951D01*
X00638891Y00380366D01*
X00641965Y00382420D01*
X00644580Y00385035D01*
X00646634Y00388109D01*
X00648049Y00391525D01*
X00648770Y00395151D01*
Y00398849D01*
X00648049Y00402475D01*
X00646634Y00405891D01*
X00644580Y00408965D01*
X00641965Y00411580D01*
X00638891Y00413634D01*
X00635475Y00415049D01*
X00631849Y00415770D01*
D02*
G37*
G36*
X00791270Y00377520D02*
X00782730D01*
Y00365980D01*
X00785308D01*
Y00357770D01*
X00782980D01*
Y00346230D01*
X00791520D01*
Y00357770D01*
X00789192D01*
Y00365980D01*
X00791270D01*
Y00370058D01*
X00806561D01*
X00807561Y00368561D01*
X00809139Y00367507D01*
X00811000Y00367137D01*
X00813000D01*
X00814861Y00367507D01*
X00816439Y00368561D01*
X00817493Y00370139D01*
X00817863Y00372000D01*
X00817493Y00373861D01*
X00816439Y00375439D01*
X00814861Y00376493D01*
X00813000Y00376863D01*
X00811000D01*
X00809139Y00376493D01*
X00807561Y00375439D01*
X00806561Y00373942D01*
X00791270D01*
Y00377520D01*
D02*
G37*
G36*
X00772849Y00388520D02*
X00771151D01*
X00769581Y00387870D01*
X00768380Y00386669D01*
X00767730Y00385099D01*
Y00383401D01*
X00768380Y00381831D01*
X00769410Y00380801D01*
Y00377520D01*
X00767730D01*
Y00365980D01*
X00776270D01*
Y00377520D01*
X00774590D01*
Y00380801D01*
X00775620Y00381831D01*
X00776270Y00383401D01*
Y00385099D01*
X00775620Y00386669D01*
X00774419Y00387870D01*
X00772849Y00388520D01*
D02*
G37*
G36*
X00973349Y00786770D02*
X00971651D01*
X00970081Y00786120D01*
X00968880Y00784919D01*
X00968230Y00783349D01*
Y00781651D01*
X00968880Y00780081D01*
X00970081Y00778880D01*
X00971651Y00778230D01*
X00973349D01*
X00974919Y00778880D01*
X00975449Y00779410D01*
X00987677D01*
X00993660Y00773427D01*
Y00456823D01*
X00968677Y00431840D01*
X00860750D01*
X00859759Y00431643D01*
X00858919Y00431081D01*
X00830169Y00402331D01*
X00829607Y00401491D01*
X00829410Y00400500D01*
Y00367270D01*
X00826230D01*
Y00357730D01*
X00837770D01*
Y00367270D01*
X00834590D01*
Y00399427D01*
X00861823Y00426660D01*
X00969750D01*
X00970741Y00426857D01*
X00971581Y00427419D01*
X00998081Y00453919D01*
X00998643Y00454759D01*
X00998840Y00455750D01*
Y00774500D01*
X00998643Y00775491D01*
X00998081Y00776331D01*
X00990581Y00783831D01*
X00989741Y00784393D01*
X00988750Y00784590D01*
X00976256D01*
X00976120Y00784919D01*
X00974919Y00786120D01*
X00973349Y00786770D01*
D02*
G37*
G36*
X00850020Y00358270D02*
X00841480D01*
Y00354942D01*
X00817770D01*
Y00357770D01*
X00806230D01*
Y00348230D01*
X00817770D01*
Y00351058D01*
X00841480D01*
Y00346730D01*
X00843808D01*
Y00328525D01*
X00843956Y00327782D01*
X00844377Y00327152D01*
X00848118Y00323410D01*
X00848118Y00323410D01*
X00848748Y00322989D01*
X00849492Y00322841D01*
X00913662D01*
X00918358Y00318146D01*
Y00315683D01*
X00916869Y00315284D01*
X00914841Y00314114D01*
X00913186Y00312459D01*
X00912016Y00310431D01*
X00911410Y00308170D01*
Y00305830D01*
X00912016Y00303569D01*
X00913186Y00301541D01*
X00914841Y00299886D01*
X00916869Y00298716D01*
X00919130Y00298110D01*
X00921470D01*
X00923731Y00298716D01*
X00925759Y00299886D01*
X00927414Y00301541D01*
X00928584Y00303569D01*
X00929190Y00305830D01*
Y00308170D01*
X00928584Y00310431D01*
X00927414Y00312459D01*
X00925759Y00314114D01*
X00923731Y00315284D01*
X00922242Y00315683D01*
Y00318950D01*
X00922094Y00319693D01*
X00921673Y00320323D01*
X00915840Y00326157D01*
X00915210Y00326578D01*
X00914466Y00326726D01*
X00850296D01*
X00847692Y00329330D01*
Y00346730D01*
X00850020D01*
Y00358270D01*
D02*
G37*
G36*
X00601270Y00345470D02*
Y00341270D01*
X00605470D01*
X00604697Y00343138D01*
X00603138Y00344697D01*
X00601270Y00345470D01*
D02*
G37*
G36*
X00598730D02*
X00596862Y00344697D01*
X00595303Y00343138D01*
X00594530Y00341270D01*
X00598730D01*
Y00345470D01*
D02*
G37*
G36*
X00586270D02*
Y00341270D01*
X00590470D01*
X00589697Y00343138D01*
X00588138Y00344697D01*
X00586270Y00345470D01*
D02*
G37*
G36*
X00583730D02*
X00581862Y00344697D01*
X00580303Y00343138D01*
X00579530Y00341270D01*
X00583730D01*
Y00345470D01*
D02*
G37*
G36*
X00571270D02*
Y00341270D01*
X00575470D01*
X00574697Y00343138D01*
X00573138Y00344697D01*
X00571270Y00345470D01*
D02*
G37*
G36*
X00568730D02*
X00566862Y00344697D01*
X00565303Y00343138D01*
X00564530Y00341270D01*
X00568730D01*
Y00345470D01*
D02*
G37*
G36*
X00556270D02*
Y00341270D01*
X00560470D01*
X00559697Y00343138D01*
X00558138Y00344697D01*
X00556270Y00345470D01*
D02*
G37*
G36*
X00553730D02*
X00551862Y00344697D01*
X00550303Y00343138D01*
X00549530Y00341270D01*
X00553730D01*
Y00345470D01*
D02*
G37*
G36*
X00541270D02*
Y00341270D01*
X00545470D01*
X00544697Y00343138D01*
X00543138Y00344697D01*
X00541270Y00345470D01*
D02*
G37*
G36*
X00538730D02*
X00536862Y00344697D01*
X00535303Y00343138D01*
X00534530Y00341270D01*
X00538730D01*
Y00345470D01*
D02*
G37*
G36*
X00605470Y00338730D02*
X00601270D01*
Y00334530D01*
X00603138Y00335303D01*
X00604697Y00336862D01*
X00605470Y00338730D01*
D02*
G37*
G36*
X00598730D02*
X00594530D01*
X00595303Y00336862D01*
X00596862Y00335303D01*
X00598730Y00334530D01*
Y00338730D01*
D02*
G37*
G36*
X00590470D02*
X00586270D01*
Y00334530D01*
X00588138Y00335303D01*
X00589697Y00336862D01*
X00590470Y00338730D01*
D02*
G37*
G36*
X00583730D02*
X00579530D01*
X00580303Y00336862D01*
X00581862Y00335303D01*
X00583730Y00334530D01*
Y00338730D01*
D02*
G37*
G36*
X00575470D02*
X00571270D01*
Y00334530D01*
X00573138Y00335303D01*
X00574697Y00336862D01*
X00575470Y00338730D01*
D02*
G37*
G36*
X00568730D02*
X00564530D01*
X00565303Y00336862D01*
X00566862Y00335303D01*
X00568730Y00334530D01*
Y00338730D01*
D02*
G37*
G36*
X00560470D02*
X00556270D01*
Y00334530D01*
X00558138Y00335303D01*
X00559697Y00336862D01*
X00560470Y00338730D01*
D02*
G37*
G36*
X00553730D02*
X00549530D01*
X00550303Y00336862D01*
X00551862Y00335303D01*
X00553730Y00334530D01*
Y00338730D01*
D02*
G37*
G36*
X00545470D02*
X00541270D01*
Y00334530D01*
X00543138Y00335303D01*
X00544697Y00336862D01*
X00545470Y00338730D01*
D02*
G37*
G36*
X00538730D02*
X00534530D01*
X00535303Y00336862D01*
X00536862Y00335303D01*
X00538730Y00334530D01*
Y00338730D01*
D02*
G37*
G36*
X00755849Y00321770D02*
X00754151D01*
X00752581Y00321120D01*
X00751551Y00320090D01*
X00747270D01*
Y00321770D01*
X00735730D01*
Y00313230D01*
X00747270D01*
Y00314910D01*
X00751551D01*
X00752581Y00313880D01*
X00754151Y00313230D01*
X00755849D01*
X00757419Y00313880D01*
X00758620Y00315081D01*
X00759270Y00316651D01*
Y00318349D01*
X00758620Y00319919D01*
X00757419Y00321120D01*
X00755849Y00321770D01*
D02*
G37*
G36*
X00733540Y00323040D02*
X00727770D01*
Y00318770D01*
X00733540D01*
Y00323040D01*
D02*
G37*
G36*
X00725230D02*
X00719460D01*
Y00318770D01*
X00725230D01*
Y00323040D01*
D02*
G37*
G36*
X00733540Y00316230D02*
X00727770D01*
Y00311960D01*
X00733540D01*
Y00316230D01*
D02*
G37*
G36*
X00725230D02*
X00719460D01*
Y00311960D01*
X00725230D01*
Y00316230D01*
D02*
G37*
G36*
X00870670Y00315890D02*
X00868330D01*
X00866069Y00315284D01*
X00864041Y00314114D01*
X00862386Y00312459D01*
X00861216Y00310431D01*
X00860817Y00308942D01*
X00846333D01*
X00845934Y00310431D01*
X00844764Y00312459D01*
X00843109Y00314114D01*
X00841081Y00315284D01*
X00838820Y00315890D01*
X00836480D01*
X00834219Y00315284D01*
X00832191Y00314114D01*
X00830536Y00312459D01*
X00829366Y00310431D01*
X00828760Y00308170D01*
Y00305830D01*
X00829366Y00303569D01*
X00830536Y00301541D01*
X00832191Y00299886D01*
X00834219Y00298716D01*
X00836480Y00298110D01*
X00838820D01*
X00841081Y00298716D01*
X00843109Y00299886D01*
X00844764Y00301541D01*
X00845934Y00303569D01*
X00846333Y00305058D01*
X00860817D01*
X00861216Y00303569D01*
X00862386Y00301541D01*
X00864041Y00299886D01*
X00866069Y00298716D01*
X00868330Y00298110D01*
X00870670D01*
X00872931Y00298716D01*
X00874959Y00299886D01*
X00876614Y00301541D01*
X00877784Y00303569D01*
X00878390Y00305830D01*
Y00308170D01*
X00877784Y00310431D01*
X00876614Y00312459D01*
X00874959Y00314114D01*
X00872931Y00315284D01*
X00870670Y00315890D01*
D02*
G37*
G36*
X00896070D02*
X00893730D01*
X00891469Y00315284D01*
X00889441Y00314114D01*
X00887786Y00312459D01*
X00886616Y00310431D01*
X00886010Y00308170D01*
Y00305830D01*
X00886616Y00303569D01*
X00887786Y00301541D01*
X00889441Y00299886D01*
X00891469Y00298716D01*
X00893730Y00298110D01*
X00896070D01*
X00898331Y00298716D01*
X00900359Y00299886D01*
X00902014Y00301541D01*
X00903184Y00303569D01*
X00903790Y00305830D01*
Y00308170D01*
X00903184Y00310431D01*
X00902014Y00312459D01*
X00900359Y00314114D01*
X00898331Y00315284D01*
X00896070Y00315890D01*
D02*
G37*
G36*
X00718540Y00297040D02*
X00708270D01*
Y00288770D01*
X00718540D01*
Y00297040D01*
D02*
G37*
G36*
X00705730D02*
X00695460D01*
Y00288770D01*
X00705730D01*
Y00297040D01*
D02*
G37*
G36*
X00641540D02*
X00631270D01*
Y00288770D01*
X00641540D01*
Y00297040D01*
D02*
G37*
G36*
X00628730D02*
X00618460D01*
Y00288770D01*
X00628730D01*
Y00297040D01*
D02*
G37*
G36*
X00718540Y00286230D02*
X00708270D01*
Y00277960D01*
X00718540D01*
Y00286230D01*
D02*
G37*
G36*
X00705730D02*
X00695460D01*
Y00277960D01*
X00705730D01*
Y00286230D01*
D02*
G37*
G36*
X00641540D02*
X00631270D01*
Y00277960D01*
X00641540D01*
Y00286230D01*
D02*
G37*
G36*
X00628730D02*
X00618460D01*
Y00277960D01*
X00628730D01*
Y00286230D01*
D02*
G37*
G36*
X00788020Y00315890D02*
X00785680D01*
X00783419Y00315284D01*
X00781391Y00314114D01*
X00779736Y00312459D01*
X00778566Y00310431D01*
X00777960Y00308170D01*
Y00305830D01*
X00778566Y00303569D01*
X00779736Y00301541D01*
X00781391Y00299886D01*
X00783419Y00298716D01*
X00784908Y00298317D01*
Y00267020D01*
X00782730D01*
Y00255480D01*
X00791270D01*
Y00267020D01*
X00788792D01*
Y00298317D01*
X00790281Y00298716D01*
X00792309Y00299886D01*
X00793964Y00301541D01*
X00795134Y00303569D01*
X00795740Y00305830D01*
Y00308170D01*
X00795134Y00310431D01*
X00793964Y00312459D01*
X00792309Y00314114D01*
X00790281Y00315284D01*
X00788020Y00315890D01*
D02*
G37*
G36*
X00776520Y00357770D02*
X00767980D01*
Y00346230D01*
X00770058D01*
Y00267020D01*
X00767730D01*
Y00255480D01*
X00776270D01*
Y00267020D01*
X00773942D01*
Y00346230D01*
X00776520D01*
Y00357770D01*
D02*
G37*
G36*
X00678500Y00758354D02*
X00639500D01*
X00637834Y00758022D01*
X00636422Y00757078D01*
X00635478Y00755666D01*
X00635146Y00754000D01*
Y00748000D01*
X00635478Y00746334D01*
X00636422Y00744921D01*
X00637834Y00743978D01*
X00639500Y00743646D01*
X00657058D01*
Y00737020D01*
X00654730D01*
Y00725480D01*
X00657058D01*
Y00655054D01*
X00649445Y00647442D01*
X00527750D01*
X00527007Y00647294D01*
X00526377Y00646873D01*
X00526376Y00646873D01*
X00503127Y00623623D01*
X00502705Y00622993D01*
X00502558Y00622250D01*
Y00349000D01*
X00502705Y00348257D01*
X00503127Y00347627D01*
X00606376Y00244377D01*
X00606377Y00244377D01*
X00607007Y00243955D01*
X00607750Y00243808D01*
X00607750Y00243808D01*
X00802250D01*
X00802993Y00243955D01*
X00803623Y00244377D01*
X00813623Y00254377D01*
X00814044Y00255007D01*
X00814192Y00255750D01*
Y00298317D01*
X00815681Y00298716D01*
X00817709Y00299886D01*
X00819364Y00301541D01*
X00820534Y00303569D01*
X00821140Y00305830D01*
Y00308170D01*
X00820534Y00310431D01*
X00819364Y00312459D01*
X00817709Y00314114D01*
X00815681Y00315284D01*
X00813420Y00315890D01*
X00811080D01*
X00808819Y00315284D01*
X00806791Y00314114D01*
X00805136Y00312459D01*
X00803966Y00310431D01*
X00803360Y00308170D01*
Y00305830D01*
X00803966Y00303569D01*
X00805136Y00301541D01*
X00806791Y00299886D01*
X00808819Y00298716D01*
X00810308Y00298317D01*
Y00256555D01*
X00801445Y00247692D01*
X00608554D01*
X00506442Y00349804D01*
Y00621445D01*
X00528554Y00643558D01*
X00650250D01*
X00650993Y00643706D01*
X00651623Y00644127D01*
X00660373Y00652877D01*
X00660373Y00652877D01*
X00660795Y00653507D01*
X00660942Y00654250D01*
X00660942Y00654250D01*
Y00725480D01*
X00663270D01*
Y00737020D01*
X00660942D01*
Y00743646D01*
X00678500D01*
X00680166Y00743978D01*
X00681579Y00744921D01*
X00682522Y00746334D01*
X00682854Y00748000D01*
Y00754000D01*
X00682522Y00755666D01*
X00681579Y00757078D01*
X00680166Y00758022D01*
X00678500Y00758354D01*
D02*
G37*
%LPD*%
G36*
X00859460Y00633230D02*
X00860270Y00633230D01*
X00860910D01*
X00861808Y00632332D01*
Y00620805D01*
X00859485Y00618482D01*
X00826379D01*
X00825798Y00619659D01*
X00825813Y00619752D01*
X00826373Y00620127D01*
X00832623Y00626376D01*
X00832623Y00626377D01*
X00833045Y00627007D01*
X00833192Y00627750D01*
X00833192Y00627750D01*
Y00632332D01*
X00834090Y00633230D01*
X00835540Y00633230D01*
X00839960D01*
X00840770Y00633230D01*
X00842040Y00633230D01*
X00846460D01*
X00847270Y00633230D01*
X00848540Y00633230D01*
X00852960D01*
X00853770Y00633230D01*
X00855040Y00633230D01*
X00859460D01*
D02*
G37*
D13*
X00857250Y00707626D02*
X00858802Y00709178D01*
X00857250Y00681000D02*
Y00707626D01*
X00858802Y00715552D02*
X00859250Y00716000D01*
X00858802Y00709178D02*
Y00715552D01*
X00859250Y00716000D02*
Y00731000D01*
X00968250Y00993500D02*
Y01054250D01*
X00939250Y01083250D02*
X00968250Y01054250D01*
X00795750Y01083250D02*
X00939250D01*
X00835904Y00964154D02*
X00838283Y00966533D01*
Y00978232D01*
X00777524Y00964154D02*
X00835904D01*
X00838283Y00978232D02*
X00838300Y00978250D01*
X00883500D01*
X00890000Y00971750D01*
Y00915750D02*
Y00971750D01*
X00875000Y00900750D02*
X00890000Y00915750D01*
X00875000Y00865000D02*
Y00900750D01*
X00690000Y01045750D02*
X00695250Y01051000D01*
Y01058500D01*
X00646000Y01045750D02*
X00690000D01*
X00591750Y00910000D02*
X00612000Y00889750D01*
X00661750Y00825250D02*
X00673750Y00837250D01*
X00568500Y00825250D02*
X00661750D01*
X00538846Y00854904D02*
X00568500Y00825250D01*
X00591750Y00910000D02*
Y00984500D01*
X00549500Y01026750D02*
X00591750Y00984500D01*
X00549500Y01026750D02*
Y01054750D01*
X00564500Y01069750D01*
X00675250D01*
X00723150Y00613000D02*
X00738750D01*
X00722500Y00613650D02*
X00723150Y00613000D01*
X00630000Y00503000D02*
Y00546500D01*
X00855500Y00554500D02*
X00855500Y00554500D01*
Y00567500D01*
X00780730Y01075230D02*
X00787730D01*
X00795750Y01083250D01*
X00776000Y01069500D02*
Y01070500D01*
X00780730Y01075230D01*
X00675250Y01062832D02*
X00679582Y01058500D01*
X00675250Y01062832D02*
Y01069750D01*
X00679582Y01058500D02*
X00695250D01*
X00710250D01*
X00756738Y01054500D02*
X00795500D01*
X00905500D01*
X00904000Y00574750D02*
Y00589000D01*
X00896750Y00567500D02*
X00904000Y00574750D01*
X00855500Y00567500D02*
X00896750D01*
X00969500Y00384500D02*
X00983453D01*
X00983498Y00384455D01*
X00590500Y00613500D02*
X00590650Y00613650D01*
X00722500D01*
X00520000Y00755598D02*
Y00839904D01*
Y00755598D02*
X00524598Y00751000D01*
X00533000D01*
X00596000Y00737750D02*
Y00751000D01*
Y00737750D02*
X00602500Y00731250D01*
X00644000D01*
X00956750Y00352500D02*
X00969500Y00365250D01*
Y00384500D01*
X00860750Y00352500D02*
X00956750D01*
X00755250Y01055988D02*
Y01067250D01*
Y01055988D02*
X00756738Y01054500D01*
X00753000Y01069500D02*
X00755250Y01067250D01*
X00751000Y01067500D02*
X00753000Y01069500D01*
X00726837Y01035000D02*
X00751000Y01059163D01*
Y01067500D01*
X00625000Y01035000D02*
X00726837D01*
X00905500Y01054500D02*
X00925000Y01035000D01*
X00722375Y00571125D02*
X00722500Y00571250D01*
X00694000Y00571000D02*
X00694125Y00571125D01*
X00722375D01*
X00722500Y00571250D02*
Y00585500D01*
Y00571250D02*
X00722500Y00571250D01*
X00722500Y00600950D02*
X00722500Y00600950D01*
X00722500Y00585500D02*
Y00600950D01*
X00857250Y00681000D02*
X00862000Y00676250D01*
X00909500D01*
X00924500Y00661250D01*
Y00644600D02*
Y00661250D01*
X00945900Y00644600D02*
X00951500Y00639000D01*
X00924500Y00644600D02*
X00945900D01*
X00951500Y00619000D02*
Y00639000D01*
X00924500Y00619750D02*
Y00644600D01*
Y00619750D02*
X00937070Y00607180D01*
Y00573595D02*
Y00607180D01*
X00932700Y00569225D02*
X00937070Y00573595D01*
X00932700Y00500000D02*
Y00569225D01*
X00741500Y00317500D02*
X00755000D01*
X00762375Y00850125D02*
Y00863625D01*
X00762250Y00863750D02*
X00762375Y00863625D01*
Y00850125D02*
X00762500Y00850000D01*
X00973000Y00782000D02*
X00988750D01*
X00972500Y00782500D02*
X00973000Y00782000D01*
X00988750D02*
X00996250Y00774500D01*
Y00455750D02*
Y00774500D01*
X00969750Y00429250D02*
X00996250Y00455750D01*
X00860750Y00429250D02*
X00969750D01*
X00832000Y00400500D02*
X00860750Y00429250D01*
X00832000Y00362500D02*
Y00400500D01*
X00721211Y00935940D02*
X00721521Y00936250D01*
X00730250D01*
X00737500Y00929000D01*
Y00850000D02*
Y00929000D01*
Y00850000D02*
X00762500D01*
X00528500Y00974250D02*
X00554500D01*
X00520000Y00965750D02*
X00528500Y00974250D01*
X00520000Y00882000D02*
Y00965750D01*
X00730000Y01053000D02*
Y01069500D01*
X00772000Y00371750D02*
Y00384250D01*
X00772000Y00384250D01*
X00673750Y00837250D02*
Y00963000D01*
X00520000Y00854904D02*
X00538846D01*
X00520000D02*
Y00867000D01*
X00710250Y01073500D02*
X00728750D01*
X00695250D02*
X00710250D01*
X00730000Y01072250D02*
Y01095000D01*
X00728750Y01073500D02*
X00730000Y01072250D01*
X00797750Y01150750D02*
X00798000Y01151000D01*
X00797750Y01098500D02*
Y01150750D01*
X00794250Y01095000D02*
X00797750Y01098500D01*
X00770000Y01095000D02*
X00794250D01*
X00762500Y01151000D02*
X00798000D01*
X00750000Y01163500D02*
X00762500Y01151000D01*
X00750000Y01163500D02*
Y01186000D01*
D14*
X00940500Y01264350D02*
G03*
X01010350Y01194500I00069850J00000000D01*
G01*
X00489650D02*
G03*
X00559500Y01264350I00000000J00069850D01*
G01*
X01010350Y00305500D02*
G03*
X00940500Y00235650I00000000J-00069850D01*
G01*
X00559500D02*
G03*
X00489650Y00305500I-00069850J00000000D01*
G01*
X01010350D02*
X01010350Y01194500D01*
X00559500Y01264350D02*
X00940500D01*
X00489650Y00305500D02*
X00489650Y01194500D01*
X00559500Y00235650D02*
X00940500D01*
D15*
X00818250Y00641250D02*
D03*
X00876750D02*
D03*
X00850750D02*
D03*
X00857250D02*
D03*
X00863750D02*
D03*
X00870250D02*
D03*
X00824750D02*
D03*
X00831250D02*
D03*
X00837750D02*
D03*
X00844250D02*
D03*
X00818250Y00698750D02*
D03*
X00844250D02*
D03*
X00837750D02*
D03*
X00831250D02*
D03*
X00824750D02*
D03*
X00870250D02*
D03*
X00863750D02*
D03*
X00857250D02*
D03*
X00850750D02*
D03*
D16*
X00876750D02*
D03*
D17*
X00966500Y00644600D02*
D03*
D18*
Y00695400D02*
D03*
X00924500D02*
D03*
Y00644600D02*
D03*
D19*
X00630000Y00332500D02*
D03*
X00707000D02*
D03*
Y00287500D02*
D03*
X00630000D02*
D03*
D20*
X00722500Y00585500D02*
D03*
X00737500D02*
D03*
X00772250Y00352000D02*
D03*
X00787250D02*
D03*
X00844250Y00731000D02*
D03*
X00859250D02*
D03*
X00844250Y00716000D02*
D03*
X00859250D02*
D03*
X00659000Y00731250D02*
D03*
X00644000D02*
D03*
X00840500Y00567500D02*
D03*
X00855500D02*
D03*
X00772000Y00371750D02*
D03*
X00787000D02*
D03*
X00772000Y00261250D02*
D03*
X00787000D02*
D03*
X00845750Y00352500D02*
D03*
X00860750D02*
D03*
X00762500Y00850000D02*
D03*
X00777500D02*
D03*
X00966500Y00619000D02*
D03*
X00951500D02*
D03*
X00885250Y00499750D02*
D03*
X00870250D02*
D03*
X00737500Y00850000D02*
D03*
X00722500D02*
D03*
D21*
X00924750Y00813250D02*
D03*
Y00828250D02*
D03*
X00706000Y00626000D02*
D03*
Y00641000D02*
D03*
X00710250Y01058500D02*
D03*
Y01073500D02*
D03*
X00695250Y01058500D02*
D03*
Y01073500D02*
D03*
X00795500Y01069500D02*
D03*
Y01054500D02*
D03*
X00726500Y00317500D02*
D03*
Y00332500D02*
D03*
X00818250Y00863750D02*
D03*
Y00848750D02*
D03*
X00520000Y00882000D02*
D03*
Y00867000D02*
D03*
Y00854904D02*
D03*
Y00839904D02*
D03*
X00741500Y00317500D02*
D03*
Y00332500D02*
D03*
X00969500Y00399500D02*
D03*
Y00384500D02*
D03*
D22*
X00753000Y01069500D02*
D03*
X00730000D02*
D03*
X00776000D02*
D03*
D23*
X00753000Y01007500D02*
D03*
D24*
X00722500Y00639050D02*
D03*
Y00626350D02*
D03*
Y00613650D02*
D03*
Y00600950D02*
D03*
X00777500Y00639050D02*
D03*
Y00626350D02*
D03*
Y00613650D02*
D03*
D25*
Y00600950D02*
D03*
D26*
X00812000Y00372000D02*
D03*
X00818250Y00878000D02*
D03*
D27*
X00832000Y00362500D02*
D03*
X00812000Y00353000D02*
D03*
X00798250Y00887500D02*
D03*
X00818250Y00897000D02*
D03*
D28*
X00730000Y01095000D02*
D03*
X00770000D02*
D03*
D51*
X00787000Y01021500D02*
X00836000D01*
X00779125Y00983875D02*
Y01013625D01*
X00787000Y01021500D01*
X00759925Y00964675D02*
X00779125Y00983875D01*
X00731675Y00964675D02*
X00759925D01*
X00861290Y00988210D02*
X00953540D01*
X00854250Y00995250D02*
X00861290Y00988210D01*
X00854250Y00995250D02*
Y01034750D01*
X00570500Y00841750D02*
X00630750D01*
X00554000Y00858250D02*
X00570500Y00841750D01*
X00630750D02*
X00645750Y00856750D01*
Y00889250D01*
X00600000Y00935000D02*
Y01035000D01*
Y00935000D02*
X00645750Y00889250D01*
X00565052Y00989290D02*
X00584250Y00970092D01*
Y00900000D02*
X00600000Y00884250D01*
X00584250Y00900000D02*
Y00970092D01*
X00900500Y01000250D02*
Y01034500D01*
X00953540Y00988210D02*
X00985710Y00956040D01*
X00900500Y01000250D02*
X00910000Y00990750D01*
X00954592D02*
X00988250Y00957092D01*
X00910000Y00990750D02*
X00953250D01*
X00954592D01*
X00900000Y01035000D02*
X00900500Y01034500D01*
X00893250Y00636750D02*
X00913000Y00617000D01*
X00893250Y00636750D02*
Y00655500D01*
X00913000Y00617000D02*
X00913500D01*
X00931250Y00599250D01*
X00909750Y00557000D02*
X00931250Y00578500D01*
Y00599250D01*
X00872750Y00557000D02*
X00909750D01*
X00859750Y00544000D02*
X00872750Y00557000D01*
X00566000Y00545500D02*
Y00627500D01*
X00518750Y00498250D02*
X00566000Y00545500D01*
Y00627500D02*
X00576500Y00638000D01*
X00583000Y00503000D02*
Y00543500D01*
X00703460Y00657210D02*
Y00962460D01*
X00684250Y00638000D02*
X00703460Y00657210D01*
X00706000Y00641000D02*
Y00950500D01*
X00703460Y00962460D02*
X00721500Y00980500D01*
X00706000Y00950500D02*
X00722500Y00967000D01*
X00768500Y00443000D02*
X00844375D01*
X00859750Y00458375D02*
Y00544000D01*
X00844375Y00443000D02*
X00859750Y00458375D01*
X00947604Y00774920D02*
X00993330Y00820646D01*
X00945500Y00780000D02*
X00988250Y00822750D01*
Y00955750D02*
Y00957092D01*
X00993330Y00820646D02*
Y01154670D01*
X00988250Y00822750D02*
Y00955750D01*
X00990790Y00821698D02*
Y01153618D01*
X00985710Y00833210D02*
Y00956040D01*
X00965750Y00813250D02*
X00985710Y00833210D01*
X00946552Y00777460D02*
X00990790Y00821698D01*
X00909210Y01238790D02*
X00993330Y01154670D01*
X00908158Y01236250D02*
X00990790Y01153618D01*
X00741500Y00416000D02*
X00768500Y00443000D01*
X00514000Y00986750D02*
X00564000D01*
X00502540Y01001802D02*
X00515052Y00989290D01*
X00500000Y01000750D02*
X00514000Y00986750D01*
X00515052Y00989290D02*
X00565052D01*
X00564000Y00986750D02*
X00581250Y00969500D01*
X00500000Y01000750D02*
Y01146342D01*
X00502540Y01001802D02*
Y01145290D01*
X00722500Y00639050D02*
Y00652750D01*
X00708830Y00941830D02*
X00731675Y00964675D01*
X00708830Y00666420D02*
Y00941830D01*
Y00666420D02*
X00722500Y00652750D01*
X00677000Y00397000D02*
Y00450000D01*
X00658000Y00478000D02*
X00708000D01*
X00630000Y00450000D02*
X00658000Y00478000D01*
X00708000D02*
X00727750Y00458250D01*
X00846000D02*
X00853500Y00465750D01*
X00727750Y00458250D02*
X00846000D01*
X00853500Y00465750D02*
Y00538750D01*
X00840500Y00551750D02*
Y00567500D01*
Y00551750D02*
X00853500Y00538750D01*
X00844000Y00659750D02*
X00844250Y00659500D01*
Y00641250D02*
Y00659500D01*
X00818000Y00813250D02*
X00818250Y00813500D01*
Y00848750D01*
X00786000Y00771184D02*
X00794816Y00780000D01*
X00788540Y00770132D02*
X00795868Y00777460D01*
X00946552D01*
X00791080Y00732104D02*
X00798434Y00724750D01*
X00788540Y00731052D02*
X00798092Y00721500D01*
X00786000Y00730000D02*
Y00771184D01*
X00791080Y00769080D02*
X00796920Y00774920D01*
X00947604D01*
X00794816Y00780000D02*
X00945500D01*
X00791080Y00732104D02*
Y00769080D01*
X00788540Y00731052D02*
Y00770132D01*
X00818250Y00863750D02*
Y00878000D01*
X00731050Y00804200D02*
X00750000D01*
X00722500Y00812750D02*
X00731050Y00804200D01*
X00722500Y00812750D02*
Y00850000D01*
X00773700Y00887300D02*
X00777500Y00883500D01*
Y00850000D02*
Y00883500D01*
X00750000Y00887300D02*
X00773700D01*
X00789800Y00912700D02*
X00798250Y00904250D01*
Y00887500D02*
Y00904250D01*
X00750000Y00912700D02*
X00789800D01*
X00745750Y01038250D02*
X00850750D01*
X00854250Y01034750D01*
X00745500Y01038000D02*
X00745750Y01038250D01*
X00924750Y00813250D02*
X00965750D01*
X00659000Y00654250D02*
Y00731250D01*
X00576500Y00638000D02*
X00684250D01*
X00527750Y00645500D02*
X00650250D01*
X00583000Y00543500D02*
X00603000Y00563500D01*
X00650250Y00645500D02*
X00659000Y00654250D01*
Y00731250D02*
Y00751000D01*
X00518750Y00412750D02*
Y00498250D01*
X00603000Y00563500D02*
X00744809D01*
X00750000Y00611500D02*
X00757750Y00603750D01*
X00750000Y00611500D02*
Y00778800D01*
X00757750Y00576441D02*
Y00603750D01*
X00744809Y00563500D02*
X00757750Y00576441D01*
X00924750Y00828250D02*
X00925000Y00828500D01*
Y00865000D01*
X00966500Y00619000D02*
Y00644600D01*
X00869500Y00500500D02*
Y00537500D01*
Y00500500D02*
X00870250Y00499750D01*
X00806500Y00641250D02*
X00818250D01*
X00801750Y00659750D02*
X00822750D01*
X00797000Y00617750D02*
Y00655000D01*
X00801750Y00659750D01*
X00792900Y00613650D02*
X00797000Y00617750D01*
X00825000Y00621500D02*
X00831250Y00627750D01*
Y00641250D01*
X00812750Y00621500D02*
X00825000D01*
X00792200Y00600950D02*
X00812750Y00621500D01*
X00777500Y00600950D02*
X00792200D01*
X00824750Y00641250D02*
Y00657750D01*
X00822750Y00659750D02*
X00824750Y00657750D01*
X00777500Y00613650D02*
X00792900D01*
X00755750Y00635250D02*
X00764650Y00626350D01*
X00777500D01*
X00755750Y00635250D02*
Y00664500D01*
X00771000Y00679750D01*
X00830000D01*
X00837750Y00672000D01*
Y00641250D02*
Y00672000D01*
X00844250Y00669000D02*
Y00698750D01*
Y00669000D02*
X00847500Y00665750D01*
X00883000D01*
X00707000Y00332500D02*
X00741500D01*
X00741500Y00332500D02*
Y00416000D01*
X00883000Y00665750D02*
X00893250Y00655500D01*
X00885250Y00499750D02*
X00885500Y00500000D01*
X00907300D01*
X00841000Y00568000D02*
Y00589000D01*
X00840500Y00567500D02*
X00841000Y00568000D01*
X00870250Y00619250D02*
Y00641250D01*
X00819500Y00614000D02*
X00865000D01*
X00870250Y00619250D01*
X00838500Y00470750D02*
X00844500Y00476750D01*
X00807500Y00470750D02*
X00838500D01*
X00844500Y00476750D02*
Y00529842D01*
X00814040Y00560302D02*
Y00608540D01*
Y00560302D02*
X00844500Y00529842D01*
X00811500Y00559250D02*
X00829700Y00541050D01*
X00811500Y00559250D02*
Y00609592D01*
X00829700Y00487750D02*
Y00541050D01*
X00811500Y00609592D02*
X00818448Y00616540D01*
X00814040Y00608540D02*
X00819500Y00614000D01*
X00818448Y00616540D02*
X00860290D01*
X00863750Y00620000D01*
Y00641250D01*
X00804300Y00473950D02*
X00807500Y00470750D01*
X00804300Y00473950D02*
Y00487750D01*
X00741500Y00332500D02*
X00741500Y00332500D01*
X00772000Y00261250D02*
Y00351750D01*
X00630000Y00332500D02*
X00707000D01*
X00870250Y00698750D02*
Y00727000D01*
X00874500Y00731250D01*
X00920500D01*
X00924500Y00727250D01*
Y00695400D02*
Y00727250D01*
X00600000Y00865000D02*
Y00884250D01*
X00554000Y00876500D02*
X00581250Y00903750D01*
X00554000Y00858250D02*
Y00876500D01*
X00581250Y00903750D02*
Y00969500D01*
X00500000Y01146342D02*
X00592448Y01238790D01*
X00502540Y01145290D02*
X00593500Y01236250D01*
X00908158D01*
X00592448Y01238790D02*
X00909210D01*
X00786000Y00730000D02*
X00799000Y00717000D01*
X00798092Y00721500D02*
X00823250D01*
X00831250Y00698750D02*
Y00713500D01*
X00823250Y00721500D02*
X00831250Y00713500D01*
X00799000Y00717000D02*
X00819500D01*
X00824750Y00698750D02*
Y00711750D01*
X00819500Y00717000D02*
X00824750Y00711750D01*
X00837750Y00698750D02*
Y00716000D01*
X00829000Y00724750D02*
X00837750Y00716000D01*
X00798434Y00724750D02*
X00829000D01*
X00721500Y00980500D02*
X00752250D01*
X00722150Y00626000D02*
X00722500Y00626350D01*
X00706000Y00626000D02*
X00722150D01*
X00504500Y00622250D02*
X00527750Y00645500D01*
X00534500Y00397000D02*
X00583000D01*
X00518750Y00412750D02*
X00534500Y00397000D01*
X00914466Y00324784D02*
X00920300Y00318950D01*
Y00307000D02*
Y00318950D01*
X00849492Y00324784D02*
X00914466D01*
X00845750Y00328525D02*
X00849492Y00324784D01*
X00845750Y00328525D02*
Y00352500D01*
X00845250Y00353000D02*
X00845750Y00352500D01*
X00812000Y00353000D02*
X00845250D01*
X00787250Y00372000D02*
X00787250Y00372000D01*
Y00352000D02*
Y00372000D01*
X00787250Y00372000D02*
X00812000D01*
X00772000Y00351750D02*
X00772250Y00352000D01*
X00786850Y00261400D02*
Y00307000D01*
Y00261400D02*
X00787000Y00261250D01*
X00837650Y00307000D02*
X00869500D01*
X00802250Y00245750D02*
X00812250Y00255750D01*
Y00307000D01*
X00607750Y00245750D02*
X00802250D01*
X00504500Y00349000D02*
X00607750Y00245750D01*
X00504500Y00349000D02*
Y00622250D01*
D52*
X00753500Y00487750D02*
D03*
X00829700D02*
D03*
X00804300D02*
D03*
X00778900D02*
D03*
X00750000Y00887300D02*
D03*
Y00912700D02*
D03*
Y00804200D02*
D03*
Y00778800D02*
D03*
X00837650Y00307000D02*
D03*
X00812250D02*
D03*
X00786850D02*
D03*
X00869500D02*
D03*
X00894900D02*
D03*
X00920300D02*
D03*
X00907300Y00500000D02*
D03*
X00932700D02*
D03*
D53*
X00596000Y00751000D02*
D03*
Y00589000D02*
D03*
X00659000Y00751000D02*
D03*
Y00589000D02*
D03*
X00533000Y00751000D02*
D03*
Y00589000D02*
D03*
X00904000D02*
D03*
Y00751000D02*
D03*
X00841000Y00589000D02*
D03*
Y00751000D02*
D03*
X00967000Y00589000D02*
D03*
Y00751000D02*
D03*
D54*
X00944000Y00935000D02*
D03*
X00856000D02*
D03*
X00644000Y01105000D02*
D03*
X00556000D02*
D03*
X00644000Y00935000D02*
D03*
X00556000D02*
D03*
X00944000Y01105000D02*
D03*
X00856000D02*
D03*
D55*
X00875000Y00865000D02*
D03*
X00925000D02*
D03*
X00900000D02*
D03*
X00575000Y01035000D02*
D03*
X00625000D02*
D03*
X00600000D02*
D03*
X00575000Y00865000D02*
D03*
X00625000D02*
D03*
X00600000D02*
D03*
X00875000Y01035000D02*
D03*
X00925000D02*
D03*
X00900000D02*
D03*
D56*
X00798000Y01148000D02*
D03*
D57*
X00750000Y01123000D02*
D03*
Y01183000D02*
D03*
D58*
X00630000Y00503000D02*
D03*
Y00397000D02*
D03*
Y00450000D02*
D03*
X00677000Y00503000D02*
D03*
Y00397000D02*
D03*
Y00450000D02*
D03*
X00583000Y00503000D02*
D03*
Y00397000D02*
D03*
Y00450000D02*
D03*
D59*
X00740000Y00675000D02*
D03*
Y00690000D02*
D03*
Y00705000D02*
D03*
Y00720000D02*
D03*
Y00735000D02*
D03*
X00540000Y00340000D02*
D03*
X00555000D02*
D03*
X00570000D02*
D03*
X00585000D02*
D03*
X00600000D02*
D03*
X00865000Y00410000D02*
D03*
X00880000D02*
D03*
X00895000D02*
D03*
X00910000D02*
D03*
X00925000D02*
D03*
X00610000Y00800000D02*
D03*
X00625000D02*
D03*
X00640000D02*
D03*
X00655000D02*
D03*
X00670000D02*
D03*
X00855000Y01205000D02*
D03*
X00870000D02*
D03*
X00885000D02*
D03*
X00900000D02*
D03*
X00915000D02*
D03*
X00665000D02*
D03*
X00650000D02*
D03*
X00635000D02*
D03*
X00620000D02*
D03*
X00605000D02*
D03*
X00968250Y00993500D02*
D03*
X00777524Y00964154D02*
D03*
X00838283Y00978232D02*
D03*
X00646000Y01045750D02*
D03*
X00612000Y00889750D02*
D03*
X00738750Y00613000D02*
D03*
X00630000Y00546500D02*
D03*
X00855500Y00554500D02*
D03*
X00795750Y01083250D02*
D03*
X00675250Y01069750D02*
D03*
X00983498Y00384455D02*
D03*
X00590500Y00613500D02*
D03*
X00694000Y00571000D02*
D03*
X00722500Y00571250D02*
D03*
X00755000Y00317500D02*
D03*
X00762250Y00863750D02*
D03*
X00972500Y00782500D02*
D03*
X00721211Y00935940D02*
D03*
X00554500Y00974250D02*
D03*
X00730000Y01053000D02*
D03*
X00772000Y00384250D02*
D03*
X00673750Y00963000D02*
D03*
X00722500Y00967000D02*
D03*
X00844000Y00659750D02*
D03*
X00818000Y00813250D02*
D03*
X00745500Y01038000D02*
D03*
X00869500Y00537500D02*
D03*
X00806500Y00641250D02*
D03*
X00836000Y01021500D02*
D03*
X00752250Y00980500D02*
D03*
M02*
