G04*
G04 #@! TF.GenerationSoftware,Altium Limited,Altium Designer,21.6.4 (81)*
G04*
G04 Layer_Color=32896*
%FSAX44Y44*%
%MOMM*%
G71*
G04*
G04 #@! TF.SameCoordinates,1A77CDA6-7C2D-4FE3-B1CB-ECEED33A992D*
G04*
G04*
G04 #@! TF.FilePolarity,Positive*
G04*
G01*
G75*
%ADD10C,0.2000*%
%ADD12C,0.5000*%
%ADD13C,0.2540*%
%ADD14C,0.0500*%
D10*
X00493500Y00598500D02*
Y00741500D01*
X00724500Y00598500D02*
Y00741500D01*
X00493500Y00598500D02*
X00724500D01*
X00493500Y00741500D02*
X00724500D01*
X01006500Y00598500D02*
Y00741500D01*
X00775500Y00598500D02*
Y00741500D01*
X01006500D01*
X00775500Y00598500D02*
X01006500D01*
X00847000Y00990000D02*
X00953000D01*
X00847000Y00953500D02*
Y00990000D01*
X00953000Y00953500D02*
Y00990000D01*
X00847000Y00864500D02*
Y00916500D01*
Y00864500D02*
X00862500D01*
X00953000D02*
Y00916500D01*
X00937500Y00864500D02*
X00953000D01*
X00547000Y01160000D02*
X00653000D01*
X00547000Y01123500D02*
Y01160000D01*
X00653000Y01123500D02*
Y01160000D01*
X00547000Y01034500D02*
Y01086500D01*
Y01034500D02*
X00562500D01*
X00653000D02*
Y01086500D01*
X00637500Y01034500D02*
X00653000D01*
X00547000Y00990000D02*
X00653000D01*
X00547000Y00953500D02*
Y00990000D01*
X00653000Y00953500D02*
Y00990000D01*
X00547000Y00864500D02*
Y00916500D01*
Y00864500D02*
X00562500D01*
X00653000D02*
Y00916500D01*
X00637500Y00864500D02*
X00653000D01*
X00847000Y01160000D02*
X00953000D01*
X00847000Y01123500D02*
Y01160000D01*
X00953000Y01123500D02*
Y01160000D01*
X00847000Y01034500D02*
Y01086500D01*
Y01034500D02*
X00862500D01*
X00953000D02*
Y01086500D01*
X00937500Y01034500D02*
X00953000D01*
X00702000Y01183000D02*
Y01258000D01*
X00798000Y01183000D02*
Y01258000D01*
X00702000D02*
X00750000D01*
X00798000D01*
X00732000Y00976000D02*
X00768000D01*
X00732000Y01024000D02*
X00768000D01*
X00732000Y00976000D02*
Y01024000D01*
X00768000Y00976000D02*
Y01024000D01*
D12*
X00766500Y01021000D02*
G03*
X00766500Y01021000I-00001500J00000000D01*
G01*
D13*
X00712460Y00267540D02*
X00707382D01*
X00709921D01*
Y00282775D01*
X00712460Y00280236D01*
X00689607Y00282775D02*
X00699764D01*
Y00275158D01*
X00694686Y00277697D01*
X00692147D01*
X00689607Y00275158D01*
Y00270079D01*
X00692147Y00267540D01*
X00697225D01*
X00699764Y00270079D01*
X00684529D02*
X00681990Y00267540D01*
X00676911D01*
X00674372Y00270079D01*
Y00280236D01*
X00676911Y00282775D01*
X00681990D01*
X00684529Y00280236D01*
Y00277697D01*
X00681990Y00275158D01*
X00674372D01*
X00669294Y00280236D02*
X00666755Y00282775D01*
X00661676D01*
X00659137Y00280236D01*
Y00270079D01*
X00661676Y00267540D01*
X00666755D01*
X00669294Y00270079D01*
Y00280236D01*
X00654059Y00282775D02*
Y00267540D01*
X00646441D01*
X00643902Y00270079D01*
Y00272618D01*
X00646441Y00275158D01*
X00654059D01*
X00646441D01*
X00643902Y00277697D01*
Y00280236D01*
X00646441Y00282775D01*
X00654059D01*
X00613432Y00280236D02*
X00615971Y00282775D01*
X00621050D01*
X00623589Y00280236D01*
Y00270079D01*
X00621050Y00267540D01*
X00615971D01*
X00613432Y00270079D01*
X00605815Y00277697D02*
X00600736D01*
X00598197Y00275158D01*
Y00267540D01*
X00605815D01*
X00608354Y00270079D01*
X00605815Y00272618D01*
X00598197D01*
X00593119Y00267540D02*
X00585501D01*
X00582962Y00270079D01*
X00585501Y00272618D01*
X00590579D01*
X00593119Y00275158D01*
X00590579Y00277697D01*
X00582962D01*
X00570266Y00267540D02*
X00575344D01*
X00577883Y00270079D01*
Y00275158D01*
X00575344Y00277697D01*
X00570266D01*
X00567727Y00275158D01*
Y00272618D01*
X00577883D01*
X00742460Y00287540D02*
Y00302775D01*
X00737382Y00297697D01*
X00732303Y00302775D01*
Y00287540D01*
X00727225Y00302775D02*
Y00287540D01*
Y00292618D01*
X00717068Y00302775D01*
X00724686Y00295158D01*
X00717068Y00287540D01*
X00696755Y00300236D02*
X00694216Y00302775D01*
X00689137D01*
X00686598Y00300236D01*
Y00297697D01*
X00689137Y00295158D01*
X00691676D01*
X00689137D01*
X00686598Y00292618D01*
Y00290079D01*
X00689137Y00287540D01*
X00694216D01*
X00696755Y00290079D01*
X00681520Y00287540D02*
X00676441D01*
X00678980D01*
Y00302775D01*
X00681520Y00300236D01*
X00668824Y00287540D02*
Y00290079D01*
X00666285D01*
Y00287540D01*
X00668824D01*
X00656128Y00300236D02*
X00653589Y00302775D01*
X00648510D01*
X00645971Y00300236D01*
Y00290079D01*
X00648510Y00287540D01*
X00653589D01*
X00656128Y00290079D01*
Y00300236D01*
X00640893D02*
X00638354Y00302775D01*
X00633275D01*
X00630736Y00300236D01*
Y00297697D01*
X00633275Y00295158D01*
X00630736Y00292618D01*
Y00290079D01*
X00633275Y00287540D01*
X00638354D01*
X00640893Y00290079D01*
Y00292618D01*
X00638354Y00295158D01*
X00640893Y00297697D01*
Y00300236D01*
X00638354Y00295158D02*
X00633275D01*
X00625658Y00287540D02*
Y00290079D01*
X00623119D01*
Y00287540D01*
X00625658D01*
X00602805D02*
X00612962D01*
X00602805Y00297697D01*
Y00300236D01*
X00605344Y00302775D01*
X00610423D01*
X00612962Y00300236D01*
X00597727D02*
X00595188Y00302775D01*
X00590109D01*
X00587570Y00300236D01*
Y00290079D01*
X00590109Y00287540D01*
X00595188D01*
X00597727Y00290079D01*
Y00300236D01*
X00572335Y00287540D02*
X00582492D01*
X00572335Y00297697D01*
Y00300236D01*
X00574874Y00302775D01*
X00579953D01*
X00582492Y00300236D01*
X00567257Y00287540D02*
X00562178D01*
X00564717D01*
Y00302775D01*
X00567257Y00300236D01*
X00737460Y00327853D02*
Y00312618D01*
X00727303D01*
X00722225D02*
X00717147D01*
X00719686D01*
Y00322775D01*
X00722225D01*
X00699372Y00307540D02*
Y00322775D01*
X00706990D01*
X00709529Y00320236D01*
Y00315158D01*
X00706990Y00312618D01*
X00699372D01*
X00694294Y00322775D02*
Y00315158D01*
X00691755Y00312618D01*
X00684137D01*
Y00322775D01*
X00679059Y00312618D02*
X00673980D01*
X00676520D01*
Y00322775D01*
X00679059D01*
X00656206Y00327853D02*
Y00312618D01*
X00663824D01*
X00666363Y00315158D01*
Y00320236D01*
X00663824Y00322775D01*
X00656206D01*
X00635893Y00327853D02*
X00625736D01*
X00630815D01*
Y00312618D01*
X00620658Y00322775D02*
Y00312618D01*
Y00317697D01*
X00618119Y00320236D01*
X00615579Y00322775D01*
X00613040D01*
X00597805Y00312618D02*
X00602883D01*
X00605423Y00315158D01*
Y00320236D01*
X00602883Y00322775D01*
X00597805D01*
X00595266Y00320236D01*
Y00317697D01*
X00605423D01*
X00590188Y00312618D02*
Y00322775D01*
X00587649D01*
X00585109Y00320236D01*
Y00312618D01*
Y00320236D01*
X00582570Y00322775D01*
X00580031Y00320236D01*
Y00312618D01*
X00572413D02*
X00567335D01*
X00564796Y00315158D01*
Y00320236D01*
X00567335Y00322775D01*
X00572413D01*
X00574953Y00320236D01*
Y00315158D01*
X00572413Y00312618D01*
X00559717D02*
X00554639D01*
X00557178D01*
Y00327853D01*
X00559717D01*
X00544482Y00312618D02*
X00539404D01*
X00536865Y00315158D01*
Y00320236D01*
X00539404Y00322775D01*
X00544482D01*
X00547022Y00320236D01*
Y00315158D01*
X00544482Y00312618D01*
X00801211Y00556882D02*
X00796133D01*
X00798672D01*
Y00569578D01*
X00796133Y00572118D01*
X00793593D01*
X00791054Y00569578D01*
X00816446Y00572118D02*
X00806289D01*
X00816446Y00561961D01*
Y00559422D01*
X00813907Y00556882D01*
X00808828D01*
X00806289Y00559422D01*
X00575000Y00697617D02*
X00580078D01*
X00577539D01*
Y00684922D01*
X00580078Y00682383D01*
X00582617D01*
X00585157Y00684922D01*
X00569922Y00682383D02*
X00564843D01*
X00567382D01*
Y00697617D01*
X00569922Y00695078D01*
X00764446Y01050867D02*
Y01038172D01*
X00761907Y01035632D01*
X00756828D01*
X00754289Y01038172D01*
Y01050867D01*
X00739054Y01035632D02*
X00749211D01*
X00739054Y01045789D01*
Y01048328D01*
X00741593Y01050867D01*
X00746672D01*
X00749211Y01048328D01*
X00881126Y01170178D02*
Y01185413D01*
X00873509D01*
X00870969Y01182874D01*
Y01177795D01*
X00873509Y01175256D01*
X00881126D01*
X00876048D02*
X00870969Y01170178D01*
X00865891Y01185413D02*
X00855734D01*
X00860813D01*
Y01170178D01*
X00843038D02*
Y01185413D01*
X00850656Y01177795D01*
X00840499D01*
X00581152Y00999998D02*
Y01015233D01*
X00573535D01*
X00570995Y01012694D01*
Y01007616D01*
X00573535Y01005076D01*
X00581152D01*
X00576074D02*
X00570995Y00999998D01*
X00565917Y01015233D02*
X00555760D01*
X00560839D01*
Y00999998D01*
X00550682Y01012694D02*
X00548143Y01015233D01*
X00543064D01*
X00540525Y01012694D01*
Y01010155D01*
X00543064Y01007616D01*
X00545603D01*
X00543064D01*
X00540525Y01005076D01*
Y01002537D01*
X00543064Y00999998D01*
X00548143D01*
X00550682Y01002537D01*
X00581152Y01170178D02*
Y01185413D01*
X00573535D01*
X00570995Y01182874D01*
Y01177795D01*
X00573535Y01175256D01*
X00581152D01*
X00576074D02*
X00570995Y01170178D01*
X00565917Y01185413D02*
X00555760D01*
X00560839D01*
Y01170178D01*
X00540525D02*
X00550682D01*
X00540525Y01180335D01*
Y01182874D01*
X00543064Y01185413D01*
X00548143D01*
X00550682Y01182874D01*
X00924274Y00966633D02*
Y00981868D01*
X00916657D01*
X00914118Y00979328D01*
Y00974250D01*
X00916657Y00971711D01*
X00924274D01*
X00919196D02*
X00914118Y00966633D01*
X00909039Y00981868D02*
X00898882D01*
X00903961D01*
Y00966633D01*
X00893804D02*
X00888726D01*
X00891265D01*
Y00981868D01*
X00893804Y00979328D01*
X00857946Y00999382D02*
Y01014617D01*
X00850328D01*
X00847789Y01012078D01*
Y01007000D01*
X00850328Y01004461D01*
X00857946D01*
X00852868D02*
X00847789Y00999382D01*
X00842711Y01012078D02*
X00840172Y01014617D01*
X00835093D01*
X00832554Y01012078D01*
Y01009539D01*
X00835093Y01007000D01*
X00832554Y01004461D01*
Y01001922D01*
X00835093Y00999382D01*
X00840172D01*
X00842711Y01001922D01*
Y01004461D01*
X00840172Y01007000D01*
X00842711Y01009539D01*
Y01012078D01*
X00840172Y01007000D02*
X00835093D01*
X00805618Y01055946D02*
X00790382D01*
Y01048328D01*
X00792922Y01045789D01*
X00798000D01*
X00800539Y01048328D01*
Y01055946D01*
Y01050867D02*
X00805618Y01045789D01*
X00790382Y01040711D02*
Y01030554D01*
X00792922D01*
X00803078Y01040711D01*
X00805618D01*
X00695867Y00980946D02*
X00680632D01*
Y00973328D01*
X00683172Y00970789D01*
X00688250D01*
X00690789Y00973328D01*
Y00980946D01*
Y00975867D02*
X00695867Y00970789D01*
X00680632Y00955554D02*
X00683172Y00960632D01*
X00688250Y00965711D01*
X00693328D01*
X00695867Y00963172D01*
Y00958093D01*
X00693328Y00955554D01*
X00690789D01*
X00688250Y00958093D01*
Y00965711D01*
X00790882Y00955804D02*
X00806118D01*
Y00963422D01*
X00803578Y00965961D01*
X00798500D01*
X00795961Y00963422D01*
Y00955804D01*
Y00960882D02*
X00790882Y00965961D01*
Y00981196D02*
Y00971039D01*
X00801039Y00981196D01*
X00803578D01*
X00806118Y00978657D01*
Y00973578D01*
X00803578Y00971039D01*
X00702132Y00934843D02*
X00717367D01*
Y00942461D01*
X00714828Y00945000D01*
X00709750D01*
X00707211Y00942461D01*
Y00934843D01*
Y00939922D02*
X00702132Y00945000D01*
Y00950078D02*
Y00955157D01*
Y00952618D01*
X00717367D01*
X00714828Y00950078D01*
X00752539Y01234617D02*
X00757617D01*
X00755078D01*
Y01221922D01*
X00757617Y01219382D01*
X00760157D01*
X00762696Y01221922D01*
X00747461Y01234617D02*
X00737304D01*
Y01232078D01*
X00747461Y01221922D01*
Y01219382D01*
X00692598Y01045578D02*
X00695137Y01048118D01*
X00700215D01*
X00702755Y01045578D01*
Y01035422D01*
X00700215Y01032883D01*
X00695137D01*
X00692598Y01035422D01*
X00687520Y01032883D02*
X00682441D01*
X00684980D01*
Y01048118D01*
X00687520Y01045578D01*
X00674824Y01032883D02*
X00669745D01*
X00672284D01*
Y01048118D01*
X00674824Y01045578D01*
X00815672Y00957289D02*
X00813132Y00959828D01*
Y00964907D01*
X00815672Y00967446D01*
X00825828D01*
X00828367Y00964907D01*
Y00959828D01*
X00825828Y00957289D01*
X00815672Y00952211D02*
X00813132Y00949672D01*
Y00944593D01*
X00815672Y00942054D01*
X00818211D01*
X00820750Y00944593D01*
X00823289Y00942054D01*
X00825828D01*
X00828367Y00944593D01*
Y00949672D01*
X00825828Y00952211D01*
X00823289D01*
X00820750Y00949672D01*
X00818211Y00952211D01*
X00815672D01*
X00820750Y00949672D02*
Y00944593D01*
X00652422Y01015039D02*
X00649883Y01017578D01*
Y01022657D01*
X00652422Y01025196D01*
X00662578D01*
X00665117Y01022657D01*
Y01017578D01*
X00662578Y01015039D01*
X00649883Y00999804D02*
X00652422Y01004883D01*
X00657500Y01009961D01*
X00662578D01*
X00665117Y01007422D01*
Y01002343D01*
X00662578Y00999804D01*
X00660039D01*
X00657500Y01002343D01*
Y01009961D01*
X00815172Y01046039D02*
X00812633Y01048578D01*
Y01053657D01*
X00815172Y01056196D01*
X00825328D01*
X00827868Y01053657D01*
Y01048578D01*
X00825328Y01046039D01*
X00827868Y01033343D02*
X00812633D01*
X00820250Y01040961D01*
Y01030804D01*
X00905005Y00391918D02*
X00907544Y00394457D01*
X00912623D01*
X00915162Y00391918D01*
Y00381761D01*
X00912623Y00379222D01*
X00907544D01*
X00905005Y00381761D01*
X00899927Y00391918D02*
X00897388Y00394457D01*
X00892309D01*
X00889770Y00391918D01*
Y00389379D01*
X00892309Y00386839D01*
X00894849D01*
X00892309D01*
X00889770Y00384300D01*
Y00381761D01*
X00892309Y00379222D01*
X00897388D01*
X00899927Y00381761D01*
D14*
X00940500Y01264350D02*
G03*
X01010350Y01194500I00069850J00000000D01*
G01*
X00489650D02*
G03*
X00559500Y01264350I00000000J00069850D01*
G01*
X01010350Y00305500D02*
G03*
X00940500Y00235650I00000000J-00069850D01*
G01*
X00559500D02*
G03*
X00489650Y00305500I-00069850J00000000D01*
G01*
X01010350D02*
X01010350Y01194500D01*
X00559500Y01264350D02*
X00940500D01*
X00489650Y00305500D02*
X00489650Y01194500D01*
X00559500Y00235650D02*
X00940500D01*
M02*
