G04*
G04 #@! TF.GenerationSoftware,Altium Limited,Altium Designer,21.6.4 (81)*
G04*
G04 Layer_Color=8388736*
%FSAX44Y44*%
%MOMM*%
G71*
G04*
G04 #@! TF.SameCoordinates,1A77CDA6-7C2D-4FE3-B1CB-ECEED33A992D*
G04*
G04*
G04 #@! TF.FilePolarity,Negative*
G04*
G01*
G75*
%ADD14C,0.0500*%
%ADD29R,0.5532X1.5532*%
%ADD30O,0.5532X1.5532*%
%ADD31O,2.0032X2.2032*%
%ADD32R,2.0032X2.2032*%
%ADD33R,2.0032X1.6032*%
%ADD34R,0.8032X1.1032*%
%ADD35R,1.1032X0.8032*%
%ADD36R,1.4032X1.6032*%
%ADD37R,3.7032X1.6032*%
%ADD38R,1.4032X1.0032*%
%ADD39O,1.4032X1.0032*%
%ADD40O,1.1032X0.9032*%
%ADD41R,1.1032X0.9032*%
%ADD42R,2.7032X1.9032*%
%ADD43C,1.7272*%
G04:AMPARAMS|DCode=44|XSize=4.7032mm|YSize=1.4032mm|CornerRadius=0.4016mm|HoleSize=0mm|Usage=FLASHONLY|Rotation=0.000|XOffset=0mm|YOffset=0mm|HoleType=Round|Shape=RoundedRectangle|*
%AMROUNDEDRECTD44*
21,1,4.7032,0.6000,0,0,0.0*
21,1,3.9000,1.4032,0,0,0.0*
1,1,0.8032,1.9500,-0.3000*
1,1,0.8032,-1.9500,-0.3000*
1,1,0.8032,-1.9500,0.3000*
1,1,0.8032,1.9500,0.3000*
%
%ADD44ROUNDEDRECTD44*%
%ADD45R,3.2032X3.2032*%
%ADD46C,2.0032*%
G04:AMPARAMS|DCode=47|XSize=4.7032mm|YSize=2.2032mm|CornerRadius=0.6016mm|HoleSize=0mm|Usage=FLASHONLY|Rotation=90.000|XOffset=0mm|YOffset=0mm|HoleType=Round|Shape=RoundedRectangle|*
%AMROUNDEDRECTD47*
21,1,4.7032,1.0000,0,0,90.0*
21,1,3.5000,2.2032,0,0,90.0*
1,1,1.2032,0.5000,1.7500*
1,1,1.2032,0.5000,-1.7500*
1,1,1.2032,-0.5000,-1.7500*
1,1,1.2032,-0.5000,1.7500*
%
%ADD47ROUNDEDRECTD47*%
G04:AMPARAMS|DCode=48|XSize=4.7032mm|YSize=2.2032mm|CornerRadius=0.6016mm|HoleSize=0mm|Usage=FLASHONLY|Rotation=180.000|XOffset=0mm|YOffset=0mm|HoleType=Round|Shape=RoundedRectangle|*
%AMROUNDEDRECTD48*
21,1,4.7032,1.0000,0,0,180.0*
21,1,3.5000,2.2032,0,0,180.0*
1,1,1.2032,-1.7500,0.5000*
1,1,1.2032,1.7500,0.5000*
1,1,1.2032,1.7500,-0.5000*
1,1,1.2032,-1.7500,-0.5000*
%
%ADD48ROUNDEDRECTD48*%
%ADD49C,3.7032*%
%ADD50C,0.8032*%
D14*
X00940500Y01264350D02*
G03*
X01010350Y01194500I00069850J00000000D01*
G01*
X00489650D02*
G03*
X00559500Y01264350I00000000J00069850D01*
G01*
X01010350Y00305500D02*
G03*
X00940500Y00235650I00000000J-00069850D01*
G01*
X00559500D02*
G03*
X00489650Y00305500I-00069850J00000000D01*
G01*
X01010350D02*
X01010350Y01194500D01*
X00559500Y01264350D02*
X00940500D01*
X00489650Y00305500D02*
X00489650Y01194500D01*
X00559500Y00235650D02*
X00940500D01*
D29*
X00818250Y00641250D02*
D03*
X00876750D02*
D03*
X00850750D02*
D03*
X00857250D02*
D03*
X00863750D02*
D03*
X00870250D02*
D03*
X00824750D02*
D03*
X00831250D02*
D03*
X00837750D02*
D03*
X00844250D02*
D03*
X00818250Y00698750D02*
D03*
X00844250D02*
D03*
X00837750D02*
D03*
X00831250D02*
D03*
X00824750D02*
D03*
X00870250D02*
D03*
X00863750D02*
D03*
X00857250D02*
D03*
X00850750D02*
D03*
D30*
X00876750D02*
D03*
D31*
X00966500Y00644600D02*
D03*
D32*
Y00695400D02*
D03*
X00924500D02*
D03*
Y00644600D02*
D03*
D33*
X00630000Y00332500D02*
D03*
X00707000D02*
D03*
Y00287500D02*
D03*
X00630000D02*
D03*
D34*
X00722500Y00585500D02*
D03*
X00737500D02*
D03*
X00772250Y00352000D02*
D03*
X00787250D02*
D03*
X00844250Y00731000D02*
D03*
X00859250D02*
D03*
X00844250Y00716000D02*
D03*
X00859250D02*
D03*
X00659000Y00731250D02*
D03*
X00644000D02*
D03*
X00840500Y00567500D02*
D03*
X00855500D02*
D03*
X00772000Y00371750D02*
D03*
X00787000D02*
D03*
X00772000Y00261250D02*
D03*
X00787000D02*
D03*
X00845750Y00352500D02*
D03*
X00860750D02*
D03*
X00762500Y00850000D02*
D03*
X00777500D02*
D03*
X00966500Y00619000D02*
D03*
X00951500D02*
D03*
X00885250Y00499750D02*
D03*
X00870250D02*
D03*
X00737500Y00850000D02*
D03*
X00722500D02*
D03*
D35*
X00924750Y00813250D02*
D03*
Y00828250D02*
D03*
X00706000Y00626000D02*
D03*
Y00641000D02*
D03*
X00710250Y01058500D02*
D03*
Y01073500D02*
D03*
X00695250Y01058500D02*
D03*
Y01073500D02*
D03*
X00795500Y01069500D02*
D03*
Y01054500D02*
D03*
X00726500Y00317500D02*
D03*
Y00332500D02*
D03*
X00818250Y00863750D02*
D03*
Y00848750D02*
D03*
X00520000Y00882000D02*
D03*
Y00867000D02*
D03*
Y00854904D02*
D03*
Y00839904D02*
D03*
X00741500Y00317500D02*
D03*
Y00332500D02*
D03*
X00969500Y00399500D02*
D03*
Y00384500D02*
D03*
D36*
X00753000Y01069500D02*
D03*
X00730000D02*
D03*
X00776000D02*
D03*
D37*
X00753000Y01007500D02*
D03*
D38*
X00722500Y00639050D02*
D03*
Y00626350D02*
D03*
Y00613650D02*
D03*
Y00600950D02*
D03*
X00777500Y00639050D02*
D03*
Y00626350D02*
D03*
Y00613650D02*
D03*
D39*
Y00600950D02*
D03*
D40*
X00812000Y00372000D02*
D03*
X00818250Y00878000D02*
D03*
D41*
X00832000Y00362500D02*
D03*
X00812000Y00353000D02*
D03*
X00798250Y00887500D02*
D03*
X00818250Y00897000D02*
D03*
D42*
X00730000Y01095000D02*
D03*
X00770000D02*
D03*
D43*
X00753500Y00487750D02*
D03*
X00829700D02*
D03*
X00804300D02*
D03*
X00778900D02*
D03*
X00750000Y00887300D02*
D03*
Y00912700D02*
D03*
Y00804200D02*
D03*
Y00778800D02*
D03*
X00837650Y00307000D02*
D03*
X00812250D02*
D03*
X00786850D02*
D03*
X00869500D02*
D03*
X00894900D02*
D03*
X00920300D02*
D03*
X00907300Y00500000D02*
D03*
X00932700D02*
D03*
D44*
X00596000Y00751000D02*
D03*
Y00589000D02*
D03*
X00659000Y00751000D02*
D03*
Y00589000D02*
D03*
X00533000Y00751000D02*
D03*
Y00589000D02*
D03*
X00904000D02*
D03*
Y00751000D02*
D03*
X00841000Y00589000D02*
D03*
Y00751000D02*
D03*
X00967000Y00589000D02*
D03*
Y00751000D02*
D03*
D45*
X00944000Y00935000D02*
D03*
X00856000D02*
D03*
X00644000Y01105000D02*
D03*
X00556000D02*
D03*
X00644000Y00935000D02*
D03*
X00556000D02*
D03*
X00944000Y01105000D02*
D03*
X00856000D02*
D03*
D46*
X00875000Y00865000D02*
D03*
X00925000D02*
D03*
X00900000D02*
D03*
X00575000Y01035000D02*
D03*
X00625000D02*
D03*
X00600000D02*
D03*
X00575000Y00865000D02*
D03*
X00625000D02*
D03*
X00600000D02*
D03*
X00875000Y01035000D02*
D03*
X00925000D02*
D03*
X00900000D02*
D03*
D47*
X00798000Y01148000D02*
D03*
D48*
X00750000Y01123000D02*
D03*
Y01183000D02*
D03*
D49*
X00630000Y00503000D02*
D03*
Y00397000D02*
D03*
Y00450000D02*
D03*
X00677000Y00503000D02*
D03*
Y00397000D02*
D03*
Y00450000D02*
D03*
X00583000Y00503000D02*
D03*
Y00397000D02*
D03*
Y00450000D02*
D03*
D50*
X00740000Y00675000D02*
D03*
Y00690000D02*
D03*
Y00705000D02*
D03*
Y00720000D02*
D03*
Y00735000D02*
D03*
X00540000Y00340000D02*
D03*
X00555000D02*
D03*
X00570000D02*
D03*
X00585000D02*
D03*
X00600000D02*
D03*
X00865000Y00410000D02*
D03*
X00880000D02*
D03*
X00895000D02*
D03*
X00910000D02*
D03*
X00925000D02*
D03*
X00610000Y00800000D02*
D03*
X00625000D02*
D03*
X00640000D02*
D03*
X00655000D02*
D03*
X00670000D02*
D03*
X00855000Y01205000D02*
D03*
X00870000D02*
D03*
X00885000D02*
D03*
X00900000D02*
D03*
X00915000D02*
D03*
X00665000D02*
D03*
X00650000D02*
D03*
X00635000D02*
D03*
X00620000D02*
D03*
X00605000D02*
D03*
X00968250Y00993500D02*
D03*
X00777524Y00964154D02*
D03*
X00838283Y00978232D02*
D03*
X00646000Y01045750D02*
D03*
X00612000Y00889750D02*
D03*
X00738750Y00613000D02*
D03*
X00630000Y00546500D02*
D03*
X00855500Y00554500D02*
D03*
X00795750Y01083250D02*
D03*
X00675250Y01069750D02*
D03*
X00983498Y00384455D02*
D03*
X00590500Y00613500D02*
D03*
X00694000Y00571000D02*
D03*
X00722500Y00571250D02*
D03*
X00755000Y00317500D02*
D03*
X00762250Y00863750D02*
D03*
X00972500Y00782500D02*
D03*
X00721211Y00935940D02*
D03*
X00554500Y00974250D02*
D03*
X00730000Y01053000D02*
D03*
X00772000Y00384250D02*
D03*
X00673750Y00963000D02*
D03*
X00722500Y00967000D02*
D03*
X00844000Y00659750D02*
D03*
X00818000Y00813250D02*
D03*
X00745500Y01038000D02*
D03*
X00869500Y00537500D02*
D03*
X00806500Y00641250D02*
D03*
X00836000Y01021500D02*
D03*
X00752250Y00980500D02*
D03*
M02*
