G04*
G04 #@! TF.GenerationSoftware,Altium Limited,Altium Designer,21.6.4 (81)*
G04*
G04 Layer_Color=65535*
%FSAX44Y44*%
%MOMM*%
G71*
G04*
G04 #@! TF.SameCoordinates,1A77CDA6-7C2D-4FE3-B1CB-ECEED33A992D*
G04*
G04*
G04 #@! TF.FilePolarity,Positive*
G04*
G01*
G75*
%ADD10C,0.2000*%
%ADD11C,1.0000*%
%ADD12C,0.5000*%
%ADD13C,0.2540*%
%ADD14C,0.0500*%
G36*
X00743500Y01084000D02*
Y01081000D01*
X00716250D01*
Y01084000D01*
X00743500D01*
D02*
G37*
G36*
Y01106000D02*
Y01109000D01*
X00716250D01*
Y01106000D01*
X00743500D01*
D02*
G37*
D10*
X00878789Y00675000D02*
G03*
X00878789Y00665000I00000000J-00005000D01*
G01*
X00727359Y00923682D02*
G03*
X00772641Y00923682I00022641J-00019682D01*
G01*
Y00767818D02*
G03*
X00727359Y00767818I-00022641J00019682D01*
G01*
X00816250Y00688500D02*
X00878750D01*
X00816250Y00651500D02*
Y00688500D01*
Y00651500D02*
X00878750D01*
Y00665000D01*
Y00675000D02*
Y00688500D01*
X00937102Y00705396D02*
X00945602D01*
X00954102D01*
X00945500Y00635000D02*
X00954000D01*
X00937000D02*
X00945500D01*
X00975500Y00670000D02*
Y00681750D01*
Y00658250D02*
Y00670000D01*
X00915500Y00658250D02*
Y00670000D01*
Y00681750D01*
X00703000Y00310000D02*
Y00322000D01*
Y00298000D02*
Y00310000D01*
X00634000Y00298000D02*
Y00310000D01*
X00642500Y00280500D02*
X00668500D01*
X00694500D01*
X00668500Y00339500D02*
X00694500D01*
X00642500D02*
X00668500D01*
X00634000Y00310000D02*
Y00322000D01*
X00842500Y00453250D02*
Y00547500D01*
X00740700Y00453250D02*
Y00547500D01*
Y00453250D02*
X00842500D01*
X00740700Y00547500D02*
X00842500D01*
X00727500Y00924000D02*
X00750000D01*
X00772500D01*
X00750000Y00767500D02*
X00772500D01*
X00727500D02*
X00750000D01*
X00720500Y01018750D02*
Y01073250D01*
Y01018750D02*
X00732000D01*
X00785500D02*
Y01073250D01*
X00774000Y01018750D02*
X00785500D01*
X00850450Y00272500D02*
Y00341500D01*
X00774050Y00272500D02*
Y00341500D01*
Y00272500D02*
X00850450D01*
X00774050Y00341500D02*
X00850450D01*
X00856700Y00272500D02*
Y00341500D01*
X00933100Y00272500D02*
Y00341500D01*
X00856700D02*
X00933100D01*
X00856700Y00272500D02*
X00933100D01*
X00894500Y00465500D02*
Y00534500D01*
X00945500Y00465500D02*
Y00534500D01*
X00894500D02*
X00945500D01*
X00894500Y00465500D02*
X00945500D01*
X00768000Y00596000D02*
Y00644000D01*
X00732000Y00596000D02*
Y00644000D01*
Y00596000D02*
X00768000D01*
X00732000Y00644000D02*
X00768000D01*
X00809500Y00360000D02*
Y00365000D01*
X00834500Y00369500D02*
Y00377500D01*
X00820000D02*
X00834500D01*
Y00347500D02*
Y00355500D01*
X00820000Y00347500D02*
X00834500D01*
X00820750Y00885000D02*
Y00890000D01*
X00795750Y00872500D02*
Y00880500D01*
Y00872500D02*
X00810250D01*
X00795750Y00894500D02*
Y00902500D01*
X00810250D01*
X00724500Y01082000D02*
X00765750D01*
X00724500Y01108000D02*
X00765750D01*
X00714500Y00547500D02*
X00714500Y00352500D01*
X00545500Y00547500D02*
X00714500D01*
X00545500Y00352500D02*
Y00547500D01*
Y00352500D02*
X00714500D01*
X00835347Y00533452D02*
X00837346Y00535452D01*
Y00539450D01*
X00835347Y00541450D01*
X00827349D01*
X00825350Y00539450D01*
Y00535452D01*
X00827349Y00533452D01*
X00837346Y00529454D02*
X00825350D01*
Y00521456D01*
X00837346Y00517458D02*
X00825350D01*
X00829349D01*
X00837346Y00509460D01*
X00831348Y00515458D01*
X00825350Y00509460D01*
X00811946Y00541450D02*
X00799950D01*
Y00535452D01*
X00801949Y00533452D01*
X00809947D01*
X00811946Y00535452D01*
Y00541450D01*
Y00529454D02*
Y00525455D01*
Y00527454D01*
X00799950D01*
Y00529454D01*
Y00525455D01*
X00811946Y00513459D02*
Y00517458D01*
X00809947Y00519457D01*
X00801949D01*
X00799950Y00517458D01*
Y00513459D01*
X00801949Y00511460D01*
X00809947D01*
X00811946Y00513459D01*
X00784547Y00533452D02*
X00786546Y00535452D01*
Y00539450D01*
X00784547Y00541450D01*
X00776549D01*
X00774550Y00539450D01*
Y00535452D01*
X00776549Y00533452D01*
X00780548D01*
Y00537451D01*
X00774550Y00529454D02*
X00786546D01*
X00774550Y00521456D01*
X00786546D01*
Y00517458D02*
X00774550D01*
Y00511460D01*
X00776549Y00509460D01*
X00784547D01*
X00786546Y00511460D01*
Y00517458D01*
X00761146Y00541450D02*
X00753148D01*
X00749150Y00537451D01*
X00753148Y00533452D01*
X00761146D01*
X00759147Y00521456D02*
X00761146Y00523456D01*
Y00527454D01*
X00759147Y00529454D01*
X00751149D01*
X00749150Y00527454D01*
Y00523456D01*
X00751149Y00521456D01*
X00759147Y00509460D02*
X00761146Y00511460D01*
Y00515458D01*
X00759147Y00517458D01*
X00751149D01*
X00749150Y00515458D01*
Y00511460D01*
X00751149Y00509460D01*
D11*
X00971500Y00663750D02*
G03*
X00971500Y00663750I-00001500J00000000D01*
G01*
D12*
X00766500Y00599000D02*
G03*
X00766500Y00599000I-00001500J00000000D01*
G01*
D13*
X00862040Y00279540D02*
X00867118D01*
X00864579D01*
Y00294775D01*
X00862040Y00292236D01*
X00897597Y00279540D02*
X00887440D01*
X00897597Y00289697D01*
Y00292236D01*
X00895058Y00294775D01*
X00889979D01*
X00887440Y00292236D01*
X00912840D02*
X00915379Y00294775D01*
X00920458D01*
X00922997Y00292236D01*
Y00289697D01*
X00920458Y00287157D01*
X00917918D01*
X00920458D01*
X00922997Y00284618D01*
Y00282079D01*
X00920458Y00279540D01*
X00915379D01*
X00912840Y00282079D01*
X00845110Y00334460D02*
X00840032D01*
X00842571D01*
Y00319225D01*
X00845110Y00321764D01*
X00809553Y00334460D02*
X00819710D01*
X00809553Y00324303D01*
Y00321764D01*
X00812093Y00319225D01*
X00817171D01*
X00819710Y00321764D01*
X00794310D02*
X00791771Y00319225D01*
X00786693D01*
X00784153Y00321764D01*
Y00324303D01*
X00786693Y00326842D01*
X00789232D01*
X00786693D01*
X00784153Y00329382D01*
Y00331921D01*
X00786693Y00334460D01*
X00791771D01*
X00794310Y00331921D01*
X00899840Y00472540D02*
X00904918D01*
X00902379D01*
Y00487775D01*
X00899840Y00485236D01*
X00935397Y00472540D02*
X00925240D01*
X00935397Y00482697D01*
Y00485236D01*
X00932858Y00487775D01*
X00927779D01*
X00925240Y00485236D01*
X00977117Y00414437D02*
X00961882D01*
Y00422054D01*
X00964422Y00424593D01*
X00969500D01*
X00972039Y00422054D01*
Y00414437D01*
Y00419515D02*
X00977117Y00424593D01*
Y00439828D02*
Y00429672D01*
X00966961Y00439828D01*
X00964422D01*
X00961882Y00437289D01*
Y00432211D01*
X00964422Y00429672D01*
Y00444907D02*
X00961882Y00447446D01*
Y00452524D01*
X00964422Y00455063D01*
X00974578D01*
X00977117Y00452524D01*
Y00447446D01*
X00974578Y00444907D01*
X00964422D01*
X00555241Y00570734D02*
X00552701Y00573273D01*
X00547623D01*
X00545084Y00570734D01*
Y00568195D01*
X00547623Y00565656D01*
X00552701D01*
X00555241Y00563116D01*
Y00560577D01*
X00552701Y00558038D01*
X00547623D01*
X00545084Y00560577D01*
X00560319Y00558038D02*
X00565397D01*
X00562858D01*
Y00573273D01*
X00560319Y00570734D01*
X00690206Y00823883D02*
Y00839118D01*
X00697824D01*
X00700363Y00836578D01*
Y00831500D01*
X00697824Y00828961D01*
X00690206D01*
X00695285D02*
X00700363Y00823883D01*
X00705441D02*
X00710520D01*
X00707980D01*
Y00839118D01*
X00705441Y00836578D01*
X00718137D02*
X00720676Y00839118D01*
X00725755D01*
X00728294Y00836578D01*
Y00834039D01*
X00725755Y00831500D01*
X00723215D01*
X00725755D01*
X00728294Y00828961D01*
Y00826422D01*
X00725755Y00823883D01*
X00720676D01*
X00718137Y00826422D01*
X00684304Y00800618D02*
Y00785383D01*
X00691922D01*
X00694461Y00787922D01*
Y00798078D01*
X00691922Y00800618D01*
X00684304D01*
X00709696Y00785383D02*
X00699539D01*
X00709696Y00795539D01*
Y00798078D01*
X00707157Y00800618D01*
X00702078D01*
X00699539Y00798078D01*
X00915482Y00731261D02*
X00925639Y00716026D01*
Y00731261D02*
X00915482Y00716026D01*
X00930717D02*
X00935795D01*
X00933256D01*
Y00731261D01*
X00930717Y00728722D01*
X00741554Y01051367D02*
Y01038672D01*
X00744093Y01036133D01*
X00749172D01*
X00751711Y01038672D01*
Y01051367D01*
X00764407Y01036133D02*
Y01051367D01*
X00756789Y01043750D01*
X00766946D01*
X00833054Y00677117D02*
Y00664422D01*
X00835593Y00661882D01*
X00840672D01*
X00843211Y00664422D01*
Y00677117D01*
X00848289Y00674578D02*
X00850828Y00677117D01*
X00855907D01*
X00858446Y00674578D01*
Y00672039D01*
X00855907Y00669500D01*
X00853368D01*
X00855907D01*
X00858446Y00666961D01*
Y00664422D01*
X00855907Y00661882D01*
X00850828D01*
X00848289Y00664422D01*
X00741093Y00666117D02*
Y00653422D01*
X00743633Y00650882D01*
X00748711D01*
X00751250Y00653422D01*
Y00666117D01*
X00756328Y00650882D02*
X00761407D01*
X00758868D01*
Y00666117D01*
X00756328Y00663578D01*
X00793242Y00927857D02*
X00803399D01*
X00798320D01*
Y00912622D01*
X00818634D02*
X00808477D01*
X00818634Y00922779D01*
Y00925318D01*
X00816095Y00927857D01*
X00811016D01*
X00808477Y00925318D01*
X00809593Y00402118D02*
X00819750D01*
X00814672D01*
Y00386883D01*
X00824828D02*
X00829907D01*
X00827368D01*
Y00402118D01*
X00824828Y00399578D01*
X00597800Y00327309D02*
X00595261Y00324770D01*
Y00319692D01*
X00597800Y00317153D01*
X00600339D01*
X00602878Y00319692D01*
Y00324770D01*
X00605418Y00327309D01*
X00607957D01*
X00610496Y00324770D01*
Y00319692D01*
X00607957Y00317153D01*
X00610496Y00342545D02*
Y00332388D01*
X00600339Y00342545D01*
X00597800D01*
X00595261Y00340005D01*
Y00334927D01*
X00597800Y00332388D01*
X00763118Y00267956D02*
X00747883D01*
Y00275574D01*
X00750422Y00278113D01*
X00755500D01*
X00758039Y00275574D01*
Y00267956D01*
Y00273034D02*
X00763118Y00278113D01*
Y00283191D02*
Y00288270D01*
Y00285730D01*
X00747883D01*
X00750422Y00283191D01*
X00760578Y00295887D02*
X00763118Y00298426D01*
Y00303505D01*
X00760578Y00306044D01*
X00750422D01*
X00747883Y00303505D01*
Y00298426D01*
X00750422Y00295887D01*
X00752961D01*
X00755500Y00298426D01*
Y00306044D01*
X00527702Y00787706D02*
X00512467D01*
Y00795324D01*
X00515006Y00797863D01*
X00520084D01*
X00522623Y00795324D01*
Y00787706D01*
Y00792785D02*
X00527702Y00797863D01*
Y00802941D02*
Y00808020D01*
Y00805480D01*
X00512467D01*
X00515006Y00802941D01*
Y00815637D02*
X00512467Y00818176D01*
Y00823255D01*
X00515006Y00825794D01*
X00517545D01*
X00520084Y00823255D01*
X00522623Y00825794D01*
X00525162D01*
X00527702Y00823255D01*
Y00818176D01*
X00525162Y00815637D01*
X00522623D01*
X00520084Y00818176D01*
X00517545Y00815637D01*
X00515006D01*
X00520084Y00818176D02*
Y00823255D01*
X00528340Y00893802D02*
X00513105D01*
Y00901420D01*
X00515644Y00903959D01*
X00520722D01*
X00523261Y00901420D01*
Y00893802D01*
Y00898880D02*
X00528340Y00903959D01*
Y00909037D02*
Y00914116D01*
Y00911577D01*
X00513105D01*
X00515644Y00909037D01*
X00513105Y00921733D02*
Y00931890D01*
X00515644D01*
X00525801Y00921733D01*
X00528340D01*
X00850206Y00513882D02*
Y00529118D01*
X00857824D01*
X00860363Y00526578D01*
Y00521500D01*
X00857824Y00518961D01*
X00850206D01*
X00855285D02*
X00860363Y00513882D01*
X00865441D02*
X00870520D01*
X00867980D01*
Y00529118D01*
X00865441Y00526578D01*
X00888294Y00529118D02*
X00883215Y00526578D01*
X00878137Y00521500D01*
Y00516422D01*
X00880676Y00513882D01*
X00885755D01*
X00888294Y00516422D01*
Y00518961D01*
X00885755Y00521500D01*
X00878137D01*
X00900956Y00611133D02*
Y00626367D01*
X00908574D01*
X00911113Y00623828D01*
Y00618750D01*
X00908574Y00616211D01*
X00900956D01*
X00906034D02*
X00911113Y00611133D01*
X00916191D02*
X00921270D01*
X00918730D01*
Y00626367D01*
X00916191Y00623828D01*
X00939044Y00626367D02*
X00928887D01*
Y00618750D01*
X00933966Y00621289D01*
X00936505D01*
X00939044Y00618750D01*
Y00613672D01*
X00936505Y00611133D01*
X00931426D01*
X00928887Y00613672D01*
X00829883Y00848044D02*
X00845117D01*
Y00840426D01*
X00842578Y00837887D01*
X00837500D01*
X00834961Y00840426D01*
Y00848044D01*
Y00842965D02*
X00829883Y00837887D01*
Y00832809D02*
Y00827730D01*
Y00830270D01*
X00845117D01*
X00842578Y00832809D01*
X00829883Y00812495D02*
X00845117D01*
X00837500Y00820113D01*
Y00809956D01*
X00772206Y00823633D02*
Y00838867D01*
X00779824D01*
X00782363Y00836328D01*
Y00831250D01*
X00779824Y00828711D01*
X00772206D01*
X00777284D02*
X00782363Y00823633D01*
X00787441D02*
X00792520D01*
X00789980D01*
Y00838867D01*
X00787441Y00836328D01*
X00810294Y00823633D02*
X00800137D01*
X00810294Y00833789D01*
Y00836328D01*
X00807755Y00838867D01*
X00802676D01*
X00800137Y00836328D01*
X00869995Y00347632D02*
Y00362868D01*
X00877613D01*
X00880152Y00360328D01*
Y00355250D01*
X00877613Y00352711D01*
X00869995D01*
X00875074D02*
X00880152Y00347632D01*
X00885230D02*
X00890309D01*
X00887770D01*
Y00362868D01*
X00885230Y00360328D01*
X00897926Y00347632D02*
X00903005D01*
X00900465D01*
Y00362868D01*
X00897926Y00360328D01*
X00722206Y00243883D02*
Y00259118D01*
X00729824D01*
X00732363Y00256578D01*
Y00251500D01*
X00729824Y00248961D01*
X00722206D01*
X00727284D02*
X00732363Y00243883D01*
X00737441D02*
X00742520D01*
X00739980D01*
Y00259118D01*
X00737441Y00256578D01*
X00750137D02*
X00752676Y00259118D01*
X00757755D01*
X00760294Y00256578D01*
Y00246422D01*
X00757755Y00243883D01*
X00752676D01*
X00750137Y00246422D01*
Y00256578D01*
X00733554Y00369132D02*
Y00384367D01*
X00741172D01*
X00743711Y00381828D01*
Y00376750D01*
X00741172Y00374211D01*
X00733554D01*
X00738633D02*
X00743711Y00369132D01*
X00748789Y00371672D02*
X00751328Y00369132D01*
X00756407D01*
X00758946Y00371672D01*
Y00381828D01*
X00756407Y00384367D01*
X00751328D01*
X00748789Y00381828D01*
Y00379289D01*
X00751328Y00376750D01*
X00758946D01*
X00866054Y00559883D02*
Y00575117D01*
X00873672D01*
X00876211Y00572578D01*
Y00567500D01*
X00873672Y00564961D01*
X00866054D01*
X00871133D02*
X00876211Y00559883D01*
X00891446Y00575117D02*
X00881289D01*
Y00567500D01*
X00886367Y00570039D01*
X00888907D01*
X00891446Y00567500D01*
Y00562422D01*
X00888907Y00559883D01*
X00883828D01*
X00881289Y00562422D01*
X00643883Y00716446D02*
X00659118D01*
Y00708828D01*
X00656578Y00706289D01*
X00651500D01*
X00648961Y00708828D01*
Y00716446D01*
Y00711367D02*
X00643883Y00706289D01*
Y00693593D02*
X00659118D01*
X00651500Y00701211D01*
Y00691054D01*
X00793961Y00432868D02*
X00788883D01*
X00791422D01*
Y00420172D01*
X00788883Y00417632D01*
X00786343D01*
X00783804Y00420172D01*
X00809196Y00432868D02*
X00804118Y00430328D01*
X00799039Y00425250D01*
Y00420172D01*
X00801578Y00417632D01*
X00806657D01*
X00809196Y00420172D01*
Y00422711D01*
X00806657Y00425250D01*
X00799039D01*
X00904199Y00560281D02*
X00899120D01*
X00901659D01*
Y00547585D01*
X00899120Y00545046D01*
X00896581D01*
X00894042Y00547585D01*
X00919434Y00560281D02*
X00909277D01*
Y00552663D01*
X00914355Y00555203D01*
X00916895D01*
X00919434Y00552663D01*
Y00547585D01*
X00916895Y00545046D01*
X00911816D01*
X00909277Y00547585D01*
X00918961Y00265618D02*
X00913883D01*
X00916422D01*
Y00252922D01*
X00913883Y00250382D01*
X00911343D01*
X00908804Y00252922D01*
X00931657Y00250382D02*
Y00265618D01*
X00924039Y00258000D01*
X00934196D01*
X00835211Y00264867D02*
X00830133D01*
X00832672D01*
Y00252172D01*
X00830133Y00249632D01*
X00827593D01*
X00825054Y00252172D01*
X00840289Y00262328D02*
X00842828Y00264867D01*
X00847907D01*
X00850446Y00262328D01*
Y00259789D01*
X00847907Y00257250D01*
X00845368D01*
X00847907D01*
X00850446Y00254711D01*
Y00252172D01*
X00847907Y00249632D01*
X00842828D01*
X00840289Y00252172D01*
X00795304Y01104867D02*
Y01089632D01*
X00802922D01*
X00805461Y01092172D01*
Y01102328D01*
X00802922Y01104867D01*
X00795304D01*
X00810539Y01102328D02*
X00813078Y01104867D01*
X00818157D01*
X00820696Y01102328D01*
Y01099789D01*
X00818157Y01097250D01*
X00815618D01*
X00818157D01*
X00820696Y01094711D01*
Y01092172D01*
X00818157Y01089632D01*
X00813078D01*
X00810539Y01092172D01*
X00742343Y00954867D02*
Y00939632D01*
X00749961D01*
X00752500Y00942172D01*
Y00952328D01*
X00749961Y00954867D01*
X00742343D01*
X00757578Y00939632D02*
X00762657D01*
X00760118D01*
Y00954867D01*
X00757578Y00952328D01*
X00728422Y00277863D02*
X00725882Y00275324D01*
Y00270245D01*
X00728422Y00267706D01*
X00738578D01*
X00741117Y00270245D01*
Y00275324D01*
X00738578Y00277863D01*
X00741117Y00282941D02*
Y00288020D01*
Y00285480D01*
X00725882D01*
X00728422Y00282941D01*
X00725882Y00305794D02*
Y00295637D01*
X00733500D01*
X00730961Y00300716D01*
Y00303255D01*
X00733500Y00305794D01*
X00738578D01*
X00741117Y00303255D01*
Y00298176D01*
X00738578Y00295637D01*
X00811922Y01051363D02*
X00809382Y01048824D01*
Y01043745D01*
X00811922Y01041206D01*
X00822078D01*
X00824617Y01043745D01*
Y01048824D01*
X00822078Y01051363D01*
X00824617Y01056441D02*
Y01061520D01*
Y01058980D01*
X00809382D01*
X00811922Y01056441D01*
X00824617Y01076755D02*
X00809382D01*
X00817000Y01069137D01*
Y01079294D01*
X00674172Y01094363D02*
X00671632Y01091824D01*
Y01086745D01*
X00674172Y01084206D01*
X00684328D01*
X00686868Y01086745D01*
Y01091824D01*
X00684328Y01094363D01*
X00686868Y01099441D02*
Y01104520D01*
Y01101980D01*
X00671632D01*
X00674172Y01099441D01*
Y01112137D02*
X00671632Y01114676D01*
Y01119755D01*
X00674172Y01122294D01*
X00676711D01*
X00679250Y01119755D01*
Y01117215D01*
Y01119755D01*
X00681789Y01122294D01*
X00684328D01*
X00686868Y01119755D01*
Y01114676D01*
X00684328Y01112137D01*
X00697172Y01094363D02*
X00694632Y01091824D01*
Y01086745D01*
X00697172Y01084206D01*
X00707328D01*
X00709867Y01086745D01*
Y01091824D01*
X00707328Y01094363D01*
X00709867Y01099441D02*
Y01104520D01*
Y01101980D01*
X00694632D01*
X00697172Y01099441D01*
X00709867Y01122294D02*
Y01112137D01*
X00699711Y01122294D01*
X00697172D01*
X00694632Y01119755D01*
Y01114676D01*
X00697172Y01112137D01*
X00880113Y00723828D02*
X00877574Y00726367D01*
X00872495D01*
X00869956Y00723828D01*
Y00713672D01*
X00872495Y00711133D01*
X00877574D01*
X00880113Y00713672D01*
X00885191Y00711133D02*
X00890270D01*
X00887730D01*
Y00726367D01*
X00885191Y00723828D01*
X00897887D02*
X00900426Y00726367D01*
X00905505D01*
X00908044Y00723828D01*
Y00713672D01*
X00905505Y00711133D01*
X00900426D01*
X00897887Y00713672D01*
Y00723828D01*
X00815961Y00737828D02*
X00813422Y00740368D01*
X00808343D01*
X00805804Y00737828D01*
Y00727672D01*
X00808343Y00725133D01*
X00813422D01*
X00815961Y00727672D01*
X00821039D02*
X00823578Y00725133D01*
X00828657D01*
X00831196Y00727672D01*
Y00737828D01*
X00828657Y00740368D01*
X00823578D01*
X00821039Y00737828D01*
Y00735289D01*
X00823578Y00732750D01*
X00831196D01*
X00743961Y00359328D02*
X00741422Y00361867D01*
X00736343D01*
X00733804Y00359328D01*
Y00349172D01*
X00736343Y00346632D01*
X00741422D01*
X00743961Y00349172D01*
X00749039Y00361867D02*
X00759196D01*
Y00359328D01*
X00749039Y00349172D01*
Y00346632D01*
X00683172Y00630461D02*
X00680632Y00627922D01*
Y00622843D01*
X00683172Y00620304D01*
X00693328D01*
X00695867Y00622843D01*
Y00627922D01*
X00693328Y00630461D01*
X00680632Y00645696D02*
Y00635539D01*
X00688250D01*
X00685711Y00640618D01*
Y00643157D01*
X00688250Y00645696D01*
X00693328D01*
X00695867Y00643157D01*
Y00638078D01*
X00693328Y00635539D01*
X00952078Y00824539D02*
X00954617Y00827078D01*
Y00832157D01*
X00952078Y00834696D01*
X00941922D01*
X00939382Y00832157D01*
Y00827078D01*
X00941922Y00824539D01*
X00939382Y00809304D02*
Y00819461D01*
X00949539Y00809304D01*
X00952078D01*
X00954617Y00811843D01*
Y00816922D01*
X00952078Y00819461D01*
X00702000Y00590328D02*
X00699461Y00592868D01*
X00694382D01*
X00691843Y00590328D01*
Y00580172D01*
X00694382Y00577632D01*
X00699461D01*
X00702000Y00580172D01*
X00707078Y00577632D02*
X00712157D01*
X00709618D01*
Y00592868D01*
X00707078Y00590328D01*
D14*
X00940500Y01264350D02*
G03*
X01010350Y01194500I00069850J00000000D01*
G01*
X00489650D02*
G03*
X00559500Y01264350I00000000J00069850D01*
G01*
X01010350Y00305500D02*
G03*
X00940500Y00235650I00000000J-00069850D01*
G01*
X00559500D02*
G03*
X00489650Y00305500I-00069850J00000000D01*
G01*
X01010350D02*
X01010350Y01194500D01*
X00559500Y01264350D02*
X00940500D01*
X00489650Y00305500D02*
X00489650Y01194500D01*
X00559500Y00235650D02*
X00940500D01*
M02*
