G04*
G04 #@! TF.GenerationSoftware,Altium Limited,Altium Designer,21.6.4 (81)*
G04*
G04 Layer_Color=128*
%FSAX44Y44*%
%MOMM*%
G71*
G04*
G04 #@! TF.SameCoordinates,1A77CDA6-7C2D-4FE3-B1CB-ECEED33A992D*
G04*
G04*
G04 #@! TF.FilePolarity,Positive*
G04*
G01*
G75*
%ADD14C,0.0500*%
%ADD20R,0.6000X0.9000*%
%ADD21R,0.9000X0.6000*%
%ADD24R,1.2000X0.8000*%
%ADD25O,1.2000X0.8000*%
D14*
X00940500Y01264350D02*
G03*
X01010350Y01194500I00069850J00000000D01*
G01*
X00489650D02*
G03*
X00559500Y01264350I00000000J00069850D01*
G01*
X01010350Y00305500D02*
G03*
X00940500Y00235650I00000000J-00069850D01*
G01*
X00559500D02*
G03*
X00489650Y00305500I-00069850J00000000D01*
G01*
X01010350D02*
X01010350Y01194500D01*
X00559500Y01264350D02*
X00940500D01*
X00489650Y00305500D02*
X00489650Y01194500D01*
X00559500Y00235650D02*
X00940500D01*
D20*
X00807500Y01021500D02*
D03*
X00822500D02*
D03*
X00692500Y01019000D02*
D03*
X00707500D02*
D03*
X00807500Y00991500D02*
D03*
X00792500D02*
D03*
X00807500Y01006500D02*
D03*
X00822500D02*
D03*
D21*
X00894750Y00350500D02*
D03*
Y00365500D02*
D03*
X00676000Y01020500D02*
D03*
Y01005500D02*
D03*
X00821000Y00978000D02*
D03*
Y00993000D02*
D03*
X00706000Y00963500D02*
D03*
Y00978500D02*
D03*
Y00990500D02*
D03*
Y01005500D02*
D03*
X00691000Y00990500D02*
D03*
Y01005500D02*
D03*
X00794000Y01004750D02*
D03*
Y01019750D02*
D03*
D24*
X00777500Y01006350D02*
D03*
Y00993650D02*
D03*
Y00980950D02*
D03*
X00722500Y01019050D02*
D03*
Y01006350D02*
D03*
Y00993650D02*
D03*
Y00980950D02*
D03*
D25*
X00777500Y01019050D02*
D03*
M02*
